<svg xmlns="http://www.w3.org/2000/svg" xml:space="preserve" width="150" height="150"><path d="M72.8 57v29.7H8.1V32.4h40.1c-.1-.9-.1-1.9-.1-2.8 0-1 .1-1.9.1-2.8H5.3c-1.6 0-2.8 1.3-2.8 2.8v59.9c0 1.6 1.2 2.8 2.8 2.8h70.3c1.6 0 2.8-1.3 2.8-2.8V57c-.9.1-1.9.1-2.8.1-1 0-1.9 0-2.8-.1" style="stroke:none;stroke-opacity:1;fill:#6f6f6f;fill-opacity:1" transform="translate(28.5 21.3)"/>
    <path d="M15.8 80.4h49.4c1.2 0 2-1.4 1.3-2.4L49.3 50.6c-.6-1-2.1-1-2.7 0L35.4 68.5l-6.1-9.8c-.6-1-2.1-1-2.7 0L14.4 78c-.6 1.1.1 2.4 1.4 2.4m17.1-35.1c0-3.4-2.7-6.1-6.1-6.1s-6.1 2.7-6.1 6.1 2.7 6.1 6.1 6.1c3.3 0 6.1-2.7 6.1-6.1M75.6 7.7c-12.1 0-21.9 9.8-21.9 21.9s9.8 21.9 21.9 21.9 21.9-9.8 21.9-21.9S87.7 7.7 75.6 7.7m0 38.1c-9 0-16.2-7.3-16.2-16.2 0-9 7.3-16.2 16.2-16.2s16.2 7.3 16.2 16.2c.1 8.9-7.2 16.2-16.2 16.2"
          style="stroke:none;stroke-opacity:1;fill:#6f6f6f;fill-opacity:1" transform="translate(28.5 21.3)"/>
    <path d="M83.4 21.8c-1.1-1.1-2.9-1.1-4 0l-3.8 3.8-3.8-3.8c-1.1-1.1-2.9-1.1-4 0s-1.1 2.9 0 4l3.8 3.8-3.8 3.8c-1.1 1.1-1.1 2.9 0 4 .6.6 1.3.8 2 .8s1.4-.3 2-.8l3.8-3.8 3.8 3.8c.6.6 1.3.8 2 .8s1.4-.3 2-.8c1.1-1.1 1.1-2.9 0-4l-3.8-3.8 3.8-3.8c1.1-1.1 1.1-2.9 0-4"
          style="stroke:none;stroke-opacity:1;fill:#6f6f6f;fill-opacity:1" transform="translate(28.5 21.3)"/></svg>
