<?xml version="1.0" encoding="UTF-8" standalone="no"?>
<svg
   width="22.000174pt"
   height="19.79483pt"
   version="1.1"
   viewBox="0 0 22.000174 19.794831"
   id="svg339"
   sodipodi:docname="layer_selection.svg"
   inkscape:version="1.1.2 (0a00cf5339, 2022-02-04)"
   xmlns:inkscape="http://www.inkscape.org/namespaces/inkscape"
   xmlns:sodipodi="http://sodipodi.sourceforge.net/DTD/sodipodi-0.dtd"
   xmlns="http://www.w3.org/2000/svg"
   xmlns:svg="http://www.w3.org/2000/svg">
  <sodipodi:namedview
     id="namedview341"
     pagecolor="#ffffff"
     bordercolor="#666666"
     borderopacity="1.0"
     inkscape:pageshadow="2"
     inkscape:pageopacity="0.0"
     inkscape:pagecheckerboard="0"
     inkscape:document-units="pt"
     showgrid="false"
     inkscape:zoom="1.8289286"
     inkscape:cx="320.13279"
     inkscape:cy="343.37044"
     inkscape:window-width="3840"
     inkscape:window-height="2091"
     inkscape:window-x="0"
     inkscape:window-y="32"
     inkscape:window-maximized="1"
     inkscape:current-layer="g337" />
  <defs
     id="defs249">
    <symbol
       id="s"
       overflow="visible">
      <path
         d="m 26.797,-1.6094 c -1.375,0.71875 -2.8125,1.2617 -4.3125,1.625 -1.5,0.3633 -3.0625,0.54688 -4.6875,0.54688 -4.8555,0 -8.7031,-1.3516 -11.547,-4.0625 C 3.4141,-6.21882 2,-9.89842 2,-14.54702 c 0,-4.6641 1.4141,-8.3516 4.25,-11.062 2.8438,-2.7188 6.6914,-4.0781 11.547,-4.0781 1.625,0 3.1875,0.18359 4.6875,0.54688 1.5,0.36719 2.9375,0.90625 4.3125,1.625 v 6.0312 c -1.3984,-0.94531 -2.7734,-1.6406 -4.125,-2.0781 -1.3555,-0.44531 -2.7773,-0.67188 -4.2656,-0.67188 -2.6875,0 -4.8047,0.85938 -6.3438,2.5781 -1.5312,1.7188 -2.2969,4.0898 -2.2969,7.1094 0,3 0.76562,5.3594 2.2969,7.0781 1.5391,1.7188 3.6562,2.5781 6.3438,2.5781 1.4883,0 2.9102,-0.21875 4.2656,-0.65625 1.3516,-0.44531 2.7266,-1.1445 4.125,-2.0938 z"
         id="path192" />
    </symbol>
    <symbol
       id="b"
       overflow="visible">
      <path
         d="m 19.609,-15.922 c -0.61719,-0.28125 -1.2266,-0.48828 -1.8281,-0.625 -0.60547,-0.14453 -1.2148,-0.21875 -1.8281,-0.21875 -1.793,0 -3.1719,0.57812 -4.1406,1.7344 -0.9687,1.15628 -1.4531,2.8086 -1.4531,4.9531 v 10.078 h -7 v -21.875 h 7 v 3.5938 c 0.89453,-1.4375 1.9258,-2.4844 3.0938,-3.1406 1.1641,-0.65625 2.5625,-0.98438 4.1875,-0.98438 0.22656,0 0.47656,0.01172 0.75,0.03125 0.28125,0.02344 0.67969,0.0625 1.2031,0.125 z"
         id="path195" />
    </symbol>
    <symbol
       id="a"
       overflow="visible">
      <path
         d="m 25.203,-11 v 2 H 8.844 c 0.17578,1.6367 0.76953,2.8672 1.7812,3.6875 1.0195,0.82422 2.4414,1.2344 4.2656,1.2344 1.4688,0 2.9727,-0.21875 4.5156,-0.65625 1.5391,-0.4375 3.125,-1.0977 4.75,-1.9844 v 5.3906 c -1.6484,0.625 -3.2969,1.0938 -4.9531,1.4062 -1.6562,0.32031 -3.3125,0.48438 -4.9688,0.48438 -3.9609,0 -7.0391,-1.0039 -9.2344,-3.0156 -2.1875,-2.0078 -3.2812,-4.832 -3.2812,-8.4688 0,-3.5625 1.0781,-6.3633 3.2344,-8.4062 2.1562,-2.0508 5.1172,-3.0781 8.8906,-3.0781 3.4375,0 6.1875,1.0391 8.25,3.1094 2.0703,2.0742 3.1094,4.8398 3.1094,8.2969 z m -7.1875,-2.3281 c 0,-1.3203 -0.39062,-2.3906 -1.1719,-3.2031 -0.77344,-0.8125 -1.7812,-1.2188 -3.0312,-1.2188 -1.3555,0 -2.4609,0.38281 -3.3125,1.1406 -0.84375,0.76172 -1.3711,1.8555 -1.5781,3.2812 z"
         id="path198" />
    </symbol>
    <symbol
       id="d"
       overflow="visible">
      <path
         d="m 13.172,-9.8438 c -1.4609,0 -2.5586,0.25 -3.2969,0.75 -0.74219,0.49219 -1.1094,1.2148 -1.1094,2.1719 0,0.88672 0.29688,1.5859 0.89062,2.0938 0.59375,0.5 1.4141,0.75 2.4688,0.75 1.3203,0 2.4297,-0.47266 3.3281,-1.4219 0.89453,-0.94531 1.3438,-2.1289 1.3438,-3.5469 v -0.79688 z m 10.672,-2.6406 V -4e-4 h -7.0469 v -3.25 c -0.9375,1.3359 -1.9961,2.3047 -3.1719,2.9062 -1.168,0.60156 -2.5898,0.90625 -4.2656,0.90625 -2.2734,0 -4.1172,-0.66016 -5.5312,-1.9844 -1.4062,-1.3203 -2.1094,-3.0352 -2.1094,-5.1406 0,-2.5625 0.87891,-4.4414 2.6406,-5.6406 1.7695,-1.1953 4.5391,-1.7969 8.3125,-1.7969 h 4.125 v -0.54688 c 0,-1.1133 -0.4375,-1.9258 -1.3125,-2.4375 -0.86719,-0.50781 -2.2266,-0.76562 -4.0781,-0.76562 -1.5,0 -2.8984,0.15234 -4.1875,0.45312 -1.2812,0.29297 -2.4766,0.74219 -3.5781,1.3438 v -5.3438 c 1.4883,-0.36328 2.9883,-0.64062 4.5,-0.82812 1.5078,-0.1875 3.0195,-0.28125 4.5312,-0.28125 3.9453,0 6.7969,0.78125 8.5469,2.3438 1.75,1.5547 2.625,4.0781 2.625,7.5781 z"
         id="path201" />
    </symbol>
    <symbol
       id="c"
       overflow="visible">
      <path
         d="m 11,-28.094 v 6.2188 h 7.2031 v 5 H 11 v 9.2812 c 0,1.0117 0.19531,1.6992 0.59375,2.0625 0.40625,0.35547 1.207,0.53125 2.4062,0.53125 h 3.5938 v 5 h -5.9844 c -2.7617,0 -4.7188,-0.57031 -5.875,-1.7188 -1.1562,-1.1562 -1.7344,-3.1133 -1.7344,-5.875 v -9.2812 h -3.4688 v -5 h 3.4688 v -6.2188 z"
         id="path204" />
    </symbol>
    <symbol
       id="j"
       overflow="visible">
      <path
         d="m 18.25,-18.672 v -11.719 h 7.0312 V 0 H 18.25 v -3.1719 c -0.96875,1.293 -2.0312,2.2422 -3.1875,2.8438 -1.1562,0.59375 -2.5,0.89062 -4.0312,0.89062 -2.6875,0 -4.9023,-1.0664 -6.6406,-3.2031 -1.7305,-2.1445 -2.5938,-4.9062 -2.5938,-8.2812 0,-3.375 0.86328,-6.1289 2.5938,-8.2656 1.7383,-2.1445 3.9531,-3.2188 6.6406,-3.2188 1.5078,0 2.8477,0.30469 4.0156,0.90625 1.1641,0.60547 2.2344,1.5469 3.2031,2.8281 z m -4.6094,14.156 c 1.4883,0 2.6289,-0.54688 3.4219,-1.6406 0.78906,-1.0938 1.1875,-2.6797 1.1875,-4.7656 0,-2.082 -0.39844,-3.6719 -1.1875,-4.7656 -0.79297,-1.0938 -1.9336,-1.6406 -3.4219,-1.6406 -1.4922,0 -2.6328,0.54688 -3.4219,1.6406 -0.78125,1.0938 -1.1719,2.6836 -1.1719,4.7656 0,2.0859 0.39062,3.6719 1.1719,4.7656 0.78906,1.0938 1.9297,1.6406 3.4219,1.6406 z"
         id="path207" />
    </symbol>
    <symbol
       id="i"
       overflow="visible">
      <path
         d="m 15,-4.5156 c 1.5,0 2.6406,-0.54688 3.4219,-1.6406 0.78906,-1.0938 1.1875,-2.6797 1.1875,-4.7656 0,-2.082 -0.39844,-3.6719 -1.1875,-4.7656 C 17.64065,-16.7812 16.5,-17.328 15,-17.328 c -1.5,0 -2.6523,0.55469 -3.4531,1.6562 -0.79297,1.0938 -1.1875,2.6797 -1.1875,4.75 0,2.0742 0.39453,3.6641 1.1875,4.7656 0.80078,1.0938 1.9531,1.6406 3.4531,1.6406 z m -4.6406,-14.156 c 0.95703,-1.2812 2.0195,-2.2227 3.1875,-2.8281 1.1758,-0.60156 2.5234,-0.90625 4.0469,-0.90625 2.6953,0 4.9102,1.0742 6.6406,3.2188 1.7383,2.1367 2.6094,4.8906 2.6094,8.2656 0,3.375 -0.87109,6.1367 -2.6094,8.2812 -1.7305,2.1367 -3.9453,3.2031 -6.6406,3.2031 -1.5234,0 -2.8711,-0.30469 -4.0469,-0.90625 -1.168,-0.60156 -2.2305,-1.5469 -3.1875,-2.8281 V 3e-4 h -7 v -30.391 h 7 z"
         id="path210" />
    </symbol>
    <symbol
       id="h"
       overflow="visible">
      <path
         d="m 0.48438,-21.875 h 7 l 5.875,14.844 5,-14.844 h 7 l -9.2031,23.953 c -0.92969,2.4258 -2.0078,4.125 -3.2344,5.0938 -1.2305,0.97656 -2.8555,1.4688 -4.875,1.4688 H 3.99998 V 4.0468 h 2.1875 c 1.1875,0 2.0508,-0.19531 2.5938,-0.57812 0.53906,-0.375 0.96094,-1.0469 1.2656,-2.0156 l 0.1875,-0.60938 z"
         id="path213" />
    </symbol>
    <symbol
       id="g"
       overflow="visible">
      <path
         d="m 3.6719,-29.156 h 7.5156 v 23.469 h 13.203 V 5e-4 H 3.6715 Z"
         id="path216" />
    </symbol>
    <symbol
       id="f"
       overflow="visible">
      <path
         d="m 3.125,-8.5156 v -13.359 h 7.0312 v 2.1875 c 0,1.1875 -0.0078,2.6797 -0.01563,4.4688 -0.01172,1.7812 -0.01563,2.9766 -0.01563,3.5781 0,1.7617 0.03906,3.0273 0.125,3.7969 0.09375,0.77344 0.25,1.3359 0.46875,1.6875 0.28906,0.46094 0.66406,0.8125 1.125,1.0625 0.46875,0.24219 1,0.35938 1.5938,0.35938 1.457,0 2.6016,-0.55469 3.4375,-1.6719 0.83203,-1.125 1.25,-2.6797 1.25,-4.6719 v -10.797 h 7 v 21.875 h -7 v -3.1719 c -1.0547,1.2812 -2.168,2.2266 -3.3438,2.8281 -1.1797,0.60156 -2.4805,0.90625 -3.9062,0.90625 -2.5234,0 -4.4453,-0.76953 -5.7656,-2.3125 -1.3242,-1.5508 -1.9844,-3.8047 -1.9844,-6.7656 z"
         id="path219" />
    </symbol>
    <symbol
       id="r"
       overflow="visible">
      <path
         d="m 17.75,-30.391 v 4.5938 h -3.8594 c -0.99219,0 -1.6836,0.17969 -2.0781,0.53125 -0.38672,0.35547 -0.57812,0.97656 -0.57812,1.8594 v 1.5312 h 5.9688 v 5 h -5.9688 v 16.875 h -7 v -16.875 h -3.4688 v -5 h 3.4688 v -1.5312 c 0,-2.375 0.66016,-4.1289 1.9844,-5.2656 1.332,-1.1445 3.3945,-1.7188 6.1875,-1.7188 z"
         id="path222" />
    </symbol>
    <symbol
       id="e"
       overflow="visible">
      <path
         d="m 13.766,-17.406 c -1.543,0 -2.7266,0.55859 -3.5469,1.6719 -0.8125,1.1172 -1.2188,2.7188 -1.2188,4.8125 0,2.0937 0.40625,3.6992 1.2188,4.8125 0.82031,1.1172 2.0039,1.6719 3.5469,1.6719 1.5312,0 2.6953,-0.55469 3.5,-1.6719 0.8125,-1.1133 1.2188,-2.7188 1.2188,-4.8125 0,-2.0937 -0.40625,-3.6953 -1.2188,-4.8125 -0.80469,-1.1133 -1.9688,-1.6719 -3.5,-1.6719 z m 0,-5 c 3.7695,0 6.7109,1.0156 8.8281,3.0469 2.1133,2.0312 3.1719,4.8438 3.1719,8.4375 0,3.5937 -1.0586,6.4062 -3.1719,8.4375 -2.1172,2.0312 -5.0586,3.0469 -8.8281,3.0469 -3.7734,0 -6.7266,-1.0156 -8.8594,-3.0469 -2.125,-2.0312 -3.1875,-4.8438 -3.1875,-8.4375 0,-3.5937 1.0625,-6.4062 3.1875,-8.4375 2.1328,-2.0312 5.0859,-3.0469 8.8594,-3.0469 z"
         id="path225" />
    </symbol>
    <symbol
       id="q"
       overflow="visible">
      <path
         d="m 23.641,-18.25 c 0.88281,-1.3516 1.9297,-2.3828 3.1406,-3.0938 1.2188,-0.70703 2.5547,-1.0625 4.0156,-1.0625 2.5195,0 4.4375,0.77734 5.75,2.3281 1.3125,1.5547 1.9688,3.8047 1.9688,6.75 V -2e-4 h -7.0312 v -11.406 c 0.0078,-0.16406 0.01953,-0.33594 0.03125,-0.51562 0.0078,-0.1875 0.01563,-0.45312 0.01563,-0.79688 0,-1.5508 -0.23047,-2.6719 -0.6875,-3.3594 -0.46094,-0.69531 -1.1953,-1.0469 -2.2031,-1.0469 -1.3359,0 -2.3672,0.54688 -3.0938,1.6406 -0.71875,1.0938 -1.0898,2.6719 -1.1094,4.7344 V 0 h -7.0312 v -11.406 c 0,-2.4258 -0.21094,-3.9844 -0.625,-4.6719 -0.41797,-0.69531 -1.1641,-1.0469 -2.2344,-1.0469 -1.3359,0 -2.3672,0.55469 -3.0938,1.6562 -0.73047,1.0938 -1.0938,2.6641 -1.0938,4.7031 V 5e-4 h -7.0312 v -21.875 h 7.0312 v 3.2031 c 0.85156,-1.2383 1.8359,-2.1719 2.9531,-2.7969 1.1133,-0.625 2.3438,-0.9375 3.6875,-0.9375 1.5078,0 2.8438,0.36719 4,1.0938 1.1562,0.73047 2.0352,1.75 2.6406,3.0625 z"
         id="path228" />
    </symbol>
    <symbol
       id="p"
       overflow="visible">
      <path
         d="M 25.359,-13.328 V 0 h -7.0312 v -10.156 c 0,-1.9141 -0.04687,-3.2266 -0.14062,-3.9375 -0.08594,-0.71875 -0.23047,-1.25 -0.4375,-1.5938 -0.27344,-0.45703 -0.64062,-0.8125 -1.1094,-1.0625 -0.46878,-0.25 -1,-0.375 -1.5938,-0.375 -1.4609,0 -2.6055,0.5625 -3.4375,1.6875 -0.83594,1.125 -1.25,2.6836 -1.25,4.6719 V 6e-4 h -7 v -30.391 h 7 v 11.719 c 1.0508,-1.2812 2.1641,-2.2227 3.3438,-2.8281 1.1875,-0.60156 2.5,-0.90625 3.9375,-0.90625 2.5195,0 4.4375,0.77734 5.75,2.3281 1.3125,1.5547 1.9688,3.8047 1.9688,6.75 z"
         id="path231" />
    </symbol>
    <symbol
       id="o"
       overflow="visible">
      <path
         d="m 3.6719,-29.156 h 8.4062 l 10.594,20 v -20 h 7.1406 V 0 H 21.4065 L 10.7975,-20 V 0 h -7.125 z"
         id="path234" />
    </symbol>
    <symbol
       id="n"
       overflow="visible">
      <path
         d="M 25.359,-13.328 V 0 h -7.0312 v -10.203 c 0,-1.8828 -0.04687,-3.1797 -0.14062,-3.8906 -0.08594,-0.71875 -0.23047,-1.25 -0.4375,-1.5938 -0.27344,-0.45703 -0.64062,-0.8125 -1.1094,-1.0625 -0.46878,-0.25 -1,-0.375 -1.5938,-0.375 -1.4609,0 -2.6055,0.5625 -3.4375,1.6875 -0.83594,1.125 -1.25,2.6836 -1.25,4.6719 V 5e-4 h -7 v -21.875 h 7 v 3.2031 c 1.0508,-1.2812 2.1641,-2.2227 3.3438,-2.8281 1.1875,-0.60156 2.5,-0.90625 3.9375,-0.90625 2.5195,0 4.4375,0.77734 5.75,2.3281 1.3125,1.5547 1.9688,3.8047 1.9688,6.75 z"
         id="path237" />
    </symbol>
    <symbol
       id="m"
       overflow="visible">
      <path
         d="m 3.6719,-29.156 h 12.484 c 3.707,0 6.5508,0.82422 8.5312,2.4688 1.9883,1.6484 2.9844,3.9922 2.9844,7.0312 0,3.0625 -0.99609,5.418 -2.9844,7.0625 -1.9805,1.6484 -4.8242,2.4688 -8.5312,2.4688 H 11.1871 V 3e-4 H 3.6715 Z m 7.5156,5.4375 v 8.1562 h 4.1719 c 1.457,0 2.582,-0.35156 3.375,-1.0625 0.78906,-0.71875 1.1875,-1.7266 1.1875,-3.0312 0,-1.3008 -0.39844,-2.3008 -1.1875,-3 -0.79297,-0.70703 -1.918,-1.0625 -3.375,-1.0625 z"
         id="path240" />
    </symbol>
    <symbol
       id="l"
       overflow="visible">
      <path
         d="m 3.3594,-21.875 h 7 V -0.391 C 10.3594,2.5348 9.65628,4.7692 8.25,6.3121 6.8438,7.8629 4.8008,8.6402 2.125,8.6402 H -1.3281 V 4.0464 h 1.2031 c 1.332,0 2.2422,-0.30469 2.7344,-0.90625 0.5,-0.59375 0.75,-1.7734 0.75,-3.5312 z m 0,-8.5156 h 7 v 5.7031 h -7 z"
         id="path243" />
    </symbol>
    <symbol
       id="k"
       overflow="visible">
      <path
         d="m 21.031,-21.188 v 5.7031 c -0.94922,-0.65625 -1.9023,-1.1406 -2.8594,-1.4531 -0.96094,-0.3125 -1.9492,-0.46875 -2.9688,-0.46875 -1.9609,0 -3.4844,0.57422 -4.5781,1.7188 -1.0859,1.1367 -1.625,2.7266 -1.625,4.7656 0,2.043 0.53906,3.6367 1.625,4.7812 1.0938,1.1367 2.6172,1.7031 4.5781,1.7031 1.0938,0 2.1289,-0.16016 3.1094,-0.48438 0.97656,-0.32031 1.8828,-0.80469 2.7188,-1.4531 v 5.7344 c -1.0938,0.39844 -2.2031,0.69141 -3.3281,0.89062 -1.125,0.20703 -2.2578,0.3125 -3.3906,0.3125 -3.9375,0 -7.0234,-1.0078 -9.25,-3.0312 -2.2305,-2.0312 -3.3438,-4.8477 -3.3438,-8.4531 0,-3.6016 1.1133,-6.4141 3.3438,-8.4375 2.2266,-2.0312 5.3125,-3.0469 9.25,-3.0469 1.1445,0 2.2734,0.10547 3.3906,0.3125 1.1133,0.19922 2.2227,0.5 3.3281,0.90625 z"
         id="path246" />
    </symbol>
  </defs>
  <g
     id="g337"
     transform="translate(-109.99911,-64.048087)">
    <path
       d="m 131.76648,77.859292 -2.33942,-1.007074 -7.21997,3.630792 c -0.75999,0.382233 -1.65606,0.382233 -2.41605,0 l -7.21997,-3.630792 -2.33924,1.00689 c -0.2997,0.129083 -0.31223,0.549439 -0.0208,0.696102 l 10.27011,5.164847 c 0.32566,0.163814 0.70967,0.163814 1.03554,0 l 10.27011,-5.164847 c 0.29165,-0.146627 0.27911,-0.566992 -0.0206,-0.696102 z"
       id="path251"
       style="stroke-width:0.0458323" />
    <path
       d="m 117.327,72.91444 2.29303,1.153142 c 0.0528,0.02667 0.10904,0.03921 0.16435,0.03921 0.13428,0 0.26354,-0.07394 0.32781,-0.201947 0.091,-0.180822 0.0181,-0.401212 -0.16292,-0.492331 l -2.29304,-1.153142 c -0.0528,-0.0265 -0.10903,-0.03921 -0.16435,-0.03921 -0.13427,0 -0.26353,0.07394 -0.3278,0.201947 -0.0909,0.181001 -0.0181,0.40139 0.16292,0.492331 z"
       id="path253"
       style="stroke-width:0.0458323" />
    <path
       d="m 114.04632,67.7638 c 0.0483,0 0.0976,-0.0097 0.14484,-0.0299 l 2.35752,-1.014774 c 0.18602,-0.08003 0.27195,-0.295761 0.19174,-0.48179 -0.0598,-0.138748 -0.19496,-0.221819 -0.33694,-0.221819 -0.048,0 -0.0969,0.0095 -0.14376,0.02954 l -2.35858,1.015279 c -0.18601,0.08003 -0.27177,0.29576 -0.19174,0.481789 0.0596,0.13857 0.19479,0.221641 0.33694,0.221641 z"
       id="path255"
       style="stroke-width:0.0458323" />
    <path
       d="m 118.76155,65.736636 c 0.0483,0 0.0976,-0.0097 0.14484,-0.0299 l 2.1466,-0.893914 2.43934,1.063998 c 0.0473,0.02041 0.0965,0.0299 0.14484,0.0299 0.14197,0 0.27714,-0.08307 0.33694,-0.221819 0.08,-0.186015 -0.006,-0.401748 -0.19175,-0.48179 l -2.55675,-1.115192 c -0.13965,-0.05872 -0.21556,-0.04708 -0.33873,-3.58e-4 l -2.27067,0.945659 c -0.18602,0.08003 -0.27178,0.295761 -0.19175,0.48179 0.0598,0.138569 0.19497,0.22164 0.33712,0.22164 z"
       id="path257"
       style="stroke-width:0.0458323" />
    <path
       d="m 115.03492,71.761756 c 0.0526,0.02632 0.10867,0.03885 0.16364,0.03885 0.13427,0 0.26353,-0.07394 0.3278,-0.201946 0.091,-0.180822 0.0181,-0.401391 -0.16292,-0.492331 l -2.29304,-1.153142 c -0.0528,-0.02668 -0.10903,-0.03921 -0.16435,-0.03921 -0.13427,0 -0.26353,0.07394 -0.3278,0.201946 -0.0909,0.180823 -0.0181,0.401212 0.16292,0.492331 z"
       id="path259"
       style="stroke-width:0.0458323" />
    <path
       d="m 110.21015,69.33585 c 1.8e-4,1.83e-4 5.4e-4,3.67e-4 8.9e-4,3.67e-4 h 1.9e-4 l 3.6e-4,1.83e-4 5.4e-4,3.67e-4 h 1.8e-4 c 3.7e-4,1.83e-4 7.2e-4,3.66e-4 0.001,5.36e-4 1.8e-4,0 1.8e-4,1.83e-4 3.6e-4,1.83e-4 l 1.9e-4,1.83e-4 c 1.8e-4,0 1.8e-4,1.84e-4 3.6e-4,1.84e-4 1.9e-4,0 3.7e-4,1.83e-4 5.4e-4,3.66e-4 h 1.8e-4 c 3.7e-4,1.84e-4 7.2e-4,3.67e-4 0.001,5.37e-4 l 5.4e-4,3.66e-4 c 0.0356,0.0179 0.23149,0.116373 0.23149,0.116373 0.0528,0.02668 0.10903,0.03921 0.16435,0.03921 0.13428,0 0.26354,-0.07394 0.32781,-0.201946 0.0285,-0.0564 0.0408,-0.11673 0.039,-0.175808 l 0.85436,-0.367732 c 0.18601,-0.08003 0.27195,-0.29576 0.19174,-0.481789 -0.0598,-0.138749 -0.19497,-0.22182 -0.33694,-0.22182 -0.0483,0 -0.0976,0.0097 -0.14484,0.0299 l -1.31213,0.564837 c -0.2417,0.104017 -0.29666,0.397812 -0.15576,0.584363 0.0338,0.0444 0.0784,0.08289 0.13445,0.11118 z"
       id="path261"
       style="stroke-width:0.0458323" />
    <path
       d="m 130.5643,68.921067 0.22754,0.09793 c -0.15146,0.101331 -0.20714,0.302026 -0.12317,0.469048 0.0645,0.12801 0.19371,0.201947 0.32781,0.201947 0.0551,0 0.111,-0.01253 0.16363,-0.03885 l 0.6268,-0.315277 c 0.14574,-0.07323 0.21556,-0.215017 0.21144,-0.354485 -5.3e-4,-0.01629 -0.002,-0.03258 -0.004,-0.0487 v -1.83e-4 -5.37e-4 -3.66e-4 -3.67e-4 c -0.0192,-0.121382 -0.0954,-0.234712 -0.22737,-0.291466 l -0.91216,-0.392618 c -0.0473,-0.02041 -0.0965,-0.0299 -0.14484,-0.0299 -0.14197,0 -0.27732,0.08307 -0.33694,0.22182 -0.08,0.186372 0.006,0.401926 0.19174,0.481973 z"
       id="path263"
       style="stroke-width:0.0458323" />
    <path
       d="m 128.53851,70.148916 -2.29304,1.153142 c -0.18083,0.09095 -0.25387,0.311339 -0.16292,0.492331 0.0645,0.128009 0.19371,0.201946 0.3278,0.201946 0.0551,0 0.11118,-0.01253 0.16382,-0.03885 l 2.29464,-1.154059 c 0.18011,-0.09131 0.25261,-0.31116 0.16184,-0.491781 -0.0645,-0.128009 -0.19371,-0.202129 -0.3278,-0.201946 -0.0551,0 -0.11154,0.01271 -0.16435,0.03921 z"
       id="path265"
       style="stroke-width:0.0458323" />
    <path
       d="m 125.84952,66.891611 2.35753,1.014774 c 0.0473,0.02041 0.0965,0.0299 0.14484,0.0299 0.14197,0 0.27714,-0.08307 0.33694,-0.221819 0.08,-0.186015 -0.006,-0.401748 -0.19175,-0.48179 L 126.13956,66.2179 c -0.0473,-0.02041 -0.0965,-0.0299 -0.14484,-0.0299 -0.14198,0 -0.27715,0.08307 -0.33694,0.221819 -0.0802,0.186015 0.006,0.401748 0.19174,0.48179 z"
       id="path267"
       style="stroke-width:0.0458323" />
    <path
       d="m 121.65953,73.608341 c -0.18082,0.09095 -0.25387,0.31134 -0.16292,0.492332 0.0644,0.128009 0.19371,0.201946 0.3278,0.201946 0.0553,0 0.11154,-0.01253 0.16436,-0.03921 l 2.29303,-1.153142 c 0.18083,-0.09095 0.25387,-0.311339 0.16292,-0.492331 -0.0645,-0.12801 -0.19371,-0.201947 -0.3278,-0.201947 -0.0553,0 -0.11154,0.01253 -0.16435,0.03921 z"
       id="path269"
       style="stroke-width:0.0458323" />
    <path
       d="m 110.21107,73.945668 10.27057,5.164847 c 0.32566,0.163814 0.70967,0.163814 1.03553,0 l 10.27057,-5.164847 c 0.29147,-0.146627 0.27911,-0.566992 -0.0208,-0.696102 l -2.33924,-1.007074 -7.21997,3.630792 c -0.75999,0.382233 -1.65606,0.382233 -2.41605,0 l -7.22043,-3.630609 -2.33924,1.007074 c -0.29988,0.128904 -0.31241,0.549255 -0.0208,0.695919 z"
       id="path271"
       style="stroke-width:0.0458323" />
  </g>
</svg>
