<?xml version="1.0" encoding="UTF-8" standalone="no"?>
<svg
   width="21.99999pt"
   height="22.010664pt"
   version="1.1"
   viewBox="0 0 21.99999 22.010664"
   id="svg361"
   sodipodi:docname="update.svg"
   inkscape:version="1.1.2 (0a00cf5339, 2022-02-04)"
   xmlns:inkscape="http://www.inkscape.org/namespaces/inkscape"
   xmlns:sodipodi="http://sodipodi.sourceforge.net/DTD/sodipodi-0.dtd"
   xmlns="http://www.w3.org/2000/svg"
   xmlns:svg="http://www.w3.org/2000/svg">
  <sodipodi:namedview
     id="namedview363"
     pagecolor="#ffffff"
     bordercolor="#666666"
     borderopacity="1.0"
     inkscape:pageshadow="2"
     inkscape:pageopacity="0.0"
     inkscape:pagecheckerboard="0"
     inkscape:document-units="pt"
     showgrid="false"
     inkscape:zoom="1.8289286"
     inkscape:cx="349.1115"
     inkscape:cy="442.33548"
     inkscape:window-width="3840"
     inkscape:window-height="2091"
     inkscape:window-x="0"
     inkscape:window-y="32"
     inkscape:window-maximized="1"
     inkscape:current-layer="g359" />
  <defs
     id="defs269">
    <symbol
       id="v"
       overflow="visible">
      <path
         d="M 1.8281,-0.10938 C 1.73435,-0.054692 1.63279,-0.019536 1.53122,0 1.43747,0.019531 1.332,0.03125 1.21872,0.03125 c -0.33594,0 -0.60156,-0.085938 -0.79688,-0.26562 -0.1875,-0.1875 -0.28125,-0.44141 -0.28125,-0.76562 0,-0.3125 0.09375,-0.5625 0.28125,-0.75 0.19531,-0.1875 0.46094,-0.28125 0.79688,-0.28125 0.11328,0 0.21875,0.015625 0.3125,0.046875 0.10156,0.023437 0.20312,0.058594 0.29688,0.10938 v 0.40625 C 1.73435,-1.531235 1.6406,-1.578115 1.54685,-1.609355 1.4531,-1.640595 1.35154,-1.65623 1.24997,-1.65623 c -0.17969,0 -0.32031,0.0625 -0.42188,0.1875 -0.10547,0.11719 -0.15625,0.27344 -0.15625,0.46875 0,0.21094 0.050781,0.375 0.15625,0.5 0.10156,0.11719 0.24219,0.17188 0.42188,0.17188 0.10156,0 0.20312,-0.015625 0.29688,-0.046875 0.09376,-0.03125 0.1875,-0.078125 0.28125,-0.14062 z"
         id="path203" />
    </symbol>
    <symbol
       id="f"
       overflow="visible">
      <path
         d="M 1.3438,-1.0938 C 1.300831,-1.113331 1.257862,-1.12505 1.2188,-1.12505 1.175831,-1.132862 1.132862,-1.140675 1.0938,-1.140675 c -0.125,0 -0.22656,0.042969 -0.29688,0.125 -0.0625,0.074219 -0.09375,0.18359 -0.09375,0.32812 v 0.6875 H 0.23442 v -1.5 h 0.46875 v 0.25 c 0.0625,-0.09375 0.12891,-0.16016 0.20312,-0.20312 C 0.988321,-1.503956 1.08598,-1.5313 1.20317,-1.5313 h 0.046875 c 0.019531,0 0.050781,0.00781 0.09375,0.015625 z"
         id="path206" />
    </symbol>
    <symbol
       id="a"
       overflow="visible">
      <path
         d="m 1.7188,-0.75 v 0.14062 H 0.6094 c 0.007813,0.10547 0.046875,0.1875 0.10938,0.25 0.070312,0.054687 0.17188,0.078125 0.29688,0.078125 0.10156,0 0.20703,-0.015625 0.3125,-0.046875 0.10156,-0.03125 0.21094,-0.070313 0.32812,-0.125 v 0.35938 C 1.53909,-0.050781 1.42581,-0.019531 1.31253,0 1.19534,0.019531 1.08206,0.03125 0.96878,0.03125 c -0.27344,0 -0.48047,-0.066406 -0.625,-0.20312 -0.14844,-0.13281 -0.21875,-0.32812 -0.21875,-0.57812 0,-0.23828 0.070312,-0.42578 0.21875,-0.5625 0.14453,-0.14453 0.34766,-0.21875 0.60938,-0.21875 0.22656,0 0.41016,0.074219 0.54688,0.21875 0.14453,0.13672 0.21875,0.32422 0.21875,0.5625 z M 1.23442,-0.90625 C 1.23442,-1 1.207076,-1.07031 1.156295,-1.125 c -0.054688,-0.0625 -0.125,-0.09375 -0.21875,-0.09375 -0.085938,0 -0.15625,0.027344 -0.21875,0.078125 -0.0625,0.054687 -0.10156,0.13281 -0.10938,0.23438 z"
         id="path209" />
    </symbol>
    <symbol
       id="e"
       overflow="visible">
      <path
         d="m 0.90625,-0.67188 c -0.10547,0 -0.18359,0.015625 -0.23438,0.046875 -0.054687,0.03125 -0.078125,0.085938 -0.078125,0.15625 0,0.0625 0.019531,0.10938 0.0625,0.14062 0.039062,0.03125 0.097656,0.046875 0.17188,0.046875 0.09375,0 0.16406,-0.03125 0.21875,-0.09375 0.0625,-0.0625 0.09375,-0.14453 0.09375,-0.25 V -0.671885 Z M 1.625,-0.85938 V 0 H 1.14062 V -0.21875 C 1.07812,-0.125 1.0039,-0.05469 0.92187,-0.01563 0.847651,0.01562 0.7539,0.031245 0.64062,0.031245 c -0.15625,0 -0.28125,-0.039062 -0.375,-0.125 -0.09375,-0.09375 -0.14062,-0.21094 -0.14062,-0.35938 0,-0.17578 0.054688,-0.30078 0.17188,-0.375 0.125,-0.082031 0.3125,-0.125 0.5625,-0.125 H 1.14063 V -1.00001 c 0,-0.070312 -0.03125,-0.125 -0.09375,-0.15625 -0.054687,-0.039062 -0.14062,-0.0625 -0.26562,-0.0625 -0.10547,0 -0.20312,0.011719 -0.29688,0.03125 C 0.398443,-1.164072 0.32032,-1.132822 0.25,-1.09376 v -0.35938 c 0.10156,-0.03125 0.20703,-0.050781 0.3125,-0.0625 0.10156,-0.00781 0.20312,-0.015625 0.29688,-0.015625 0.26953,0 0.46094,0.054688 0.57812,0.15625 0.125,0.10547 0.1875,0.27734 0.1875,0.51562 z"
         id="path212" />
    </symbol>
    <symbol
       id="d"
       overflow="visible">
      <path
         d="m 0.75,-1.9219 v 0.42188 h 0.5 v 0.34375 h -0.5 v 0.64062 c 0,0.0625 0.007812,0.10938 0.03125,0.14062 0.03125,0.023438 0.085938,0.03125 0.17188,0.03125 h 0.25 V -3e-5 H 0.79688 C 0.60938,-3e-5 0.47266,-0.035186 0.39063,-0.10941 0.316411,-0.191441 0.28125,-0.32816 0.28125,-0.51566 v -0.64062 h -0.25 v -0.34375 h 0.25 v -0.42188 z"
         id="path215" />
    </symbol>
    <symbol
       id="k"
       overflow="visible">
      <path
         d="M 1.25,-1.2812 V -2.07808 H 1.73438 V 2e-5 H 1.25 V -0.21873 C 1.175781,-0.12498 1.09766,-0.05467 1.01562,-0.01561 0.941401,0.01564 0.85156,0.031265 0.75,0.031265 c -0.17969,0 -0.32812,-0.070312 -0.45312,-0.21875 -0.11719,-0.14453 -0.17188,-0.33203 -0.17188,-0.5625 0,-0.22656 0.054688,-0.41406 0.17188,-0.5625 0.125,-0.14453 0.27344,-0.21875 0.45312,-0.21875 0.10156,0 0.19141,0.023438 0.26562,0.0625 0.082031,0.042969 0.16016,0.10547 0.23438,0.1875 z m -0.3125,0.96875 c 0.09375,0 0.16406,-0.035156 0.21875,-0.10938 C 1.21875,-0.492143 1.25,-0.60152 1.25,-0.74995 c 0,-0.13281 -0.03125,-0.23828 -0.09375,-0.3125 -0.054688,-0.082031 -0.125,-0.125 -0.21875,-0.125 -0.10547,0 -0.18359,0.042969 -0.23438,0.125 -0.054687,0.074219 -0.078125,0.17969 -0.078125,0.3125 0,0.14844 0.023438,0.25781 0.078125,0.32812 0.050781,0.074219 0.12891,0.10938 0.23438,0.10938 z"
         id="path218" />
    </symbol>
    <symbol
       id="j"
       overflow="visible">
      <path
         d="m 1.0312,-0.3125 c 0.09375,0 0.16406,-0.035156 0.21875,-0.10938 0.0625,-0.070313 0.09375,-0.17969 0.09375,-0.32812 0,-0.13281 -0.03125,-0.23828 -0.09375,-0.3125 -0.054688,-0.082031 -0.125,-0.125 -0.21875,-0.125 -0.10547,0 -0.1875,0.042969 -0.25,0.125 -0.054688,0.074219 -0.078125,0.17969 -0.078125,0.3125 0,0.14844 0.023437,0.25781 0.078125,0.32812 0.0625,0.074219 0.14453,0.10938 0.25,0.10938 z M 0.70308,-1.28125 c 0.070313,-0.082031 0.14453,-0.14453 0.21875,-0.1875 0.082031,-0.039062 0.17578,-0.0625 0.28125,-0.0625 0.1875,0 0.33594,0.074219 0.45312,0.21875 0.11328,0.14844 0.17188,0.33594 0.17188,0.5625 0,0.23047 -0.058594,0.41797 -0.17188,0.5625 -0.11719,0.14844 -0.26562,0.21875 -0.45312,0.21875 -0.10547,0 -0.19922,-0.015625 -0.28125,-0.046875 -0.074219,-0.039062 -0.14844,-0.10938 -0.21875,-0.20312 V 5e-6 H 0.23433 v -2.0781 h 0.46875 z"
         id="path221" />
    </symbol>
    <symbol
       id="i"
       overflow="visible">
      <path
         d="M 0.03125,-1.5 H 0.51563 L 0.90625,-0.4844 1.25,-1.5 h 0.48438 l -0.625,1.6406 C 1.04688,0.30466 0.96876,0.42185 0.875,0.48435 0.789062,0.554663 0.67969,0.59373 0.54688,0.59373 H 0.28126 v -0.3125 h 0.14062 c 0.082031,0 0.14062,-0.015625 0.17188,-0.046875 0.039062,-0.023437 0.070312,-0.070313 0.09375,-0.14062 l 0.015625,-0.03125 z"
         id="path224" />
    </symbol>
    <symbol
       id="c"
       overflow="visible">
      <path
         d="m 1.3906,-1.4531 v 0.375 C 1.29685,-1.128881 1.19529,-1.164037 1.09372,-1.18748 0.99997,-1.207011 0.91013,-1.21873 0.8281,-1.21873 c -0.085937,0 -0.15234,0.015625 -0.20312,0.046875 -0.042969,0.023437 -0.0625,0.054687 -0.0625,0.09375 0,0.042969 0.015625,0.074219 0.046875,0.09375 0.03125,0.023437 0.09375,0.039063 0.1875,0.046875 l 0.078125,0.015625 c 0.25,0.03125 0.41406,0.085937 0.5,0.15625 0.082031,0.0625 0.125,0.17188 0.125,0.32812 0,0.15624 -0.0625,0.27734 -0.1875,0.35938 -0.11719,0.074219 -0.28906,0.10938 -0.51562,0.10938 -0.10547,0 -0.21094,-0.011719 -0.3125,-0.03125 -0.10547,-0.0078125 -0.21094,-0.03125 -0.3125,-0.0625 v -0.35938 c 0.09375,0.054687 0.1875,0.089844 0.28125,0.10938 0.10156,0.023438 0.20703,0.03125 0.3125,0.03125 0.09375,0 0.16016,-0.007812 0.20312,-0.03125 0.050781,-0.03125 0.078125,-0.070312 0.078125,-0.125 0,-0.039062 -0.015625,-0.070312 -0.046875,-0.09375 C 0.96873,-0.550756 0.89842,-0.566381 0.79686,-0.5781 L 0.718735,-0.593725 c -0.21875,-0.019531 -0.37109,-0.066406 -0.45312,-0.14062 -0.085937,-0.070313 -0.125,-0.17969 -0.125,-0.32812 0,-0.15625 0.050781,-0.26953 0.15625,-0.34375 0.11328,-0.082031 0.28125,-0.125 0.5,-0.125 0.09375,0 0.1875,0.011719 0.28125,0.03125 0.10156,0.011719 0.20703,0.027344 0.3125,0.046875 z"
         id="path227" />
    </symbol>
    <symbol
       id="b"
       overflow="visible">
      <path
         d="M 1.7344,-0.90625 V 0 H 1.25002 v -0.6875 c 0,-0.13281 -0.00781,-0.22266 -0.015625,-0.26562 0,-0.050781 -0.00781,-0.09375 -0.015625,-0.125 -0.023438,-0.03125 -0.046875,-0.050781 -0.078125,-0.0625 -0.03125,-0.019531 -0.070313,-0.03125 -0.10938,-0.03125 -0.10547,0 -0.1875,0.042969 -0.25,0.125 -0.054688,0.074219 -0.078125,0.17969 -0.078125,0.3125 V 1e-5 H 0.23439 v -2.0781 h 0.46875 v 0.79688 c 0.070313,-0.082031 0.14844,-0.14453 0.23438,-0.1875 0.082031,-0.039062 0.17188,-0.0625 0.26562,-0.0625 0.17578,0 0.30469,0.054688 0.39062,0.15625 0.09375,0.10547 0.14062,0.26172 0.14062,0.46875 z"
         id="path230" />
    </symbol>
    <symbol
       id="h"
       overflow="visible">
      <path
         d="M 1.7344,-0.90625 V 0 H 1.25002 v -0.70312 c 0,-0.125 -0.00781,-0.20703 -0.015625,-0.25 0,-0.050781 -0.00781,-0.09375 -0.015625,-0.125 -0.023438,-0.03125 -0.046875,-0.050781 -0.078125,-0.0625 -0.03125,-0.019531 -0.070313,-0.03125 -0.10938,-0.03125 -0.10547,0 -0.1875,0.042969 -0.25,0.125 -0.054688,0.074219 -0.078125,0.17969 -0.078125,0.3125 V 1e-5 H 0.23439 v -1.5 h 0.46875 v 0.21875 c 0.070313,-0.082031 0.14844,-0.14453 0.23438,-0.1875 0.082031,-0.039062 0.17188,-0.0625 0.26562,-0.0625 0.17578,0 0.30469,0.054688 0.39062,0.15625 0.09375,0.10547 0.14062,0.26172 0.14062,0.46875 z"
         id="path233" />
    </symbol>
    <symbol
       id="u"
       overflow="visible">
      <path
         d="m 0.23438,-2.0781 h 0.46875 v 1.125 l 0.54688,-0.54688 h 0.5625 L 1.07813,-0.81248 1.87501,2e-5 H 1.29689 l -0.59375,-0.625 V 2e-5 H 0.23439 Z"
         id="path236" />
    </symbol>
    <symbol
       id="t"
       overflow="visible">
      <path
         d="M 0.23438,-1.5 H 0.70313 V 0 H 0.23438 Z m 0,-0.57812 H 0.70313 V -1.6875 H 0.23438 Z"
         id="path239" />
    </symbol>
    <symbol
       id="s"
       overflow="visible">
      <path
         d="M 1.25,-0.25 C 1.175781,-0.164062 1.09766,-0.10156 1.01562,-0.0625 0.941401,-0.019531 0.85156,0 0.75,0 0.57031,0 0.42188,-0.070312 0.29688,-0.21875 0.17969,-0.36328 0.125,-0.54687 0.125,-0.76563 c 0,-0.21876 0.054688,-0.39844 0.17188,-0.54688 0.125,-0.14453 0.27344,-0.21875 0.45312,-0.21875 0.10156,0 0.19141,0.023438 0.26562,0.0625 0.082031,0.042969 0.16016,0.10547 0.23438,0.1875 v -0.21875 h 0.48438 v 1.3438 C 1.73438,0.08207 1.656255,0.26567 1.5,0.39067 1.34375,0.52348 1.125,0.59379 0.84375,0.59379 0.75,0.59379 0.65625,0.582071 0.5625,0.56254 0.476562,0.550821 0.39453,0.53129 0.3125,0.50004 v -0.375 c 0.082031,0.050781 0.16016,0.085938 0.23438,0.10938 0.082031,0.03125 0.16406,0.046875 0.25,0.046875 0.15625,0 0.26953,-0.039062 0.34375,-0.10938 0.070313,-0.074219 0.10938,-0.17969 0.10938,-0.32812 z M 0.9375,-1.1875 c -0.10547,0 -0.18359,0.039062 -0.23438,0.10938 -0.054687,0.074219 -0.078125,0.17969 -0.078125,0.3125 0,0.13672 0.023438,0.24219 0.078125,0.3125 0.050781,0.074219 0.12891,0.10938 0.23438,0.10938 0.09375,0 0.16406,-0.035156 0.21875,-0.10938 C 1.21875,-0.523433 1.25,-0.6289 1.25,-0.76562 1.25,-0.89843 1.21875,-1.0039 1.15625,-1.07812 1.101562,-1.148433 1.03125,-1.1875 0.9375,-1.1875 Z"
         id="path242" />
    </symbol>
    <symbol
       id="r"
       overflow="visible">
      <path
         d="m 1.2188,-2.0781 v 0.3125 H 0.95318 c -0.074219,0 -0.125,0.015625 -0.15625,0.046875 -0.023437,0.023438 -0.03125,0.0625 -0.03125,0.125 v 0.09375 h 0.40625 v 0.34375 H 0.76568 v 1.1562 H 0.29693 v -1.1562 h -0.25 v -0.34375 h 0.25 v -0.09375 c 0,-0.16406 0.039063,-0.28516 0.125,-0.35938 0.09375,-0.082031 0.23438,-0.125 0.42188,-0.125 z"
         id="path245" />
    </symbol>
    <symbol
       id="g"
       overflow="visible">
      <path
         d="m 0.9375,-1.1875 c -0.10547,0 -0.1875,0.039062 -0.25,0.10938 -0.054688,0.074219 -0.078125,0.18359 -0.078125,0.32812 0,0.14844 0.023437,0.26172 0.078125,0.34375 0.0625,0.074219 0.14453,0.10938 0.25,0.10938 0.10156,0 0.17969,-0.035156 0.23438,-0.10938 0.0625,-0.082031 0.09375,-0.19531 0.09375,-0.34375 0,-0.14453 -0.03125,-0.25391 -0.09375,-0.32812 C 1.117193,-1.148433 1.03907,-1.1875 0.9375,-1.1875 Z m 0,-0.34375 c 0.25781,0 0.46094,0.074219 0.60938,0.21875 0.14453,0.13672 0.21875,0.32422 0.21875,0.5625 0,0.25 -0.074219,0.44531 -0.21875,0.57812 C 1.39844,-0.03516 1.19532,0.03124 0.9375,0.03124 0.67578,0.03124 0.47266,-0.035166 0.32812,-0.17188 0.1914,-0.30469 0.125,-0.5 0.125,-0.75 c 0,-0.23828 0.066406,-0.42578 0.20312,-0.5625 0.14453,-0.14453 0.34766,-0.21875 0.60938,-0.21875 z"
         id="path248" />
    </symbol>
    <symbol
       id="q"
       overflow="visible">
      <path
         d="m 1.6094,-1.25 c 0.0625,-0.09375 0.13281,-0.16016 0.21875,-0.20312 0.082031,-0.050781 0.17578,-0.078125 0.28125,-0.078125 0.16406,0 0.29688,0.054688 0.39062,0.15625 0.09375,0.10547 0.14062,0.26172 0.14062,0.46875 V 5e-6 H 2.15626 v -0.78125 -0.03125 -0.0625 c 0,-0.10156 -0.015625,-0.17578 -0.046875,-0.21875 -0.03125,-0.050781 -0.085937,-0.078125 -0.15625,-0.078125 -0.085937,0 -0.15234,0.039063 -0.20312,0.10938 C 1.695327,-0.988271 1.67189,-0.8789 1.67189,-0.73437 V 1e-5 H 1.18751 v -0.78125 c 0,-0.16406 -0.015625,-0.26953 -0.046875,-0.3125 -0.023437,-0.050781 -0.070313,-0.078125 -0.14062,-0.078125 -0.09375,0 -0.16797,0.042969 -0.21875,0.125 -0.054688,0.074219 -0.078125,0.17969 -0.078125,0.3125 V 1.5e-5 H 0.23439 v -1.5 h 0.46875 v 0.21875 c 0.0625,-0.082031 0.12891,-0.14453 0.20312,-0.1875 0.082031,-0.039062 0.16406,-0.0625 0.25,-0.0625 0.10156,0 0.19141,0.027344 0.26562,0.078125 0.082031,0.054687 0.14453,0.12109 0.1875,0.20312 z"
         id="path251" />
    </symbol>
    <symbol
       id="p"
       overflow="visible">
      <path
         d="m 0.25,-2 h 0.57812 l 0.71875,1.375 V -2 H 2.03125 V 0 H 1.46875 L 0.73437,-1.375 V 0 H 0.24999 Z"
         id="path254" />
    </symbol>
    <symbol
       id="o"
       overflow="visible">
      <path
         d="M 0.21875,-0.57812 V -1.5 H 0.6875 v 0.15625 0.3125 0.23438 0.26562 c 0.007812,0.054688 0.023438,0.089844 0.046875,0.10938 0.019531,0.03125 0.046875,0.058594 0.078125,0.078125 0.03125,0.011719 0.066406,0.015625 0.10938,0.015625 0.09375,0 0.16406,-0.035156 0.21875,-0.10938 0.0625,-0.070312 0.09375,-0.17578 0.09375,-0.3125 V -1.5 H 1.71876 V 0 H 1.23438 V -0.21875 C 1.160161,-0.125 1.08204,-0.05469 1,-0.01563 0.925781,0.01562 0.84375,0.031245 0.75,0.031245 c -0.17969,0 -0.3125,-0.050781 -0.40625,-0.15625 -0.085938,-0.10156 -0.125,-0.25391 -0.125,-0.45312 z"
         id="path257" />
    </symbol>
    <symbol
       id="n"
       overflow="visible">
      <path
         d="m 0.25,-2 h 0.85938 c 0.25,0 0.44141,0.058594 0.57812,0.17188 0.13281,0.11719 0.20312,0.27734 0.20312,0.48438 0,0.21094 -0.070313,0.37109 -0.20312,0.48438 -0.13672,0.11719 -0.32812,0.17188 -0.57812,0.17188 H 0.76563 V 2e-5 H 0.25001 Z m 0.51562,0.375 v 0.5625 h 0.28125 c 0.10156,0 0.17969,-0.019531 0.23438,-0.0625 0.050781,-0.050781 0.078125,-0.125 0.078125,-0.21875 0,-0.09375 -0.027344,-0.16016 -0.078125,-0.20312 C 1.226562,-1.597651 1.14844,-1.624995 1.04687,-1.624995 Z"
         id="path260" />
    </symbol>
    <symbol
       id="m"
       overflow="visible">
      <path
         d="m 0.23438,-1.5 h 0.46875 v 1.4688 c 0,0.20703 -0.046875,0.36328 -0.14062,0.46875 C 0.46876,0.53911 0.32813,0.5938 0.14063,0.5938 H -0.09375 V 0.2813 h 0.078125 c 0.09375,0 0.15625,-0.023438 0.1875,-0.0625 0.039063,-0.042969 0.0625,-0.125 0.0625,-0.25 z m 0,-0.57812 H 0.70313 V -1.6875 H 0.23438 Z"
         id="path263" />
    </symbol>
    <symbol
       id="l"
       overflow="visible">
      <path
         d="m 1.4375,-1.4531 v 0.39062 C 1.375,-1.101542 1.30469,-1.132792 1.23438,-1.15623 1.17188,-1.175761 1.10157,-1.18748 1.03126,-1.18748 c -0.125,0 -0.23047,0.042969 -0.3125,0.125 -0.074219,0.074219 -0.10938,0.17969 -0.10938,0.3125 0,0.14844 0.035156,0.26172 0.10938,0.34375 0.082031,0.074219 0.1875,0.10938 0.3125,0.10938 0.082031,0 0.15625,-0.007813 0.21875,-0.03125 0.070312,-0.03125 0.13281,-0.066406 0.1875,-0.10938 v 0.39062 C 1.363291,-0.01561 1.28517,0.003921 1.20313,0.01564 1.128911,0.0234525 1.05469,0.031265 0.98438,0.031265 c -0.27344,0 -0.48438,-0.066406 -0.64062,-0.20312 -0.14844,-0.13281 -0.21875,-0.32812 -0.21875,-0.57812 0,-0.23828 0.070312,-0.42578 0.21875,-0.5625 0.15625,-0.14453 0.36719,-0.21875 0.64062,-0.21875 0.070313,0 0.14453,0.011719 0.21875,0.03125 0.082031,0.011719 0.16016,0.027344 0.23438,0.046875 z"
         id="path266" />
    </symbol>
  </defs>
  <g
     id="g359"
     transform="translate(-88.37122,-18.244402)">
    <path
       d="m 92.071067,23.701568 c 0.03449,-0.04599 0.06898,-0.09197 0.103467,-0.135661 -0.04828,0.06208 -0.09657,0.124161 -0.144855,0.186244 0.531146,-0.685196 1.145035,-1.301397 1.82796,-1.832543 -0.06208,0.04828 -0.124161,0.09657 -0.186243,0.144855 0.689778,-0.531145 1.44624,-0.974923 2.248697,-1.315188 -0.07358,0.02989 -0.147155,0.06208 -0.220732,0.09197 0.823143,-0.344893 1.6877,-0.579412 2.572901,-0.698986 -0.08048,0.0115 -0.16325,0.02299 -0.243727,0.03219 0.889826,-0.117266 1.791172,-0.117266 2.680995,0 -0.0805,-0.0115 -0.16325,-0.02299 -0.24372,-0.03219 0.88293,0.119565 1.74744,0.354093 2.56831,0.698986 -0.0736,-0.02989 -0.14715,-0.06208 -0.22073,-0.09197 0.80246,0.337999 1.55661,0.77946 2.24643,1.310605 -0.0621,-0.04828 -0.12416,-0.09657 -0.18625,-0.144855 0.68289,0.528833 1.29909,1.145035 1.82797,1.82796 -0.0483,-0.06208 -0.0966,-0.124161 -0.14486,-0.186243 0.53115,0.689779 0.97261,1.443969 1.3106,2.246427 -0.0299,-0.07358 -0.0621,-0.147155 -0.092,-0.220733 0.3449,0.820831 0.57942,1.685388 0.69899,2.568319 -0.0115,-0.08048 -0.023,-0.16325 -0.0322,-0.243727 0.0575,0.446048 0.0874,0.892138 0.0897,1.342811 0,0.480566 0.42305,0.942717 0.91972,0.919719 0.49667,-0.023 0.91972,-0.404676 0.91972,-0.919719 -0.002,-1.761278 -0.42999,-3.499516 -1.23472,-5.065498 -0.77945,-1.517547 -1.9268,-2.807424 -3.2903,-3.823719 -1.3175,-0.981819 -2.8971,-1.657807 -4.51598,-1.936014 -1.890015,-0.324199 -3.858235,-0.195439 -5.665467,0.464463 -1.793442,0.655303 -3.425938,1.752071 -4.658509,3.214414 -0.181644,0.216132 -0.356393,0.441465 -0.526521,0.669093 -0.13336,0.179344 -0.149455,0.503564 -0.09197,0.708194 0.05978,0.213833 0.223033,0.443777 0.42305,0.549519 0.213833,0.112666 0.471359,0.170149 0.708194,0.09197 0.07358,-0.02989 0.147156,-0.06208 0.220733,-0.09197 0.140256,-0.08048 0.248322,-0.190843 0.331099,-0.328799 z"
       id="path271"
       style="stroke-width:0.0420443" />
    <path
       d="m 95.18655,22.471351 h -1.423283 -2.274009 -0.528833 c 0.305805,0.305805 0.613931,0.613931 0.919719,0.919719 v -1.423283 -2.274009 -0.528833 c 0,-0.480566 -0.42305,-0.942717 -0.919719,-0.919719 -0.49894,0.02299 -0.919719,0.404676 -0.919719,0.919719 v 1.423284 2.274008 0.528833 c 0,0.496628 0.420779,0.919719 0.919719,0.919719 h 1.423284 2.274008 0.528833 c 0.480567,0 0.942718,-0.423049 0.91972,-0.919719 -0.02299,-0.498939 -0.404677,-0.919719 -0.91972,-0.919719 z"
       id="path273"
       style="stroke-width:0.0420443" />
    <path
       d="m 106.67137,34.7979 c -0.0345,0.04599 -0.069,0.09197 -0.10346,0.13566 0.0483,-0.06208 0.0966,-0.124161 0.14485,-0.186243 -0.52883,0.685196 -1.14503,1.301397 -1.82796,1.832543 0.0621,-0.04828 0.12416,-0.09657 0.18624,-0.144855 -0.68977,0.531145 -1.44624,0.974923 -2.24869,1.315187 0.0736,-0.02989 0.14715,-0.06208 0.22073,-0.09197 -0.82314,0.344893 -1.6877,0.579412 -2.5729,0.698986 0.0805,-0.0115 0.16325,-0.02299 0.24372,-0.03219 -0.889821,0.117265 -1.791167,0.117265 -2.680992,0 0.08048,0.0115 0.163249,0.02299 0.243726,0.03219 -0.88293,-0.119566 -1.747445,-0.354093 -2.568318,-0.698986 0.07358,0.02989 0.147155,0.06208 0.220733,0.09197 -0.802458,-0.337998 -1.556607,-0.779459 -2.246428,-1.310605 0.06208,0.04828 0.124161,0.09657 0.186244,0.144856 -0.682883,-0.528834 -1.299085,-1.145035 -1.82796,-1.827961 0.04828,0.06208 0.09657,0.124161 0.144855,0.186244 -0.531146,-0.689779 -0.972611,-1.44397 -1.310605,-2.246427 0.02989,0.07358 0.06208,0.147155 0.09197,0.220733 -0.344894,-0.820831 -0.579413,-1.685388 -0.698987,-2.568319 0.0115,0.08048 0.02299,0.16325 0.03219,0.243727 -0.05748,-0.446048 -0.08737,-0.892138 -0.08967,-1.342811 0,-0.480567 -0.423049,-0.942718 -0.919719,-0.919719 -0.496669,0.023 -0.919719,0.404676 -0.919719,0.919719 0.0023,1.761278 0.429987,3.499515 1.234715,5.065498 0.779459,1.517547 1.926806,2.807424 3.290303,3.823719 1.317501,0.981818 2.897105,1.657807 4.515979,1.936014 1.890018,0.324199 3.858233,0.195439 5.665473,-0.464464 1.79344,-0.655302 3.42594,-1.75207 4.65851,-3.214413 0.18164,-0.216133 0.35639,-0.441465 0.52652,-0.669093 0.13336,-0.179344 0.14945,-0.503564 0.092,-0.708194 -0.0598,-0.213833 -0.22303,-0.443778 -0.42305,-0.549519 -0.21383,-0.112666 -0.47136,-0.170149 -0.7082,-0.09197 -0.0736,0.02989 -0.14715,0.06208 -0.22073,0.09197 -0.14025,0.08048 -0.24832,0.190843 -0.3311,0.328799 z"
       id="path275"
       style="stroke-width:0.0420443" />
    <path
       d="m 103.55589,36.028117 h 1.42328 2.27401 0.52883 c -0.3058,-0.305805 -0.61393,-0.613931 -0.91971,-0.91972 v 1.423284 2.274008 0.528834 c 0,0.480566 0.42305,0.942717 0.91971,0.919719 0.49894,-0.02299 0.91972,-0.404677 0.91972,-0.919719 v -1.423284 -2.274008 -0.528834 c 0,-0.496627 -0.42078,-0.919719 -0.91972,-0.919719 h -1.42328 -2.27401 -0.52883 c -0.48057,0 -0.94272,0.42305 -0.91972,0.919719 0.023,0.49894 0.40468,0.91972 0.91972,0.91972 z"
       id="path277"
       style="stroke-width:0.0420443" />
  </g>
</svg>
