<svg xmlns="http://www.w3.org/2000/svg" xml:space="preserve" width="24" height="24" viewBox="-402.5 403.5 24 24"><g style="opacity:.3"><path d="M-387.5 407.5c-1.516 0-2.619.904-3 2.236-.382-1.332-1.451-2.236-3-2.236-1 0-2 .7-2 2 0 1.299.61 2 1.909 2h6.108c1.298 0 1.984-.686 1.984-1.984-.001-1.3-1.001-2.016-2.001-2.016zm0 1c1 0 1 .957 1 1 0 .043.051 1-1 1h-2c.107-.719.379-2 2-2zm-4 2h-2c-1.051 0-1-.957-1-1 0-.043-.051-1 1-1 1.619 0 1.893 1.281 2 2zm0 7v-4h-3.5a1.5 1.5 0 0 0-1.5 1.5v2.5h5zm2 0h5V415a1.5 1.5 0 0 0-1.5-1.5h-3.5v4zm0 2v4h3.5a1.5 1.5 0 0 0 1.5-1.5v-2.5h-5zm-2 0h-5v2.5a1.5 1.5 0 0 0 1.5 1.5h3.5v-4z" style="fill:#fff;stroke:#fff;stroke-width:2;stroke-linejoin:round"/></g><path d="M9 4c-1 0-2 .7-2 2 0 1.299.607 2 1.906 2h6.125C16.33 8 17 7.33 17 6.031 16.999 4.731 16 4 15 4c-1.516 0-2.619.918-3 2.25C11.618 4.918 10.549 4 9 4zm0 1c1.619 0 1.893 1.281 2 2H9c-1.051 0-1-.957-1-1 0-.043-.051-1 1-1zm6 0c1 0 1 .957 1 1 0 .043.051 1-1 1h-2c.107-.719.379-2 2-2zm-7.5 5A1.5 1.5 0 0 0 6 11.5V14h5v-4H7.5zm5.5 0v4h5v-2.5a1.5 1.5 0 0 0-1.5-1.5H13zm-7 6v2.5A1.5 1.5 0 0 0 7.5 20H11v-4H6zm7 0v4h3.5a1.5 1.5 0 0 0 1.5-1.5V16h-5z" style="fill:#444;fill-opacity:1" transform="translate(-402.5 403.5)"/></svg>