<svg xmlns="http://www.w3.org/2000/svg" width="24" height="24"><g style="display:inline"><path d="M636 1269.362v2h-2v13h8v-13h-2v-2h-4zm9 2v3h-2v12h8v-12h-2v-3h-1v3h-2v-3h-1zm-10 2h2v1h-2v-1zm4 0h2v1h-2v-1zm-4 2h2v1h-2v-1zm4 0h2v1h-2v-1zm5 1h2v1h-2v-1zm4 0h2v1h-2v-1zm-13 1h2v1h-2v-1zm4 0h2v1h-2v-1zm5 1h2v1h-2v-1zm4 0h2v1h-2v-1zm-13 1h2v1h-2v-1zm4 0h2v1h-2v-1zm5 1h2v1h-2v-1zm4 0h2v1h-2v-1zm-13 1h2v1h-2v-1zm4 0h2v1h-2v-1zm5 1h2v1h-2v-1zm4 0h2v1h-2v-1z" style="opacity:.3;color:#000;fill:#fff;fill-opacity:1;fill-rule:nonzero;stroke:#fff;stroke-width:2;stroke-linecap:round;stroke-linejoin:round;stroke-miterlimit:4;stroke-opacity:1;stroke-dasharray:none;stroke-dashoffset:0;marker:none;visibility:visible;display:inline;overflow:visible;enable-background:accumulate" transform="translate(-630 -1266.362)"/><path d="M636 1269.362v2h-2v13h8v-13h-2v-2h-4zm9 2v3h-2v12h8v-12h-2v-3h-1v3h-2v-3h-1zm-10 2h2v1h-2v-1zm4 0h2v1h-2v-1zm-4 2h2v1h-2v-1zm4 0h2v1h-2v-1zm5 1h2v1h-2v-1zm4 0h2v1h-2v-1zm-13 1h2v1h-2v-1zm4 0h2v1h-2v-1zm5 1h2v1h-2v-1zm4 0h2v1h-2v-1zm-13 1h2v1h-2v-1zm4 0h2v1h-2v-1zm5 1h2v1h-2v-1zm4 0h2v1h-2v-1zm-13 1h2v1h-2v-1zm4 0h2v1h-2v-1zm5 1h2v1h-2v-1zm4 0h2v1h-2v-1z" style="color:#000;fill:#444;fill-opacity:1;fill-rule:nonzero;stroke:none;stroke-width:.46545455;marker:none;visibility:visible;display:inline;overflow:visible;enable-background:accumulate" transform="translate(-630 -1266.362)"/></g></svg>