<svg xmlns="http://www.w3.org/2000/svg" width="24" height="24"><g style="display:inline"><path d="M479 1246.362c-1 1-1 2-1 2l10 10 1.5-.5 4 4c.316.317.506.5.906.5.125 0 .281 0 .438-.156.156-.156.156-.312.156-.437 0-.4-.218-.625-.5-.907l-4-4 .5-1.5-10-10s-1 0-2 1zm3.5 9a1.5 1.5 0 1 0 0 3 1.5 1.5 0 0 0 0-3z" style="opacity:.3;color:#000;fill:none;stroke:#fff;stroke-width:2;stroke-linecap:butt;stroke-linejoin:miter;stroke-miterlimit:4;stroke-opacity:1;stroke-dasharray:none;stroke-dashoffset:0;marker:none;visibility:visible;display:inline;overflow:visible;enable-background:accumulate" transform="translate(-474 -1242.362)"/><path d="M479 1246.362c-1 1-1 2-1 2l10 10 1.5-.5 4 4c.316.317.506.5.906.5.125 0 .281 0 .438-.156.156-.156.156-.312.156-.437 0-.4-.218-.625-.5-.907l-4-4 .5-1.5-10-10s-1 0-2 1zm3.5 9a1.5 1.5 0 1 0 0 3 1.5 1.5 0 0 0 0-3z" style="color:#000;fill:#444;fill-opacity:1;fill-rule:nonzero;stroke:none;stroke-width:2;marker:none;visibility:visible;display:inline;overflow:visible;enable-background:accumulate" transform="translate(-474 -1242.362)"/></g></svg>