<svg xmlns="http://www.w3.org/2000/svg" width="24" height="24"><g style="display:inline"><path d="M4 5c-.554 0-1 .446-1 1v10c0 .554.446 1 1 1h17c.554 0 1-.446 1-1V6c0-.554-.446-1-1-1zm-.5 2h18v2h-18zm.5 6h3v2H4zm9 1h7v1h-7z" style="opacity:.3;color:#000;fill:#444;fill-opacity:1;fill-rule:nonzero;stroke:#fff;stroke-width:2;marker:none;visibility:visible;display:inline;overflow:visible;enable-background:accumulate" transform="translate(0 1)"/><path d="M4 5c-.554 0-1 .446-1 1v10c0 .554.446 1 1 1h17c.554 0 1-.446 1-1V6c0-.554-.446-1-1-1zm-.5 2h18v2h-18zm.5 6h3v2H4zm9 1h7v1h-7z" style="color:#000;fill:#444;fill-opacity:1;fill-rule:nonzero;stroke:none;stroke-width:2;marker:none;visibility:visible;display:inline;overflow:visible;enable-background:accumulate" transform="translate(0 1)"/></g></svg>