<svg xmlns="http://www.w3.org/2000/svg" width="24" height="24"><path d="M12.5 2C8.91 2 6 4.686 6 8v8c0 .554.446 1 1 1h11c.554 0 1-.446 1-1V8c0-3.314-2.91-6-6.5-6zM12 4.063V10H8V8c0-2.056 1.754-3.713 4-3.938zm1 0c2.246.224 4 1.88 4 3.937v2h-4V4.062zM9 13a1 1 0 1 1 0 2 1 1 0 0 1 0-2zm7 0a1 1 0 1 1 0 2 1 1 0 0 1 0-2zm-7 5-3 3h4l2-3H9zm4 0 2 3h4l-3-3h-3z" style="opacity:.3;fill:none;stroke:#fff;stroke-width:2;stroke-linecap:round;stroke-linejoin:round;stroke-miterlimit:4;stroke-opacity:1;stroke-dasharray:none"/><path d="M12.5 2C8.91 2 6 4.686 6 8v8c0 .554.446 1 1 1h11c.554 0 1-.446 1-1V8c0-3.314-2.91-6-6.5-6zM12 4.063V10H8V8c0-2.056 1.754-3.713 4-3.938zm1 0c2.246.224 4 1.88 4 3.937v2h-4V4.062zM9 13a1 1 0 1 1 0 2 1 1 0 0 1 0-2zm7 0a1 1 0 1 1 0 2 1 1 0 0 1 0-2zm-7 5-3 3h4l2-3H9zm4 0 2 3h4l-3-3h-3z" style="fill:#444;fill-opacity:1;stroke:none"/></svg>