<svg xmlns="http://www.w3.org/2000/svg" width="24" height="24"><path d="M12.5 3 5 8h15zM6 9c-.554 0-1 .446-1 1v7l-1.75 3c-.148.254-.25.357-.25.5 0 .5.632.5 1 .5h17c.355 0 1 0 1-.5 0-.146-.087-.22-.25-.5L20 17v-7c0-.554-.446-1-1-1zm2 2c.554 0 .909.454 1 1v6H7v-6c0-.554.446-1 1-1zm4.5 0a.992.992 0 0 1 1 1v6h-2v-6c0-.554.446-1 1-1zm4.5 0c.554 0 1 .446 1 1v6h-2v-6c0-.554.446-1 1-1z" style="opacity:.3;color:#000;fill:none;stroke:#fff;stroke-width:2;stroke-linecap:round;stroke-linejoin:round;stroke-miterlimit:4;stroke-opacity:1;stroke-dasharray:none;marker:none;visibility:visible;display:inline;overflow:visible;enable-background:accumulate"/><path d="M12.5 3 5 8h15zM6 9c-.554 0-1 .446-1 1v7l-1.75 3c-.148.254-.25.357-.25.5 0 .5.632.5 1 .5h17c.355 0 1 0 1-.5 0-.146-.087-.22-.25-.5L20 17v-7c0-.554-.446-1-1-1zm2 2c.554 0 .909.454 1 1v6H7v-6c0-.554.446-1 1-1zm4.5 0a.992.992 0 0 1 1 1v6h-2v-6c0-.554.446-1 1-1zm4.5 0c.554 0 1 .446 1 1v6h-2v-6c0-.554.446-1 1-1z" style="color:#000;fill:#444;fill-opacity:1;fill-rule:nonzero;stroke:none;stroke-width:1;marker:none;visibility:visible;display:inline;overflow:visible;enable-background:accumulate"/></svg>