<svg xmlns="http://www.w3.org/2000/svg" width="24" height="24"><g style="display:inline"><path d="M12.5 6c-1.5 0-2.764.536-2.438 2l1.438 6.5c.051.23.19.5.5.5h2c.31 0 .449-.27.5-.5L15.938 8C16.264 6.536 15 6 13.5 6H13zM7 9c-1 0-1.95.599-1.5 1.5l2 4c.167.333.5.5 1 .5h1s.615.018.5-.5L9 10c-.112-.503-.5-1-1-1zm11 0c-.5 0-.888.497-1 1l-1 4.5c-.115.518.5.5.5.5h1c.5 0 .833-.167 1-.5l2-4C20.95 9.599 20 9 19 9zM4.437 12.125c-.193-.001-.356.118-.437.375l-.958 2.994c-.119.375-.037.566.469.47L6 15.5c.491-.094.572-.266.438-.5L5 12.5c-.146-.253-.37-.374-.563-.375zm17.125 0c-.193.001-.416.122-.562.375L19.562 15c-.134.234-.053.406.438.5l2.454.474c.506.097.619-.094.5-.468L22 12.5c-.082-.257-.244-.376-.438-.375z" style="opacity:.3;color:#000;fill:none;stroke:#fff;stroke-width:2;stroke-miterlimit:4;stroke-opacity:1;stroke-dasharray:none;marker:none;visibility:visible;display:inline;overflow:visible;enable-background:accumulate"/><path d="M12.5 6c-1.5 0-2.764.536-2.438 2l1.438 6.5c.051.23.19.5.5.5h2c.31 0 .449-.27.5-.5L15.938 8C16.264 6.536 15 6 13.5 6H13zM7 9c-1 0-1.95.599-1.5 1.5l2 4c.167.333.5.5 1 .5h1s.615.018.5-.5L9 10c-.112-.503-.5-1-1-1zm11 0c-.5 0-.888.497-1 1l-1 4.5c-.115.518.5.5.5.5h1c.5 0 .833-.167 1-.5l2-4C20.95 9.599 20 9 19 9zM4.437 12.125c-.193-.001-.356.118-.437.375l-.958 2.994c-.119.375-.037.566.469.47L6 15.5c.491-.094.572-.266.438-.5L5 12.5c-.146-.253-.37-.374-.563-.375zm17.125 0c-.193.001-.416.122-.562.375L19.562 15c-.134.234-.053.406.438.5l2.454.474c.506.097.619-.094.5-.468L22 12.5c-.082-.257-.244-.376-.438-.375z" style="color:#000;fill:#444;fill-opacity:1;fill-rule:nonzero;stroke:none;stroke-width:0;marker:none;visibility:visible;display:inline;overflow:visible;enable-background:accumulate"/></g></svg>