<svg xmlns="http://www.w3.org/2000/svg" width="24" height="24"><g style="display:inline"><path d="M372.5 53c-6.5 0-9.5 6.5-9.5 6.5s3 6.5 9.5 6.5 9.5-6.5 9.5-6.5-3-6.5-9.5-6.5zm-3 5c.277 0 .5.223.5.5v.5h2v-.5a.499.499 0 1 1 1 0v.5h2v-.5a.499.499 0 1 1 1 0v.5h1.5a.499.499 0 1 1 0 1H376v.5a.499.499 0 1 1-1 0V60h-2v.5a.499.499 0 1 1-1 0V60h-2v.5a.499.499 0 1 1-1 0V60h-1.5a.499.499 0 1 1 0-1h1.5v-.5c0-.277.223-.5.5-.5z" style="opacity:.3;color:#000;fill:#fff;fill-opacity:1;fill-rule:nonzero;stroke:#fff;stroke-width:2;stroke-linecap:butt;stroke-linejoin:miter;stroke-miterlimit:4;stroke-opacity:1;stroke-dasharray:none;stroke-dashoffset:0;marker:none;visibility:visible;display:inline;overflow:visible;enable-background:accumulate" transform="translate(-360 -48)"/><path d="M372.5 53c-6.5 0-9.5 6.5-9.5 6.5s3 6.5 9.5 6.5 9.5-6.5 9.5-6.5-3-6.5-9.5-6.5zm-3 5c.277 0 .5.223.5.5v.5h2v-.5a.499.499 0 1 1 1 0v.5h2v-.5a.499.499 0 1 1 1 0v.5h1.5a.499.499 0 1 1 0 1H376v.5a.499.499 0 1 1-1 0V60h-2v.5a.499.499 0 1 1-1 0V60h-2v.5a.499.499 0 1 1-1 0V60h-1.5a.499.499 0 1 1 0-1h1.5v-.5c0-.277.223-.5.5-.5z" style="color:#000;fill:#444;fill-opacity:1;fill-rule:nonzero;stroke:none;stroke-width:2;marker:none;visibility:visible;display:inline;overflow:visible;enable-background:accumulate" transform="translate(-360 -48)"/></g></svg>