<svg xmlns="http://www.w3.org/2000/svg" xml:space="preserve" width="24" height="24"><path d="M169.5 1190.862c-2 0-2.375-5.104-3.041-8.294-.566-2.709-1.454-8.086 1.854-8.629 3.264-.538 3.331 1.929 5.686 1.929s2.421-2.468 5.683-1.929c3.314.543 2.424 5.919 1.858 8.629-.668 3.191-1.04 8.294-3.04 8.294s-2.146-4.494-4.501-4.494c-2.369 0-2.499 4.494-4.499 4.494z" style="opacity:.3;fill:#444;stroke:#fff;stroke-width:2;stroke-linecap:round;stroke-linejoin:round" transform="translate(-162 -1170.362)"/><path d="M169.5 1190.862c-2 0-2.375-5.104-3.041-8.294-.566-2.709-1.454-8.086 1.854-8.629 3.264-.538 3.331 1.929 5.686 1.929s2.421-2.468 5.683-1.929c3.314.543 2.424 5.919 1.858 8.629-.668 3.19-1.04 8.294-3.04 8.294s-2.146-4.493-4.501-4.493c-2.369-.001-2.499 4.493-4.499 4.493z" style="fill:#444" transform="translate(-162 -1170.362)"/></svg>