<svg xmlns="http://www.w3.org/2000/svg" width="24" height="24"><g style="display:inline"><path d="M564.5 1054.362c-2.5 0-4.5 2-4.5 4v2c0 1 2 1 2 2v1l2.5 1 2.5-1v-1c0-1 2-1 2-2v-2c0-2-2-4-4.5-4zm-1.5 3a1 1 0 1 1 0 2 1 1 0 0 1 0-2zm3 0a1 1 0 1 1 0 2 1 1 0 0 1 0-2zm-8 6c-.5 0-1 .5-1 1v.5l5.25 2.25-5.25 2.25v.5c0 .5.5 1 1 1l14-6v-.5c0-.5-.5-1-1-1l-6.5 2.781-6.5-2.78zm10.5 4.5-2.25.969 4.75 2.031c.5 0 1-.5 1-1v-.5l-3.5-1.5z" style="opacity:.3;color:#000;fill:#fff;fill-opacity:1;fill-rule:nonzero;stroke:#fff;stroke-width:2;stroke-linecap:round;stroke-linejoin:round;stroke-miterlimit:4;stroke-opacity:1;stroke-dasharray:none;stroke-dashoffset:0;marker:none;visibility:visible;display:inline;overflow:visible;enable-background:accumulate" transform="translate(-552 -1050.362)"/><path d="M564.5 1054.362c-2.5 0-4.5 2-4.5 4v2c0 1 2 1 2 2v1l2.5 1 2.5-1v-1c0-1 2-1 2-2v-2c0-2-2-4-4.5-4zm-1.5 3a1 1 0 1 1 0 2 1 1 0 0 1 0-2zm3 0a1 1 0 1 1 0 2 1 1 0 0 1 0-2zm-8 6c-.5 0-1 .5-1 1v.5l5.25 2.25-5.25 2.25v.5c0 .5.5 1 1 1l14-6v-.5c0-.5-.5-1-1-1l-6.5 2.781-6.5-2.78zm10.5 4.5-2.25.969 4.75 2.031c.5 0 1-.5 1-1v-.5l-3.5-1.5z" style="color:#000;fill:#444;fill-opacity:1;fill-rule:nonzero;stroke:none;stroke-width:0;marker:none;visibility:visible;display:inline;overflow:visible;enable-background:accumulate" transform="translate(-552 -1050.362)"/></g></svg>