<svg xmlns="http://www.w3.org/2000/svg" width="24" height="24"><g style="display:inline"><path d="M98.875 1390.362c-.562.076-.637 1.058-.094 1.219l2.219.875v1.906h-7v-1h1.375c.33 0 .625-.295.625-.625s-.295-.63-.625-.625H91.5a.59.59 0 0 0-.188 0 .657.657 0 0 0-.53.719c.048.327.39.58.718.531H93v1l-1.063 3.125a4.028 4.028 0 0 0-.937-.125 4 4 0 1 0 4 4c0-.3-.062-.593-.125-.875H96a.644.644 0 0 0 .5-.281l3.375-4.844H101l.688 2.031a3.985 3.985 0 0 0-3.688 3.97 4 4 0 0 0 8 0c0-1.829-1.231-3.336-2.906-3.813l-1.094-3.188v-2.344a.716.716 0 0 0-.094-.312c-.004-.01.004-.024 0-.031-.015-.032-.043-.064-.062-.094-.032-.045-.055-.086-.094-.125-.017-.016-.044-.017-.062-.031-.019-.015-.044-.018-.063-.031-.032-.019-.058-.05-.094-.062l-.03-.031-.438-.156-1.844-.75c-.065-.025-.15-.028-.219-.031-.047 0-.079-.011-.125 0zm-4.875 5h4.406l-2.719 3.875h-1.312c-.31-.494-.7-.9-1.188-1.219l.813-2.656zm-3 3.5a2.5 2.5 0 1 1 0 5 2.5 2.5 0 0 1 0-5zm11 0a2.5 2.5 0 1 1-2.5 2.5c0-.172.03-.337.063-.5a2.491 2.491 0 0 1 2.437-2z" style="opacity:.3;color:#000;fill:#fff;fill-opacity:1;fill-rule:nonzero;stroke:#fff;stroke-width:2;stroke-linecap:butt;stroke-linejoin:round;stroke-miterlimit:4;stroke-opacity:1;stroke-dasharray:none;stroke-dashoffset:0;marker:none;visibility:visible;display:inline;overflow:visible;enable-background:accumulate" transform="translate(-84 -1386.362)"/><path d="M98.875 1390.362c-.562.076-.637 1.058-.094 1.219l2.219.875v1.906h-7v-1h1.375c.33 0 .625-.295.625-.625s-.295-.63-.625-.625H91.5a.59.59 0 0 0-.188 0 .657.657 0 0 0-.53.719c.048.327.39.58.718.531H93v1l-1.063 3.125a4.028 4.028 0 0 0-.937-.125 4 4 0 1 0 4 4c0-.3-.062-.593-.125-.875H96a.644.644 0 0 0 .5-.281l3.375-4.844H101l.688 2.031a3.985 3.985 0 0 0-3.688 3.97 4 4 0 0 0 8 0c0-1.829-1.231-3.336-2.906-3.813l-1.094-3.188v-2.344a.716.716 0 0 0-.094-.312c-.004-.01.004-.024 0-.031-.015-.032-.043-.064-.062-.094-.032-.045-.055-.086-.094-.125-.017-.016-.044-.017-.062-.031-.019-.015-.044-.018-.063-.031-.032-.019-.058-.05-.094-.062l-.03-.031-.438-.156-1.844-.75c-.065-.025-.15-.028-.219-.031-.047 0-.079-.011-.125 0zm-4.875 5h4.406l-2.719 3.875h-1.312c-.31-.494-.7-.9-1.188-1.219l.813-2.656zm-3 3.5a2.5 2.5 0 1 1 0 5 2.5 2.5 0 0 1 0-5zm11 0a2.5 2.5 0 1 1-2.5 2.5c0-.172.03-.337.063-.5a2.491 2.491 0 0 1 2.437-2z" style="color:#000;fill:#444;fill-opacity:1;fill-rule:nonzero;stroke:none;stroke-width:1;marker:none;visibility:visible;display:inline;overflow:visible;enable-background:accumulate" transform="translate(-84 -1386.362)"/></g></svg>