<svg xmlns="http://www.w3.org/2000/svg" width="24" height="24"><g style="display:inline"><path d="M446.5 242a2.5 2.5 0 1 0 0 5 2.5 2.5 0 0 0 0-5zm8 0a2.5 2.5 0 1 0 0 5 2.5 2.5 0 0 0 0-5zm-8.5 6c-1 0-2 1-2 2v2l-1.5 4.5c0 .5.5.5 1 .5h1.5v4h3v-4h1.5c.5 0 1 0 1-.5L449 252v-2c0-1-1-2-2-2zm6 0c-.5 0-1 .5-1 1l2 6v6h3v-6l2-6c0-.5-.5-1-1-1z" style="opacity:.3;color:#000;fill:none;stroke:#fff;stroke-width:2;stroke-linecap:round;stroke-linejoin:round;stroke-miterlimit:4;stroke-opacity:1;stroke-dasharray:none;stroke-dashoffset:0;marker:none;visibility:visible;display:inline;overflow:visible;enable-background:accumulate" transform="translate(-438 -240)"/><path d="M446.5 242a2.5 2.5 0 1 0 0 5 2.5 2.5 0 0 0 0-5zm8 0a2.5 2.5 0 1 0 0 5 2.5 2.5 0 0 0 0-5zm-8.5 6c-1 0-2 1-2 2v2l-1.5 4.5c0 .5.5.5 1 .5h1.5v4h3v-4h1.5c.5 0 1 0 1-.5L449 252v-2c0-1-1-2-2-2zm6 0c-.5 0-1 .5-1 1l2 6v6h3v-6l2-6c0-.5-.5-1-1-1z" style="color:#000;fill:#444;fill-opacity:1;fill-rule:nonzero;stroke:none;stroke-width:2;marker:none;visibility:visible;display:inline;overflow:visible;enable-background:accumulate" transform="translate(-438 -240)"/></g></svg>