<svg xmlns="http://www.w3.org/2000/svg" width="24" height="24"><g style="display:inline"><path d="M114.493 304.362c-3.229 0-6.5 3-6.5 6.5s5 9.5 6.5 11.5c1.5-2 6.5-8 6.5-11.5s-3.271-6.5-6.5-6.5zm0 2c2.511 0 4.5 1.778 4.5 4.5s-3.333 6.945-4.5 8.5c-1.167-1.555-4.5-5.778-4.5-8.5 0-2.722 1.989-4.5 4.5-4.5z" style="opacity:.3;color:#000;fill:#fff;fill-opacity:1;fill-rule:nonzero;stroke:#fff;stroke-width:2;stroke-linecap:butt;stroke-linejoin:round;stroke-miterlimit:4;stroke-opacity:1;stroke-dasharray:none;stroke-dashoffset:0;marker:none;visibility:visible;display:inline;overflow:visible;enable-background:accumulate" transform="translate(-101.993 -301.362)"/><path d="M114.493 304.362c-3.229 0-6.5 3-6.5 6.5s5 9.5 6.5 11.5c1.5-2 6.5-8 6.5-11.5s-3.271-6.5-6.5-6.5zm0 2c2.511 0 4.5 1.778 4.5 4.5s-3.333 6.945-4.5 8.5c-1.167-1.555-4.5-5.778-4.5-8.5 0-2.722 1.989-4.5 4.5-4.5z" style="color:#000;fill:#444;fill-opacity:1;fill-rule:nonzero;stroke:none;stroke-width:2;marker:none;visibility:visible;display:inline;overflow:visible;enable-background:accumulate" transform="translate(-101.993 -301.362)"/></g></svg>