<svg xmlns="http://www.w3.org/2000/svg" width="24" height="24"><g style="display:inline"><path d="m258 1173.362-2.25.656 1.094 2.97 2.156-.626zm-3.625 1.031-2.938.844.063.125.563 1.531.5 1.313 2.937-.844zm-4.281 1.22-2.594.75 1.125 2.968 2.594-.75-.656-1.687zm-3.938 1.124-2.156.625 1 3 2.25-.656zm-1.156 3.625v9c0 .554.446 1 1 1h13c.554 0 1-.446 1-1v-9zm2 2h11v3h-11z" style="opacity:.3;color:#000;fill:#fff;fill-opacity:1;fill-rule:nonzero;stroke:#fff;stroke-width:2;stroke-linecap:round;stroke-linejoin:round;stroke-miterlimit:4;stroke-opacity:1;stroke-dasharray:none;stroke-dashoffset:0;marker:none;visibility:visible;display:inline;overflow:visible;enable-background:accumulate" transform="translate(-240 -1170.362)"/><path d="m258 1173.362-2.25.656 1.094 2.97 2.156-.626zm-3.625 1.031-2.938.844.063.125.563 1.531.5 1.313 2.937-.844zm-4.281 1.22-2.594.75 1.125 2.968 2.594-.75-.656-1.687zm-3.938 1.124-2.156.625 1 3 2.25-.656zm-1.156 3.625v9c0 .554.446 1 1 1h13c.554 0 1-.446 1-1v-9zm2 2h11v3h-11z" style="color:#000;fill:#444;fill-opacity:1;fill-rule:nonzero;stroke:none;stroke-width:2;marker:none;visibility:visible;display:inline;overflow:visible;enable-background:accumulate" transform="translate(-240 -1170.362)"/></g></svg>