<svg xmlns="http://www.w3.org/2000/svg" width="24" height="24"><path d="M12.5 3 6 8h13zM7 9c-.554 0-.922.452-1 1v7l-1.75 3c-.148.254-.25.357-.25.5 0 .5.632.5 1 .5h15c.355 0 1 0 1-.5 0-.146-.087-.22-.25-.5L19 17v-7c0-.554-.446-1-1-1zm2 2h1.5c.5 0 1 1 1 1l1 2.5 1-2.5c.223-.558.5-1 1-1H16c.554 0 1 .446 1 1v5c0 .5-.5 1-1 1s-1-.5-1-1v-4l-1.5 3s-.5 1-1 1-1-1-1-1L10 13v4c0 .5-.5 1-1 1s-1-.5-1-1v-5c0-.554.446-1 1-1z" style="opacity:.3;color:#000;fill:#fff;fill-opacity:1;fill-rule:nonzero;stroke:#fff;stroke-width:2;stroke-linecap:round;stroke-linejoin:round;stroke-miterlimit:4;stroke-opacity:1;stroke-dasharray:none;stroke-dashoffset:0;marker:none;visibility:visible;display:inline;overflow:visible;enable-background:accumulate"/><path d="M12.5 3 6 8h13zM7 9c-.554 0-.922.452-1 1v7l-1.75 3c-.148.254-.25.357-.25.5 0 .5.632.5 1 .5h15c.355 0 1 0 1-.5 0-.146-.087-.22-.25-.5L19 17v-7c0-.554-.446-1-1-1zm2 2h1.5c.5 0 1 1 1 1l1 2.5 1-2.5c.223-.558.5-1 1-1H16c.554 0 1 .446 1 1v5c0 .5-.5 1-1 1s-1-.5-1-1v-4l-1.5 3s-.5 1-1 1-1-1-1-1L10 13v4c0 .5-.5 1-1 1s-1-.5-1-1v-5c0-.554.446-1 1-1z" style="color:#000;fill:#444;fill-opacity:1;fill-rule:nonzero;stroke:none;stroke-width:1;marker:none;visibility:visible;display:inline;overflow:visible;enable-background:accumulate"/></svg>