<svg xmlns="http://www.w3.org/2000/svg" width="24" height="24"><g style="display:inline"><path d="M329.5 1365.362a2.5 2.5 0 1 0 0 5 2.5 2.5 0 0 0 0-5zm-.5 6c-1 0-2 1-2 2v3.5c0 1.5 1 2.5 2.5 2.5h5l2.625 3.5c.226.332.484.5.875.5.5 0 1-.5 1-1 0-.293-.167-.52-.281-.719l-2.719-3.78c-.181-.315-.5-.5-1-.5h-2.5l-1-4c-.243-.971-.5-2-1.5-2zm-3 2c-2.331.823-4 3.387-4 6a6 6 0 0 0 6 6 5.982 5.982 0 0 0 5.906-5H332c-.538 1.73-1.843 3-3.75 3a4.25 4.25 0 0 1-4.25-4.25c0-1.517.803-2.998 2-3.75z" style="opacity:.3;color:#000;fill:none;stroke:#fff;stroke-width:2;stroke-linecap:round;stroke-linejoin:round;stroke-miterlimit:4;stroke-opacity:1;stroke-dasharray:none;stroke-dashoffset:0;marker:none;visibility:visible;display:inline;overflow:visible;enable-background:accumulate" transform="translate(-318 -1363.362)"/><path d="M329.5 1365.362a2.5 2.5 0 1 0 0 5 2.5 2.5 0 0 0 0-5zm-.5 6c-1 0-2 1-2 2v3.5c0 1.5 1 2.5 2.5 2.5h5l2.625 3.5c.226.332.484.5.875.5.5 0 1-.5 1-1 0-.293-.167-.52-.281-.719l-2.719-3.78c-.181-.315-.5-.5-1-.5h-2.5l-1-4c-.243-.971-.5-2-1.5-2zm-3 2c-2.331.823-4 3.387-4 6a6 6 0 0 0 6 6 5.982 5.982 0 0 0 5.906-5H332c-.538 1.73-1.843 3-3.75 3a4.25 4.25 0 0 1-4.25-4.25c0-1.517.803-2.998 2-3.75z" style="color:#000;fill:#444;fill-opacity:1;fill-rule:nonzero;stroke:none;stroke-width:2;marker:none;visibility:visible;display:inline;overflow:visible;enable-background:accumulate" transform="translate(-318 -1363.362)"/></g></svg>