<svg xmlns="http://www.w3.org/2000/svg" width="24" height="24"><path d="M5 3c-.471 0-1 .5-1 1v7c0 2.216 1 5 5 5 .359 0 .686-.017 1-.062V13H6s.5-2 3-2c.5 0 .697.075 1 .188V9c0-.916.365-1.682 1-2 1-.5 1.404-.298 2 0l1 .5V4c0-.5-.529-1-1-1-1 0-2 1-4 1S6 3 5 3zm1.75 3.5a1.25 1.25 0 1 1 0 2.5 1.25 1.25 0 0 1 0-2.5zM12 8c-.471 0-1 .5-1 1v7c0 2.216 1 5 5 5s5-2.784 5-5V9c0-.5-.529-1-1-1-1 0-2 1-4 1s-3-1-4-1zm1.75 3.5a1.25 1.25 0 1 1 0 2.5 1.25 1.25 0 0 1 0-2.5zm4.5 0a1.25 1.25 0 1 1 0 2.5 1.25 1.25 0 0 1 0-2.5zM13 17h6s-.5 2-3 2-3-2-3-2z" style="opacity:.3;color:#000;fill:#fff;fill-opacity:1;fill-rule:nonzero;stroke:#fff;stroke-width:2;stroke-linecap:round;stroke-linejoin:round;stroke-miterlimit:4;stroke-opacity:1;stroke-dasharray:none;stroke-dashoffset:0;marker:none;visibility:visible;display:inline;overflow:visible;enable-background:accumulate"/><path d="M5 3c-.471 0-1 .5-1 1v7c0 2.216 1 5 5 5 .359 0 .686-.017 1-.062V13H6s.5-2 3-2c.5 0 .697.075 1 .188V9c0-.916.365-1.682 1-2 1-.5 1.404-.298 2 0l1 .5V4c0-.5-.529-1-1-1-1 0-2 1-4 1S6 3 5 3zm1.75 3.5a1.25 1.25 0 1 1 0 2.5 1.25 1.25 0 0 1 0-2.5zM12 8c-.471 0-1 .5-1 1v7c0 2.216 1 5 5 5s5-2.784 5-5V9c0-.5-.529-1-1-1-1 0-2 1-4 1s-3-1-4-1zm1.75 3.5a1.25 1.25 0 1 1 0 2.5 1.25 1.25 0 0 1 0-2.5zm4.5 0a1.25 1.25 0 1 1 0 2.5 1.25 1.25 0 0 1 0-2.5zM13 17h6s-.5 2-3 2-3-2-3-2z" style="color:#000;fill:#444;fill-opacity:1;fill-rule:nonzero;stroke:none;stroke-width:.055;marker:none;visibility:visible;display:inline;overflow:visible;enable-background:accumulate"/></svg>