<svg xmlns="http://www.w3.org/2000/svg" width="24" height="24"><path d="M14.5 2c-.831 0-1.5.67-1.5 1.5 0 .831.669 1.5 1.5 1.5S16 4.331 16 3.5c0-.83-.669-1.5-1.5-1.5zm-6 3C7.669 5 7 5.67 7 6.5 7 7.331 7.669 8 8.5 8S10 7.331 10 6.5C10 5.67 9.331 5 8.5 5zm7.375.469c-.174.055-.291.29-.375.531l-1.969 5.688-3.219 1-2.406-3.813c-.35-.566-.72-.458-.875.031l-1.968 5.438L3 15l.563 1.813 4.656-1.47-2.031 2.376c-.31.298-.207.81 0 1.031.268.288.756.407 1.125 0 0 0 4.046-4.64 3.687-4.25.01-.01-.006-.02 0-.031L12.5 14 10 20h6l-2.438-6.344 1.47-.469 3.812 2.688c.375.254 1.02.124 1.156-.406.133-.517-.152-.749-.469-.969l-2.687-1.875L22 11l-.563-1.813-2.062.657c-.708-1.22-2.407-3.356-2.813-3.875-.284-.436-.513-.556-.687-.5z" style="opacity:.3;color:#000;fill:none;stroke:#fff;stroke-width:2;marker:none;visibility:visible;display:inline;overflow:visible;enable-background:accumulate"/><path d="M14.5 2c-.831 0-1.5.67-1.5 1.5 0 .831.669 1.5 1.5 1.5S16 4.331 16 3.5c0-.83-.669-1.5-1.5-1.5zm-6 3C7.669 5 7 5.67 7 6.5 7 7.331 7.669 8 8.5 8S10 7.331 10 6.5C10 5.67 9.331 5 8.5 5zm7.375.469c-.174.055-.291.29-.375.531l-1.969 5.688-3.219 1-2.406-3.813c-.35-.566-.72-.458-.875.031l-1.968 5.438L3 15l.563 1.813 4.656-1.47-2.031 2.376c-.31.298-.207.81 0 1.031.268.288.756.407 1.125 0 0 0 4.046-4.64 3.687-4.25.01-.01-.006-.02 0-.031L12.5 14 10 20h6l-2.438-6.344 1.47-.469 3.812 2.688c.375.254 1.02.124 1.156-.406.133-.517-.152-.749-.469-.969l-2.687-1.875L22 11l-.563-1.813-2.062.657c-.708-1.22-2.407-3.356-2.813-3.875-.284-.436-.513-.556-.687-.5z" style="color:#000;fill:#444;fill-opacity:1;fill-rule:nonzero;stroke:none;stroke-width:2;marker:none;visibility:visible;display:inline;overflow:visible;enable-background:accumulate"/></svg>