<svg xmlns="http://www.w3.org/2000/svg" xml:space="preserve" width="24" height="24"><path stroke="#FFF" stroke-linecap="round" stroke-linejoin="round" stroke-width="2" d="M14.871 6.64 20 6V4l-5.516.689A1.974 1.974 0 0 0 13 3.999c-.371 0-.701.13-1 .307-.297-.177-.625-.306-.998-.306-.878 0-1.603.572-1.872 1.358l-5.129.64v2l5.515-.688c.367.416.888.69 1.484.69v2H6a2 2 0 0 0-2 2v6a2 2 0 0 0 2 2h12a2 2 0 0 0 2-2v-6a2 2 0 0 0-2-2h-4.998V8c.877-.001 1.6-.573 1.869-1.36zM11 16H6v-4h5v4zm7 0h-5v-4h5v4z" opacity=".3"/><path d="M14.871 6.64 20 6V4l-5.516.689A1.974 1.974 0 0 0 13 3.999c-.371 0-.701.13-1 .307-.297-.177-.625-.306-.998-.306-.878 0-1.603.572-1.872 1.358L4 6v2l5.516-.69c.367.416.888.69 1.484.69v2H6a2 2 0 0 0-2 2v6a2 2 0 0 0 2 2h12a2 2 0 0 0 2-2v-6a2 2 0 0 0-2-2h-5l.002-2c.877-.001 1.6-.573 1.869-1.36zM11 16H6v-4h5v4zm7 0h-5v-4h5v4z"/></svg>