<svg xmlns="http://www.w3.org/2000/svg" width="24" height="24"><g style="display:inline"><path d="M96.5 1270.362c-3.624 0-6.644 2.583-7.344 6H88c-.5 0-1 .5-1 1v1c0 .5.5 1 1 1h1.156c.7 3.418 3.72 6 7.344 6s6.644-2.582 7.344-6H105c.5 0 1-.5 1-1v-1c0-.5-.5-1-1-1h-1.156c-.7-3.417-3.72-6-7.344-6zm0 2.5c2.056 0 3.868 1.658 4.5 3.5h-9c.632-1.842 2.444-3.5 4.5-3.5zm-4.5 6.5h9c-.632 1.842-2.444 3.5-4.5 3.5s-3.868-1.658-4.5-3.5z" style="opacity:.3;color:#000;fill:#fff;fill-opacity:1;fill-rule:nonzero;stroke:#fff;stroke-width:2;stroke-linecap:butt;stroke-linejoin:round;stroke-miterlimit:4;stroke-opacity:1;stroke-dasharray:none;stroke-dashoffset:0;marker:none;visibility:visible;display:inline;overflow:visible;enable-background:accumulate" transform="translate(-84 -1266.362)"/><path d="M96.5 1270.362c-3.624 0-6.644 2.583-7.344 6H88c-.5 0-1 .5-1 1v1c0 .5.5 1 1 1h1.156c.7 3.418 3.72 6 7.344 6s6.644-2.582 7.344-6H105c.5 0 1-.5 1-1v-1c0-.5-.5-1-1-1h-1.156c-.7-3.417-3.72-6-7.344-6zm0 2.5c2.056 0 3.868 1.658 4.5 3.5h-9c.632-1.842 2.444-3.5 4.5-3.5zm-4.5 6.5h9c-.632 1.842-2.444 3.5-4.5 3.5s-3.868-1.658-4.5-3.5z" style="color:#000;fill:#444;fill-opacity:1;fill-rule:nonzero;stroke:none;stroke-width:2;marker:none;visibility:visible;display:inline;overflow:visible;enable-background:accumulate" transform="translate(-84 -1266.362)"/></g></svg>