<svg xmlns="http://www.w3.org/2000/svg" width="24" height="24"><g style="display:inline"><path d="M-66.917 1245.362c-.541 0-1.083.542-1.083 1.083 0 .27.088.529.305.745l6.672 6.672-6.672 6.672a1.02 1.02 0 0 0-.305.745c0 .541.542 1.083 1.083 1.083.271 0 .542-.067.779-.304l6.638-6.638 6.638 6.638c.237.237.508.304.779.304.541 0 1.083-.542 1.083-1.083 0-.27-.088-.528-.305-.745l-6.672-6.672 6.672-6.672a1.02 1.02 0 0 0 .305-.745c0-.54-.542-1.083-1.083-1.083-.271 0-.542.067-.779.305l-6.638 6.638-6.638-6.638c-.237-.238-.508-.305-.779-.305z" style="font-size:medium;font-style:normal;font-variant:normal;font-weight:400;font-stretch:normal;text-indent:0;text-align:start;text-decoration:none;line-height:normal;letter-spacing:normal;word-spacing:normal;text-transform:none;direction:ltr;block-progression:tb;writing-mode:lr-tb;text-anchor:start;baseline-shift:baseline;opacity:.3;color:#000;fill:#fff;fill-opacity:1;fill-rule:nonzero;stroke:#fff;stroke-width:2;stroke-linecap:butt;stroke-linejoin:round;stroke-miterlimit:4;stroke-opacity:1;stroke-dasharray:none;stroke-dashoffset:0;marker:none;visibility:visible;display:inline;overflow:visible;enable-background:accumulate;font-family:Sans;-inkscape-font-specification:Sans" transform="translate(72 -1242.362)"/><path d="M-66.917 1245.362c-.541 0-1.083.542-1.083 1.083 0 .27.088.529.305.745l6.672 6.672-6.672 6.672a1.02 1.02 0 0 0-.305.745c0 .541.542 1.083 1.083 1.083.271 0 .542-.067.779-.304l6.638-6.638 6.638 6.638c.237.237.508.304.779.304.541 0 1.083-.542 1.083-1.083 0-.27-.088-.528-.305-.745l-6.672-6.672 6.672-6.672a1.02 1.02 0 0 0 .305-.745c0-.54-.542-1.083-1.083-1.083-.271 0-.542.067-.779.305l-6.638 6.638-6.638-6.638c-.237-.238-.508-.305-.779-.305z" style="font-size:medium;font-style:normal;font-variant:normal;font-weight:400;font-stretch:normal;text-indent:0;text-align:start;text-decoration:none;line-height:normal;letter-spacing:normal;word-spacing:normal;text-transform:none;direction:ltr;block-progression:tb;writing-mode:lr-tb;text-anchor:start;baseline-shift:baseline;color:#000;fill:#444;fill-opacity:1;stroke:none;stroke-width:2;marker:none;visibility:visible;display:inline;overflow:visible;enable-background:accumulate;font-family:Sans;-inkscape-font-specification:Sans" transform="translate(72 -1242.362)"/></g></svg>