<svg xmlns="http://www.w3.org/2000/svg" width="24" height="24"><g style="display:inline"><path d="M52 1085.862c0-1.07-.68-1.987-1.625-2.344a2.463 2.463 0 0 0 .625-1.656 2.5 2.5 0 0 0-3.063-2.438c-.209-1.169-1.208-2.062-2.437-2.062-1.23 0-2.228.893-2.438 2.063a2.5 2.5 0 0 0-3.063 2.438c.001.639.231 1.214.626 1.656a2.512 2.512 0 0 0-1.625 2.343c0 1.38 1 2.5 2.5 2.5h.5l2 3.5v3.5h3v-3.5l2-3.5.719-.014c1.281.014 2.281-1.18 2.281-2.486zm-8 2.5h3l-1 2h-1z" style="opacity:.3;color:#000;fill:#fff;fill-opacity:1;fill-rule:nonzero;stroke:#fff;stroke-width:2;stroke-linecap:butt;stroke-linejoin:miter;stroke-miterlimit:4;stroke-opacity:1;stroke-dasharray:none;stroke-dashoffset:0;marker:none;visibility:visible;display:inline;overflow:visible;enable-background:accumulate" transform="translate(-33 -1074.362)"/><path d="M52 1085.862c0-1.07-.68-1.987-1.625-2.344a2.463 2.463 0 0 0 .625-1.656 2.5 2.5 0 0 0-3.063-2.438c-.209-1.169-1.208-2.062-2.437-2.062-1.23 0-2.228.893-2.438 2.063a2.5 2.5 0 0 0-3.063 2.438c.001.639.231 1.214.626 1.656a2.512 2.512 0 0 0-1.625 2.343c0 1.38 1 2.5 2.5 2.5h.5l2 3.5v3.5h3v-3.5l2-3.5.719-.014c1.281.014 2.281-1.18 2.281-2.486zm-8 2.5h3l-1 2h-1z" style="color:#000;fill:#444;fill-opacity:1;fill-rule:nonzero;stroke:none;stroke-width:2;marker:none;visibility:visible;display:inline;overflow:visible;enable-background:accumulate" transform="translate(-33 -1074.362)"/></g></svg>