<svg xmlns="http://www.w3.org/2000/svg" width="24" height="24"><g style="display:inline"><path d="M680 27c-.554 0-.5.627-.5 1v2.5c0 .5-.498 1.249-1 1.5-1 .5-1.5 1-1.5 2v9c0 .554.446 1 1 1h5c.554 0 1-.446 1-1v-9c0-1-.5-1.5-1.5-2-.499-.25-1-1-1-1.5V28c0-.5.054-1-.5-1zm6 7v3c0 1 1 2 2 2h1v2.5c0 .5-1 1.5-2 1.5s-1 1-1 1h7s0-1-1-1-2-1-2-1.5V39h1c1 0 2-1 2-2v-3z" style="opacity:.3;color:#000;fill:#fff;fill-opacity:1;fill-rule:nonzero;stroke:#fff;stroke-width:2;stroke-linecap:round;stroke-linejoin:round;stroke-miterlimit:4;stroke-opacity:1;stroke-dasharray:none;stroke-dashoffset:0;marker:none;visibility:visible;display:inline;overflow:visible;enable-background:accumulate" transform="translate(-672 -24)"/><path d="M560 1077.362c-.554 0-.5.627-.5 1v2.5c0 .5-.498 1.249-1 1.5-1 .5-1.5 1-1.5 2v9c0 .554.446 1 1 1h5c.554 0 1-.446 1-1v-9c0-1-.5-1.5-1.5-2-.499-.25-1-1-1-1.5v-2.5c0-.5.054-1-.5-1zm6 7v3c0 1 1 2 2 2h1v2.5c0 .5-1 1.5-2 1.5s-1 1-1 1h7s0-1-1-1-2-1-2-1.5v-2.5h1c1 0 2-1 2-2v-3z" style="color:#000;fill:#444;fill-opacity:1;fill-rule:nonzero;stroke:none;stroke-width:.99999988;marker:none;visibility:visible;display:inline;overflow:visible;enable-background:accumulate" transform="translate(-552 -1074.362)"/></g></svg>