<svg xmlns="http://www.w3.org/2000/svg" width="24" height="24"><g style="display:inline"><path d="M756 50c-.5 0-1 .5-1 1v18h6.5v-3h2v3h6.5V51c0-.5-.5-1-1-1z" style="opacity:.3;color:#000;fill:#fff;fill-opacity:1;fill-rule:nonzero;stroke:#fff;stroke-width:2;stroke-linecap:butt;stroke-linejoin:round;stroke-miterlimit:4;stroke-opacity:1;stroke-dasharray:none;stroke-dashoffset:0;marker:none;visibility:visible;display:inline;overflow:visible;enable-background:accumulate" transform="translate(-750 -48)"/><path d="M636 1100.362c-.5 0-1 .5-1 1v18h6v-3h3v3h6v-18c0-.5-.5-1-1-1zm2 3h3v1h-3zm6 0h3v1h-3zm-6 3h3v1h-3zm6 0h3v1h-3zm-6 3h3v1h-3zm6 0h3v1h-3zm-6 3h3v1h-3zm6 0h3v1h-3z" style="color:#000;fill:#444;fill-opacity:1;fill-rule:nonzero;stroke:none;stroke-width:2;marker:none;visibility:visible;display:inline;overflow:visible;enable-background:accumulate" transform="translate(-630 -1098.362)"/></g></svg>