<svg xmlns="http://www.w3.org/2000/svg" width="24" height="24"><g style="display:inline"><path d="M484.5 1269.362c-.5 0-.846.5-1 1l-5.344 15.969c-.038.113-.156.417-.156.531 0 .5.5.5 1 .5s.97 0 1.156-.5l.844-2.25 5.5-2.75 5.5 2.75.844 2.25c.186.5.656.5 1.156.5.5 0 1 0 1-.5 0-.114-.118-.418-.156-.531l-5.344-15.969c-.154-.5-.5-1-1-1zm4.5 7 .688 1.906-3.188 1.594-3.188-1.594.688-1.906zm-6.313 3.594 1.813.906-2.625 1.313zm7.625 0 .813 2.219-2.625-1.313z" style="opacity:.3;color:#000;fill:#fff;fill-opacity:1;fill-rule:nonzero;stroke:#fff;stroke-width:2;stroke-linecap:round;stroke-linejoin:round;stroke-miterlimit:4;stroke-opacity:1;stroke-dasharray:none;stroke-dashoffset:0;marker:none;visibility:visible;display:inline;overflow:visible;enable-background:accumulate" transform="translate(-474 -1266.362)"/><path d="M484.5 1269.362c-.5 0-.846.5-1 1l-5.344 15.969c-.038.113-.156.417-.156.531 0 .5.5.5 1 .5s.97 0 1.156-.5l.844-2.25 5.5-2.75 5.5 2.75.844 2.25c.186.5.656.5 1.156.5.5 0 1 0 1-.5 0-.114-.118-.418-.156-.531l-5.344-15.969c-.154-.5-.5-1-1-1zm4.5 7 .688 1.906-3.188 1.594-3.188-1.594.688-1.906zm-6.313 3.594 1.813.906-2.625 1.313zm7.625 0 .813 2.219-2.625-1.313z" style="color:#000;fill:#444;fill-opacity:1;fill-rule:nonzero;stroke:none;stroke-width:2;marker:none;visibility:visible;display:inline;overflow:visible;enable-background:accumulate" transform="translate(-474 -1266.362)"/></g></svg>