<svg xmlns="http://www.w3.org/2000/svg" width="24" height="24"><g style="display:inline"><path d="m407 1125.362-1 1v1h7v-1l-1-1zm-1 3v.5a3.5 3.5 0 0 0 7 0v-.5zm1.188 15H416v-6c0-1.5-.5-4-2-4h-9c-1.5 0-2 2.5-2 4v6h2.688z" style="opacity:.3;color:#000;fill:#fff;stroke:#fff;stroke-width:2;stroke-linecap:round;stroke-linejoin:round;stroke-miterlimit:4;stroke-opacity:1;stroke-dasharray:none;stroke-dashoffset:0;marker:none;visibility:visible;display:inline;overflow:visible;enable-background:accumulate" transform="translate(-397 -1122.362)"/><path d="m407 1125.362-1 1v1h7v-1l-1-1h-5zm-1 3v.5a3.5 3.5 0 0 0 7 0v-.5h-7zm-1 5c-1.5 0-2 2.5-2 4v6h2.688l6.812-10H405zm9 0-6.813 10H416v-6c0-1.5-.5-4-2-4z" style="color:#000;fill:#444;fill-opacity:1;stroke:none;stroke-width:2;marker:none;visibility:visible;display:inline;overflow:visible;enable-background:accumulate" transform="translate(-397 -1122.362)"/></g></svg>