<svg xmlns="http://www.w3.org/2000/svg" width="24" height="24"><g style="display:inline"><path d="M244 1101.362v10c3 3 7 2 7 4h1v-9c0-3-5-3-8-5zm17 0c-3 2-8 2-8 5v9h1c0-2 4-1 7-4z" style="opacity:.3;color:#000;fill:none;stroke:#fff;stroke-width:2;stroke-linecap:round;stroke-linejoin:round;stroke-miterlimit:4;stroke-opacity:1;stroke-dasharray:none;stroke-dashoffset:0;marker:none;visibility:visible;display:inline;overflow:visible;enable-background:accumulate" transform="translate(-240 -1096.362)"/><path d="M244 1102.362v10c3 3 7 2 7 4h1v-9c0-3-5-3-8-5zm17 0c-3 2-8 2-8 5v9h1c0-2 4-1 7-4z" style="color:#000;fill:#444;fill-opacity:1;fill-rule:nonzero;stroke:none;stroke-width:1;marker:none;visibility:visible;display:inline;overflow:visible;enable-background:accumulate" transform="translate(-240 -1097.362)"/></g></svg>