<svg xmlns="http://www.w3.org/2000/svg" width="24" height="24"><g style="display:inline"><path d="m143.493 204.362-2 6h-6.5l5 5-2.5 7 6-4 6 4-2.5-7 5-5h-6.5zm0 4 1 3.5h4l-3.5 3.5 1.5 3.5-3-2.5-3 2.5 1.5-3.5-3.5-3.5h4z" style="opacity:.3;color:#000;fill:#fff;fill-opacity:1;fill-rule:nonzero;stroke:#fff;stroke-width:2;stroke-linecap:butt;stroke-linejoin:round;stroke-miterlimit:4;stroke-opacity:1;stroke-dasharray:none;stroke-dashoffset:0;marker:none;visibility:visible;display:inline;overflow:visible;enable-background:accumulate" transform="translate(-130.993 -201.362)"/><path d="m143.493 204.362-2 6h-6.5l5 5-2.5 7 6-4 6 4-2.5-7 5-5h-6.5l-2-6zm0 4 1 3.5h4l-3.5 3.5 1.5 3.5-3-2.5-3 2.5 1.5-3.5-3.5-3.5h4l1-3.5z" style="color:#000;fill:#444;fill-opacity:1;fill-rule:nonzero;stroke:none;stroke-width:2;marker:none;visibility:visible;display:inline;overflow:visible;enable-background:accumulate" transform="translate(-130.993 -201.362)"/></g></svg>