<svg xmlns="http://www.w3.org/2000/svg" width="24" height="24"><g style="display:inline"><path d="m683.5 76-2.5 7-6-4 2 6.5c.458 1.49 1 1.5 2 1.5h2v-1h5v1h2c1 0 1.506-.43 2-1.5l2-6.5-6 4-2.5-7zM682 87v1c-2.216 0-4 .669-4 1.5s1.784 1.5 4 1.5h3c2.216 0 4-.669 4-1.5s-1.784-1.5-4-1.5v-1h-3z" style="opacity:.3;color:#000;fill:#fff;fill-opacity:1;fill-rule:nonzero;stroke:#fff;stroke-width:2;stroke-linecap:round;stroke-linejoin:round;stroke-miterlimit:4;stroke-opacity:1;stroke-dasharray:none;stroke-dashoffset:0;marker:none;visibility:visible;display:inline;overflow:visible;enable-background:accumulate" transform="translate(-672 -72)"/><path d="m564.5 1126.362-2.5 7-6-4 2 6.5c.458 1.49 1 1.5 2 1.5h2v-1h5v1h2c1 0 1.506-.43 2-1.5l2-6.5-6 4-2.5-7zm-1.5 11v1c-2.216 0-4 .67-4 1.5 0 .831 1.784 1.5 4 1.5h3c2.216 0 4-.669 4-1.5 0-.83-1.784-1.5-4-1.5v-1h-3z" style="color:#000;fill:#444;fill-opacity:1;fill-rule:nonzero;stroke:none;stroke-width:2;marker:none;visibility:visible;display:inline;overflow:visible;enable-background:accumulate" transform="translate(-552 -1122.362)"/></g></svg>