<svg xmlns="http://www.w3.org/2000/svg" width="24" height="24"><g style="display:inline"><path d="M330 1102.362c-1 0-1.886 1.007-2 2l-.344 3H326c-.5 0-1 .5-1 1l-1 10c0 .5.5 1 1 1h13c.5 0 1-.5 1-1l-1-10c0-.5-.5-1-1-1h-1.656l-.344-3c-.114-.993-1-2-2-2zm0 1h3c.5 0 .943.503 1 1l.344 3h-5.688l.344-3c.057-.497.5-1 1-1z" style="opacity:.3;color:#000;fill:none;stroke:#fff;stroke-width:2;stroke-linecap:butt;stroke-linejoin:round;stroke-miterlimit:4;stroke-opacity:1;stroke-dasharray:none;stroke-dashoffset:0;marker:none;visibility:visible;display:inline;overflow:visible;enable-background:accumulate" transform="translate(-319 -1099.362)"/><path d="M330 1102.362c-1 0-1.886 1.007-2 2l-.344 3H326c-.5 0-1 .5-1 1l-1 10c0 .5.5 1 1 1h13c.5 0 1-.5 1-1l-1-10c0-.5-.5-1-1-1h-1.656l-.344-3c-.114-.993-1-2-2-2zm0 1h3c.5 0 .943.503 1 1l.344 3h-5.688l.344-3c.057-.497.5-1 1-1z" style="color:#000;fill:#444;fill-opacity:1;fill-rule:nonzero;stroke:none;stroke-width:2;marker:none;visibility:visible;display:inline;overflow:visible;enable-background:accumulate" transform="translate(-319 -1099.362)"/></g></svg>