<svg xmlns="http://www.w3.org/2000/svg" xml:space="preserve" width="24" height="24" viewBox="-402.5 403.5 24 24"><path d="M12.5 3c-.484 0-1.146.646-1.5 1l-1 1c-.354.354-1 1-1.5 1H6c-.5 0-1 .5-1 1v13a1 1 0 0 0 1 1h13a1 1 0 0 0 1-1V4a1 1 0 0 0-1-1zM14 4a1 1 0 1 1 0 2 1 1 0 0 1 0-2zm3 0a1 1 0 1 1 0 2 1 1 0 0 1 0-2zm-4.5 5a4.5 4.5 0 1 1 0 9 4.5 4.5 0 0 1 0-9zM10 13v.5a2.5 2.5 0 0 0 5 0V13z" style="opacity:.3;fill:none;stroke:#fff;stroke-width:2;stroke-miterlimit:4;stroke-dasharray:none" transform="translate(-402.5 403.5)"/><path d="M12.5 3c-.484 0-1.146.646-1.5 1l-1 1c-.354.354-1 1-1.5 1H6c-.5 0-1 .5-1 1v13a1 1 0 0 0 1 1h13a1 1 0 0 0 1-1V4a1 1 0 0 0-1-1zM14 4a1 1 0 1 1 0 2 1 1 0 0 1 0-2zm3 0a1 1 0 1 1 0 2 1 1 0 0 1 0-2zm-4.5 5a4.5 4.5 0 1 1 0 9 4.5 4.5 0 0 1 0-9zM10 13v.5a2.5 2.5 0 0 0 5 0V13z" style="fill:#454545" transform="translate(-402.5 403.5)"/></svg>