<svg xmlns="http://www.w3.org/2000/svg" width="24" height="24"><g style="display:inline"><path d="M486 1052.362a2 2 0 1 0 0 4 2 2 0 0 0 0-4zm-5.75 4 .5 2c.25 1 .847 1 1.594 1H484c.594 1 .315 2.472.5 4h-.906c-1 0-2.594 1-1.594 3l1.5 3c1 2 2.5.5 2-.5l-1.5-3c-.25-.5.264-.5.5-.5h2.468s1.184 2.628 2.578 4.429c.515.665 1.085 1.571 1.799 1.571.5 0 1.356-.773.444-1.86-1.707-2.039-2.789-4.14-2.789-5.14 0-1.163-.204-3.613-.5-5h1.5l1.25 2.5c.553.958 1.75.885 1.75 0 0-.121 0-.389-.14-.677l-1.61-3.323c-.103-.212-.253-.5-1-.5h-7.75l-.75-2.5c-.3-1-1.75-1-1.75 0 0 .5.177 1.107.25 1.5z" style="opacity:.3;color:#000;fill:none;stroke:#fff;stroke-width:2;stroke-linecap:butt;stroke-linejoin:round;stroke-miterlimit:4;stroke-opacity:1;stroke-dasharray:none;stroke-dashoffset:0;marker:none;visibility:visible;display:inline;overflow:visible;enable-background:accumulate" transform="translate(-474 -1050.362)"/><path d="M486 1052.362a2 2 0 1 0 0 4 2 2 0 0 0 0-4zm-5.75 4 .5 2c.25 1 .847 1 1.594 1H484c.594 1 .315 2.472.5 4h-.906c-1 0-2.594 1-1.594 3l1.5 3c1 2 2.5.5 2-.5l-1.5-3c-.25-.5.264-.5.5-.5h2.468s1.184 2.628 2.578 4.429c.515.665 1.085 1.571 1.799 1.571.5 0 1.356-.773.444-1.86-1.707-2.039-2.789-4.14-2.789-5.14 0-1.163-.204-3.613-.5-5h1.5l1.25 2.5c.553.958 1.75.885 1.75 0 0-.121 0-.389-.14-.677l-1.61-3.323c-.103-.212-.253-.5-1-.5h-7.75l-.75-2.5c-.3-1-1.75-1-1.75 0 0 .5.177 1.107.25 1.5z" style="color:#000;fill:#444;fill-opacity:1;fill-rule:nonzero;stroke:none;stroke-width:2;marker:none;visibility:visible;display:inline;overflow:visible;enable-background:accumulate" transform="translate(-474 -1050.362)"/></g></svg>