<svg xmlns="http://www.w3.org/2000/svg" width="24" height="24"><g style="display:inline"><path d="M21 1065.362v1l-7-1v4l2 2c0 .5-.5 1-1 1h-5c-.5 0-1-.5-1-1l2-2v-4l-7 1v-1l7-4v-2c0-1 .5-4 1.5-4s1.5 3 1.5 4v2z" style="opacity:.3;color:#000;fill:none;stroke:#fff;stroke-width:2;stroke-linecap:round;stroke-linejoin:round;stroke-miterlimit:4;stroke-opacity:1;stroke-dasharray:none;stroke-dashoffset:0;marker:none;visibility:visible;display:inline;overflow:visible;enable-background:accumulate" transform="translate(0 -1052.362)"/><path d="M21 1065.862v.5l-7-1v4l2 2c0 .5-.5 1-1 1h-5c-.5 0-1-.5-1-1l2-2v-4l-7 1v-.5c0-.5.306-.638.5-.75l6.5-3.75v-2c0-1 .5-4 1.5-4s1.5 3 1.5 4v2l6.5 3.75c.278.16.5.241.5.75z" style="fill:#444;fill-opacity:1;stroke:none;display:inline" transform="translate(0 -1052.362)"/></g></svg>