<svg xmlns="http://www.w3.org/2000/svg" width="24" height="24"><g style="display:inline"><path d="M483.5 1196.362c-.341 0-.5 0-.5.5v14.438c-2 .062-3 1.562-3 2.562 0 .5.5.5.5.5h12s.5 0 .5-.5c0-2.5-1.5-4.5-3-4.5-1.572 0-2.443 2.78-4 3-.683.096-1.342-.345-2-.687v-9.313l7-3-6.498-2.785a2.656 2.656 0 0 0-1.002-.215z" style="opacity:.3;color:#000;fill:none;stroke:#fff;stroke-width:2;stroke-linecap:round;stroke-linejoin:round;stroke-miterlimit:4;stroke-opacity:1;stroke-dasharray:none;stroke-dashoffset:0;marker:none;visibility:visible;display:inline;overflow:visible;enable-background:accumulate" transform="translate(-474 -1194.362)"/><path d="M483.5 1196.362c-.341 0-.5 0-.5.5v14.438c-2 .062-3 1.562-3 2.562 0 .5.5.5.5.5h12s.5 0 .5-.5c0-2.5-1.5-4.5-3-4.5-1.572 0-2.443 2.78-4 3-.683.096-1.342-.345-2-.687v-9.313l7-3-6.498-2.785a2.656 2.656 0 0 0-1.002-.215z" style="color:#000;fill:#444;fill-opacity:1;fill-rule:nonzero;stroke:none;stroke-width:2;marker:none;visibility:visible;display:inline;overflow:visible;enable-background:accumulate" transform="translate(-474 -1194.362)"/></g></svg>