<svg xmlns="http://www.w3.org/2000/svg" width="24" height="24"><g style="display:inline"><path d="M400.906 1057.362c-.4 0-.906.5-.906 1v9c0 .5.506 1 .906 1h15.188c.4 0 .906-.5.906-1v-9c0-.5-.506-1-.906-1z" style="opacity:.3;color:#000;fill:#fff;fill-opacity:1;stroke:#fff;stroke-width:2;stroke-linecap:butt;stroke-linejoin:round;stroke-miterlimit:4;stroke-opacity:1;stroke-dasharray:none;stroke-dashoffset:0;marker:none;visibility:visible;display:inline;overflow:visible;enable-background:accumulate" transform="translate(-396 -1051.362)"/><path d="M401 1057.362c-1 0-.5.34 0 .75l7 5.75 8-5.75c.5-.41 1-.75 0-.75h-8zm-1 1.5v8.5c0 .5.506 1 .906 1h15.188c.4 0 .906-.5.906-1v-8.5l-9 6.5z" style="color:#000;fill:#444;fill-opacity:1;stroke:none;stroke-width:2;marker:none;visibility:visible;display:inline;overflow:visible;enable-background:accumulate" transform="translate(-396 -1051.362)"/></g></svg>