<svg xmlns="http://www.w3.org/2000/svg" width="24" height="24"><g style="display:inline"><path d="M12.5 5c-.5 0-.726.24-.875.5L5.406 17H4.063C3.476 17 3 17.446 3 18s.476 1 1.063 1h16.875c.586 0 1.062-.446 1.062-1s-.476-1-1.063-1h-1.343L13.375 5.5C13.226 5.24 13 5 12.5 5zm0 5 3.5 7H9z" style="font-size:medium;font-style:normal;font-variant:normal;font-weight:400;font-stretch:normal;text-indent:0;text-align:start;text-decoration:none;line-height:normal;letter-spacing:normal;word-spacing:normal;text-transform:none;direction:ltr;block-progression:tb;writing-mode:lr-tb;text-anchor:start;baseline-shift:baseline;opacity:.3;color:#000;fill:none;stroke:#fff;stroke-width:2;stroke-linecap:round;stroke-linejoin:round;stroke-miterlimit:4;stroke-opacity:1;stroke-dasharray:none;stroke-dashoffset:0;marker:none;visibility:visible;display:inline;overflow:visible;enable-background:accumulate;font-family:Sans;-inkscape-font-specification:Sans" transform="translate(0 -1)"/><path d="M12.5 5c-.5 0-.726.24-.875.5L5.406 17H4.063C3.476 17 3 17.446 3 18s.476 1 1.063 1h16.875c.586 0 1.062-.446 1.062-1s-.476-1-1.063-1h-1.343L13.375 5.5C13.226 5.24 13 5 12.5 5zm0 5 3.5 7H9z" style="font-size:medium;font-style:normal;font-variant:normal;font-weight:400;font-stretch:normal;text-indent:0;text-align:start;text-decoration:none;line-height:normal;letter-spacing:normal;word-spacing:normal;text-transform:none;direction:ltr;block-progression:tb;writing-mode:lr-tb;text-anchor:start;baseline-shift:baseline;color:#000;fill:#444;fill-opacity:1;fill-rule:nonzero;stroke:none;stroke-width:2;marker:none;visibility:visible;display:inline;overflow:visible;enable-background:accumulate;font-family:Sans;-inkscape-font-specification:Sans" transform="translate(0 -1)"/></g></svg>