<svg xmlns="http://www.w3.org/2000/svg" width="24" height="24"><g style="display:inline"><path d="M5 3c-.554 0-1 .446-1 1v15c0 .554.446 1 1 1h15c.554 0 1-.446 1-1V4c0-.554-.446-1-1-1zm1 2h13v13H6z" style="opacity:.3;color:#000;fill:none;stroke:#fff;stroke-width:2;stroke-linecap:butt;stroke-linejoin:miter;stroke-miterlimit:4;stroke-opacity:1;stroke-dasharray:none;stroke-dashoffset:0;marker:none;visibility:visible;display:inline;overflow:visible;enable-background:accumulate"/><path d="M5 3c-.554 0-1 .446-1 1v15c0 .554.446 1 1 1h15c.554 0 1-.446 1-1V4c0-.554-.446-1-1-1zm1 2h13v13H6z" style="color:#000;fill:#444;fill-opacity:1;stroke:none;stroke-width:2;marker:none;visibility:visible;display:inline;overflow:visible;enable-background:accumulate"/></g></svg>