<svg xmlns="http://www.w3.org/2000/svg" width="24" height="24"><g style="display:inline"><path d="M18.5 1150.362s-2.5 1-2.5 2v2c0 1-2 1-2 2v9h9v-9c0-1-2-1-2-2.187v-1.813c0-1-2.5-2-2.5-2zm-8.5 8v7h2v-7c0-1-1-1-1-1s-1 0-1 1zm15 0v7h2v-7c0-1-1-1-1-1s-1 0-1 1z" style="opacity:.3;color:#000;fill:#fff;fill-opacity:1;fill-rule:nonzero;stroke:#fff;stroke-width:2;stroke-linecap:butt;stroke-linejoin:round;stroke-miterlimit:4;stroke-opacity:1;stroke-dasharray:none;stroke-dashoffset:0;marker:none;visibility:visible;display:inline;overflow:visible;enable-background:accumulate" transform="translate(-6 -1146.362)"/><path d="M18.5 1150.362s-2.5 1-2.5 2v2c0 1-2 1-2 2v9h9v-9c0-1-2-1-2-2.187v-1.813c0-1-2.5-2-2.5-2zm-8.5 8v7h2v-7c0-1-1-1-1-1s-1 0-1 1zm15 0v7h2v-7c0-1-1-1-1-1s-1 0-1 1z" style="color:#000;fill:#444;fill-opacity:1;fill-rule:nonzero;stroke:none;stroke-width:2;marker:none;visibility:visible;display:inline;overflow:visible;enable-background:accumulate" transform="translate(-6 -1146.362)"/></g></svg>