<svg xmlns="http://www.w3.org/2000/svg" width="24" height="24"><g style="display:inline"><path d="M478 1320.362v12c0 .5.5 1 1 1h5l-4-14h-1c-.5 0-1 .5-1 1zm8.5 6a1.12 1.12 0 0 0-.313.062l-2.437.844.531 1.875 2.219-.781 2.688.937c.103.034.207.062.312.062.105 0 .214-.032.313-.062l3.187-.937 2 .656v-2.031l-1.688-.563a1.014 1.014 0 0 0-.312-.062c-.106 0-.21.03-.313.062l-3.187.938-2.688-.938a.992.992 0 0 0-.312-.062zm0 4a1.12 1.12 0 0 0-.313.062l-1.375.469.532 1.875 1.156-.406 2.688.937c.103.034.207.062.312.062.105 0 .214-.032.313-.062l3.187-.937 2 .656v-2.031l-1.688-.563a1.014 1.014 0 0 0-.312-.062c-.106 0-.21.03-.313.062l-3.187.938-2.688-.938a.992.992 0 0 0-.312-.062z" style="opacity:.3;color:#000;fill:#fff;fill-opacity:1;fill-rule:nonzero;stroke:#fff;stroke-width:2;stroke-linecap:round;stroke-linejoin:round;stroke-miterlimit:4;stroke-opacity:1;stroke-dasharray:none;stroke-dashoffset:0;marker:none;visibility:visible;display:inline;overflow:visible;enable-background:accumulate" transform="translate(-474 -1314.362)"/><path d="M478 1320.362v12c0 .5.5 1 1 1h5l-4-14h-1c-.5 0-1 .5-1 1zm8.5 6a1.12 1.12 0 0 0-.313.062l-2.437.844.531 1.875 2.219-.781 2.688.937c.103.034.207.062.312.062.105 0 .214-.032.313-.062l3.187-.937 2 .656v-2.031l-1.688-.563a1.014 1.014 0 0 0-.312-.062c-.106 0-.21.03-.313.062l-3.187.938-2.688-.938a.992.992 0 0 0-.312-.062zm0 4a1.12 1.12 0 0 0-.313.062l-1.375.469.532 1.875 1.156-.406 2.688.937c.103.034.207.062.312.062.105 0 .214-.032.313-.062l3.187-.937 2 .656v-2.031l-1.688-.563a1.014 1.014 0 0 0-.312-.062c-.106 0-.21.03-.313.062l-3.187.938-2.688-.938a.992.992 0 0 0-.312-.062z" style="color:#000;fill:#444;fill-opacity:1;fill-rule:nonzero;stroke:none;stroke-width:2;marker:none;visibility:visible;display:inline;overflow:visible;enable-background:accumulate" transform="translate(-474 -1314.362)"/></g></svg>