<svg xmlns="http://www.w3.org/2000/svg" xml:space="preserve" width="24" height="24" viewBox="-402.5 403.5 24 24"><path d="M-382.5 410.5h-4v-2a1 1 0 0 0-1-1h-5a1 1 0 0 0-1 1v2h-4a1 1 0 0 0-1 1v10a1 1 0 0 0 1 1h15a1 1 0 0 0 1-1v-10a1 1 0 0 0-1-1z" style="opacity:.3;fill:#fff;fill-opacity:1;stroke:#fff;stroke-width:2;stroke-miterlimit:10;stroke-opacity:1"/><path d="M-382.5 410.5h-4v-2a1 1 0 0 0-1-1h-5a1 1 0 0 0-1 1v2h-4a1 1 0 0 0-1 1v10a1 1 0 0 0 1 1h15a1 1 0 0 0 1-1v-10a1 1 0 0 0-1-1zm-12 11h-1v-10h1zm7-11h-5v-2h5zm3 11h-1v-10h1z" style="fill:#454545"/></svg>