<svg xmlns="http://www.w3.org/2000/svg" width="24" height="24"><path d="M12.5 3 9 8 7 5c-.663 1.165-3 4-3 7 0 4.418 4.082 8 8.5 8s8.5-3.582 8.5-8c0-3-2.337-5.835-3-7l-2 3zm0 8s3.5 2.685 3.5 5c0 1-1.5 2-3.5 2S9 17 9 16c0-2.236 3.5-5 3.5-5z" style="opacity:.3;color:#000;fill:#fff;fill-opacity:1;fill-rule:nonzero;stroke:#fff;stroke-width:2;stroke-linecap:round;stroke-linejoin:round;stroke-miterlimit:4;stroke-opacity:1;stroke-dasharray:none;stroke-dashoffset:0;marker:none;visibility:visible;display:inline;overflow:visible;enable-background:accumulate"/><path d="M12.5 3 9 8 7 5c-.663 1.165-3 4-3 7 0 4.418 4.082 8 8.5 8s8.5-3.582 8.5-8c0-3-2.337-5.835-3-7l-2 3zm0 8s3.5 2.685 3.5 5c0 1-1.5 2-3.5 2S9 17 9 16c0-2.236 3.5-5 3.5-5z" style="color:#000;fill:#444;fill-opacity:1;fill-rule:nonzero;stroke:none;stroke-width:2;marker:none;visibility:visible;display:inline;overflow:visible;enable-background:accumulate"/></svg>