<svg xmlns="http://www.w3.org/2000/svg" width="24" height="24"><g style="display:inline"><path d="M96.25 1091.362H105c.5 0 1-.5 1-1v-3c0-1-.48-1.48-1-2l-1-1c-.333-.333-1-1-2-1h-3v-2h6c.554 0 1-.446 1-1s-.446-1-1-1H92c-.554 0-1 .446-1 1s.446 1 1 1h6v2h-7.281a1.98 1.98 0 0 0-1.719-1 2 2 0 1 0 0 4c.577 0 1.072-.265 1.438-.656l3.562 3.656c1 1.026 1.75 2 2.25 2zm-7.25-8a1 1 0 1 1 0 2 1 1 0 0 1 0-2z" style="opacity:.3;color:#000;fill:#fff;fill-opacity:1;fill-rule:nonzero;stroke:#fff;stroke-width:2;stroke-linecap:round;stroke-linejoin:round;stroke-miterlimit:4;stroke-opacity:1;stroke-dasharray:none;stroke-dashoffset:0;marker:none;visibility:visible;display:inline;overflow:visible;enable-background:accumulate" transform="translate(-84 -1073.362)"/><path d="M96.25 1091.362H105c.5 0 1-.5 1-1v-3c0-1-.48-1.48-1-2l-1-1c-.333-.333-1-1-2-1h-3v-2h6c.554 0 1-.446 1-1s-.446-1-1-1H92c-.554 0-1 .446-1 1s.446 1 1 1h6v2h-7.281a1.98 1.98 0 0 0-1.719-1 2 2 0 1 0 0 4c.577 0 1.072-.265 1.438-.656l3.562 3.656c1 1.026 1.75 2 2.25 2zm-7.25-8a1 1 0 1 1 0 2 1 1 0 0 1 0-2z" style="color:#000;fill:#444;fill-opacity:1;fill-rule:nonzero;stroke:none;stroke-width:2;marker:none;visibility:visible;display:inline;overflow:visible;enable-background:accumulate" transform="translate(-84 -1073.362)"/></g></svg>