<svg xmlns="http://www.w3.org/2000/svg" width="24" height="24"><g style="display:inline"><path d="M-56.375 1161.862c-.5 0-.726.24-.875.5l-8.5 14a1.002 1.002 0 0 0-.125.5c0 .75.5 1 1 1h17c.5 0 1-.25 1-1 0-.172-.037-.346-.125-.5l-8.5-14c-.149-.26-.375-.5-.875-.5zm0 3 6.781 11h-13.562z" style="font-size:medium;font-style:normal;font-variant:normal;font-weight:400;font-stretch:normal;text-indent:0;text-align:start;text-decoration:none;line-height:normal;letter-spacing:normal;word-spacing:normal;text-transform:none;direction:ltr;block-progression:tb;writing-mode:lr-tb;text-anchor:start;baseline-shift:baseline;opacity:.3;color:#000;fill:#444;fill-opacity:1;fill-rule:nonzero;stroke:#fff;stroke-width:2;stroke-linecap:butt;stroke-linejoin:miter;stroke-miterlimit:4;stroke-opacity:1;stroke-dasharray:none;stroke-dashoffset:0;marker:none;visibility:visible;display:inline;overflow:visible;enable-background:accumulate;font-family:Sans;-inkscape-font-specification:Sans" transform="translate(68.875 -1157.862)"/><path d="M-56.375 1161.862c-.5 0-.726.24-.875.5l-8.5 14a1.002 1.002 0 0 0-.125.5c0 .75.5 1 1 1h17c.5 0 1-.25 1-1 0-.172-.037-.346-.125-.5l-8.5-14c-.149-.26-.375-.5-.875-.5zm0 3 6.781 11h-13.562z" style="font-size:medium;font-style:normal;font-variant:normal;font-weight:400;font-stretch:normal;text-indent:0;text-align:start;text-decoration:none;line-height:normal;letter-spacing:normal;word-spacing:normal;text-transform:none;direction:ltr;block-progression:tb;writing-mode:lr-tb;text-anchor:start;baseline-shift:baseline;color:#000;fill:#444;fill-opacity:1;fill-rule:nonzero;stroke:none;stroke-width:2;marker:none;visibility:visible;display:inline;overflow:visible;enable-background:accumulate;font-family:Sans;-inkscape-font-specification:Sans" transform="translate(68.875 -1157.862)"/></g></svg>