<svg xmlns="http://www.w3.org/2000/svg" width="24" height="24"><g style="display:inline"><path d="M254.75 1053.362c-.97 0-1.75.78-1.75 1.75s.78 1.75 1.75 1.75 1.75-.78 1.75-1.75-.78-1.75-1.75-1.75zm-8 2c-.97 0-1.75.78-1.75 1.75s.78 1.75 1.75 1.75 1.75-.78 1.75-1.75-.78-1.75-1.75-1.75zm9.25 2c-.373 0-.986.135-1.5.5l-3.25 2.313c-.882.627-.073 1.732.75 1.187l2.125-1.406s1.401 3.004.875 4.406a.353.353 0 0 0-.031.125l-2.188 5.813c-.25.669.232 1.069.719 1.062.32 0 .625-.193.781-.562l2.719-6.438s.5 3 2.5 3h2.75c.75 0 .75-.75.75-.75s0-.75-.75-.75H260c-1.067 0-1-1.602-1-2.5 0-1.5-1-4-1-4l3 2c.906.604 1.692-.466.813-1.125l-3.313-2.375c-.604-.43-.797-.5-1.5-.5h-1zm-10.5 2c-.5 0-.736.237-1 .5l-2.125 2.125c-.274.274-.375.519-.375.875 0 .5.764.736 1.188.313l1.812-1.813c1 0 1.375 2.5 1 3.5l-1.5 4c-.415 1.108 1.144 1.449 1.5.5l1.5-4s.5 1 1.5 1h3c1 0 1-1.5 0-1.5h-2.5c-.5 0-.5-1-.5-1.5 0-2-1-4-2-4z" style="opacity:.3;color:#000;fill:none;stroke:#fff;stroke-width:2;stroke-linecap:round;stroke-linejoin:round;stroke-miterlimit:4;stroke-opacity:1;stroke-dasharray:none;stroke-dashoffset:0;marker:none;visibility:visible;display:inline;overflow:visible;enable-background:accumulate" transform="translate(-240 -1050.362)"/><g style="display:inline"><path d="M86.75 51c-.97 0-1.75.78-1.75 1.75s.78 1.75 1.75 1.75 1.75-.78 1.75-1.75S87.72 51 86.75 51zm-8 2c-.97 0-1.75.78-1.75 1.75s.78 1.75 1.75 1.75 1.75-.78 1.75-1.75S79.72 53 78.75 53zM88 55c-.373 0-.986.135-1.5.5l-3.25 2.313c-.882.627-.073 1.731.75 1.187l2.125-1.406S87.526 60.598 87 62a.356.356 0 0 0-.031.125l-2.188 5.813c-.25.669.232 1.069.719 1.062.32-.004.625-.193.781-.563L89 62s.5 3 2.5 3h2.75c.75 0 .75-.75.75-.75s0-.75-.75-.75H92c-1.067 0-1-1.603-1-2.5 0-1.5-1-4-1-4l3 2c.906.604 1.692-.466.813-1.125L90.5 55.5c-.604-.43-.797-.5-1.5-.5h-1zm-10.5 2c-.5 0-.736.236-1 .5l-2.125 2.125c-.274.274-.375.519-.375.875 0 .5.764.736 1.188.313L77 59c1 0 1.375 2.5 1 3.5l-1.5 4c-.415 1.108 1.144 1.449 1.5.5l1.5-4s.5 1 1.5 1h3c1 0 1-1.5 0-1.5h-2.5c-.5 0-.5-1-.5-1.5 0-2-1-4-2-4z" style="color:#000;fill:#444;fill-opacity:1;fill-rule:nonzero;stroke:none;stroke-width:2;marker:none;visibility:visible;display:inline;overflow:visible;enable-background:accumulate" transform="translate(-72 -48)"/></g></g></svg>