<svg xmlns="http://www.w3.org/2000/svg" width="24" height="24"><g style="display:inline"><path d="M257 1318.362c-2 0-3.597 2-4 4l-1.125 5.563a3.07 3.07 0 0 1 .625-.062c1.5 0 2 1 3 1a2 2 0 0 0 .594-.094c.225-1.122.75-3.627.906-4.407.192-.952 1-2 2-2h1c0-.5-.5-1-1-1h-1c-.83 0-1.601.307-2.156.75l.156-.75c.197-.98 1-2 2-2h1c0-.5-.5-1-1-1h-1zm-11 3c-.5 0-1 .5-1 1h1c1 0 1.808 1.048 2 2 .152.756.663 3.203.906 4.406.2.063.397.095.594.095.566 0 .983-.316 1.5-.594l-1-4.906c-.201-1-1.5-2-3-2h-1zm0 8c-.694 0-1.34.405-2 .625v2.031s1-.655 2-.656c1 0 2 1 3.5 1s1.974-.965 3-1c1 0 1.5 1 3 1s2.5-1 3.5-1c.702 0 2 .656 2 .656v-2.03c-.642-.248-1.343-.626-2-.626-1.5 0-2.5 1-3.5 1s-1.5-1-3-1-2 1-3 1-2-1-3.5-1z" style="opacity:.3;color:#000;fill:none;stroke:#fff;stroke-width:2;stroke-linecap:round;stroke-linejoin:round;stroke-miterlimit:4;stroke-opacity:1;stroke-dasharray:none;stroke-dashoffset:0;marker:none;visibility:visible;display:inline;overflow:visible;enable-background:accumulate" transform="translate(-240 -1314.362)"/><path d="M257 1318.362c-2 0-3.597 2-4 4l-1.125 5.563a3.07 3.07 0 0 1 .625-.062c1.5 0 2 1 3 1a2 2 0 0 0 .594-.094c.225-1.122.75-3.627.906-4.407.192-.952 1-2 2-2h1c0-.5-.5-1-1-1h-1c-.83 0-1.601.307-2.156.75l.156-.75c.197-.98 1-2 2-2h1c0-.5-.5-1-1-1h-1zm-11 3c-.5 0-1 .5-1 1h1c1 0 1.808 1.048 2 2 .152.756.663 3.203.906 4.406.2.063.397.095.594.095.566 0 .983-.316 1.5-.594l-1-4.906c-.201-1-1.5-2-3-2h-1zm0 8c-.694 0-1.34.405-2 .625v2.031s1-.655 2-.656c1 0 2 1 3.5 1s1.974-.965 3-1c1 0 1.5 1 3 1s2.5-1 3.5-1c.702 0 2 .656 2 .656v-2.03c-.642-.248-1.343-.626-2-.626-1.5 0-2.5 1-3.5 1s-1.5-1-3-1-2 1-3 1-2-1-3.5-1z" style="color:#000;fill:#444;fill-opacity:1;fill-rule:nonzero;stroke:none;stroke-width:2.79999375;marker:none;visibility:visible;display:inline;overflow:visible;enable-background:accumulate" transform="translate(-240 -1314.362)"/></g></svg>