<svg xmlns="http://www.w3.org/2000/svg" width="24" height="24"><g style="display:inline"><path d="m638 1319.362-4.5 4c-.5.5 0 1 .5 1h1v5h2v-3h2v3h2v-5h1c.5 0 1-.5.5-1l-4.5-4zm9 3-4.5 4c-.5.5 0 1 .5 1h1v5h2v-3h2v3h2v-5h1c.5 0 1-.5.5-1l-4.5-4z" style="opacity:.3;color:#000;fill:#fff;fill-opacity:1;fill-rule:nonzero;stroke:#fff;stroke-width:2;stroke-linecap:round;stroke-linejoin:round;stroke-miterlimit:4;stroke-opacity:1;stroke-dasharray:none;stroke-dashoffset:0;marker:none;visibility:visible;display:inline;overflow:visible;enable-background:accumulate" transform="translate(-630 -1314.362)"/><path d="m758 269-4.5 4c-.5.5 0 1 .5 1h1v5h2v-3h2v3h2v-5h1c.5 0 1-.5.5-1l-4.5-4zm9 3-4.5 4c-.5.5 0 1 .5 1h1v5h2v-3h2v3h2v-5h1c.5 0 1-.5.5-1l-4.5-4z" style="color:#000;fill:#444;fill-opacity:1;fill-rule:nonzero;stroke:none;stroke-width:.46545455;marker:none;visibility:visible;display:inline;overflow:visible;enable-background:accumulate" transform="translate(-750 -264)"/></g></svg>