<svg xmlns="http://www.w3.org/2000/svg" width="24" height="24"><g style="display:inline"><path d="M-59.5 1053.362a8.5 8.5 0 1 0 0 17 8.5 8.5 0 0 0 0-17zm0 2a6.5 6.5 0 1 1 0 13 6.5 6.5 0 0 1 0-13z" style="opacity:.3;color:#000;fill:#fff;fill-opacity:1;fill-rule:nonzero;stroke:#fff;stroke-width:2;stroke-linecap:butt;stroke-linejoin:miter;stroke-miterlimit:4;stroke-opacity:1;stroke-dasharray:none;stroke-dashoffset:0;marker:none;visibility:visible;display:inline;overflow:visible;enable-background:accumulate" transform="translate(72 -1050.362)"/><path d="M-59.5 1053.362a8.5 8.5 0 1 0 0 17 8.5 8.5 0 0 0 0-17zm0 2a6.5 6.5 0 1 1 0 13 6.5 6.5 0 0 1 0-13z" style="color:#000;fill:#444;fill-opacity:1;fill-rule:nonzero;stroke:none;stroke-width:.6000911;marker:none;visibility:visible;display:inline;overflow:visible;enable-background:accumulate" transform="translate(72 -1050.362)"/></g></svg>