<svg xmlns="http://www.w3.org/2000/svg" width="24" height="24"><g style="display:inline"><path d="M17 1007.362c-2 3-3.784 5.005-6 7-2.117 1.906-6 1.252-6 4v1c0 1 1 1.952 1 3v1c0 1.5-.5 1.5-1 3h1l2-3v3h1v-6h2v6h1v-4.5l1 1.5 1 3h1l-1.531-6.281c.59-.36.531-1.025.531-1.719v-3l4-5.5 1.437.446c.3.093.563.055.563-.196 0-.5-.327-.611-.5-.75z" style="opacity:.3;color:#000;fill:#444;fill-opacity:1;fill-rule:nonzero;stroke:#fff;stroke-width:2;stroke-linecap:round;stroke-linejoin:round;stroke-miterlimit:4;stroke-opacity:1;stroke-dasharray:none;stroke-dashoffset:0;marker:none;visibility:visible;display:inline;overflow:visible;enable-background:accumulate" transform="translate(0 -1005.362)"/><g style="display:inline"><path d="M20 2c-2 3-3.784 5.005-6 7-2.117 1.905-6 1.251-6 4v1c0 1 1 1.952 1 3v1c0 1.5-.5 1.5-1 3h1l2-3v3h1v-6h2v6h1v-4.5l1 1.5 1 3h1l-1.531-6.281c.59-.36.531-1.025.531-1.719v-3l4-5.5 1.438.445c.3.093.562.055.562-.195 0-.5-.327-.611-.5-.75z" style="color:#000;fill:#444;fill-opacity:1;fill-rule:nonzero;stroke:none;stroke-width:2;marker:none;visibility:visible;display:inline;overflow:visible;enable-background:accumulate" transform="translate(-3)"/></g></g></svg>