<svg xmlns="http://www.w3.org/2000/svg" width="24" height="24"><g style="display:inline"><path d="M336 1318.362c-1 0-1.326.326-2 1l-8 8c-.5.5-1 1-1 2v1.5c0 1 .5 1.5 1 2l.563.563 3.5-3.5-.563-.563c-.5-.5 0-1 0-1l5.5-5.5s.5-.5 1 0l.563.563 3.5-3.5-.563-.563c-.5-.5-1-1-2-1H336zm4.438 1.938-3.5 3.5.562.562c.354.354 1.146.354 1.5 0l2-2c.354-.354.354-1.146 0-1.5zm-10 10-3.5 3.5.562.562c.354.354 1.146.354 1.5 0l2-2c.354-.353.354-1.146 0-1.5z" style="opacity:.3;color:#000;fill:none;stroke:#fff;stroke-width:2;stroke-linecap:round;stroke-linejoin:round;stroke-miterlimit:4;stroke-opacity:1;stroke-dasharray:none;stroke-dashoffset:0;marker:none;visibility:visible;display:inline;overflow:visible;enable-background:accumulate" transform="translate(-320 -1314.362)"/><path d="M336 1318.362c-1 0-1.326.326-2 1l-8 8c-.5.5-1 1-1 2v1.5c0 1 .5 1.5 1 2l.563.563 3.5-3.5-.563-.563c-.5-.5 0-1 0-1l5.5-5.5s.5-.5 1 0l.563.563 3.5-3.5-.563-.563c-.5-.5-1-1-2-1H336zm4.438 1.938-3.5 3.5.562.562c.354.354 1.146.354 1.5 0l2-2c.354-.354.354-1.146 0-1.5zm-10 10-3.5 3.5.562.562c.354.354 1.146.354 1.5 0l2-2c.354-.353.354-1.146 0-1.5z" style="color:#000;fill:#444;fill-opacity:1;stroke:none;stroke-width:1;marker:none;visibility:visible;display:inline;overflow:visible;enable-background:accumulate" transform="translate(-320 -1314.362)"/></g></svg>