<svg xmlns="http://www.w3.org/2000/svg" width="24" height="24"><g style="display:inline"><path d="M170.3 1198.362c-.253 0-.3.56-.3 1v2c0 2.031 2 3.063 4 3v8c-1-2-4-5-7-4 0 0 2.5 6 7.5 6s7.5-6 7.5-6c-3-1-6 2-7 4v-8c2 .062 4-.969 4-3v-2c0-.44-.047-1-.3-1-.193 0-.426.226-.7.5l-1.5 1.5-1.5-1.687c-.157-.176-.247-.313-.5-.313s-.343.137-.5.313l-1.5 1.687-1.5-1.5c-.274-.274-.507-.5-.7-.5z" style="opacity:.3;color:#000;fill:#444;fill-opacity:1;fill-rule:nonzero;stroke:#fff;stroke-width:2;stroke-linecap:round;stroke-linejoin:round;stroke-miterlimit:4;stroke-opacity:1;stroke-dasharray:none;stroke-dashoffset:0;marker:none;visibility:visible;display:inline;overflow:visible;enable-background:accumulate" transform="translate(-162 -1194.362)"/><path d="M170.3 1198.362c-.253 0-.3.56-.3 1v2c0 2.031 2 3.063 4 3v8c-1-2-4-5-7-4 0 0 2.5 6 7.5 6s7.5-6 7.5-6c-3-1-6 2-7 4v-8c2 .062 4-.969 4-3v-2c0-.44-.047-1-.3-1-.193 0-.426.226-.7.5l-1.5 1.5-1.5-1.687c-.157-.176-.247-.313-.5-.313s-.343.137-.5.313l-1.5 1.687-1.5-1.5c-.274-.274-.507-.5-.7-.5z" style="color:#000;fill:#444;fill-opacity:1;fill-rule:nonzero;stroke:none;stroke-width:2;marker:none;visibility:visible;display:inline;overflow:visible;enable-background:accumulate" transform="translate(-162 -1194.362)"/></g></svg>