<svg xmlns="http://www.w3.org/2000/svg" width="24" height="24"><path d="M9.281 3C8.57 3 8 3.446 8 4s.569 1 1.281 1H10v4L5 19l.969 1h13L20 19 15 9V5h.719C16.43 5 17 4.554 17 4s-.569-1-1.281-1H9.28zM12 5h1v4l3 6H9l3-6V5z" style="opacity:.3;color:#000;fill:none;stroke:#fff;stroke-width:2;stroke-linecap:round;stroke-linejoin:round;stroke-miterlimit:4;stroke-opacity:1;stroke-dasharray:none;stroke-dashoffset:0;marker:none;visibility:visible;display:inline;overflow:visible;enable-background:accumulate"/><path d="M9.281 3C8.57 3 8 3.446 8 4s.569 1 1.281 1H10v4L5 19l.969 1h13L20 19 15 9V5h.719C16.43 5 17 4.554 17 4s-.569-1-1.281-1H9.28zM12 5h1v4l3 6H9l3-6V5z" style="opacity:.98999999;fill:#454545;fill-opacity:1;fill-rule:evenodd;stroke:#000;stroke-width:0;stroke-linecap:butt;stroke-linejoin:miter;stroke-miterlimit:4;stroke-opacity:1"/></svg>