<svg xmlns="http://www.w3.org/2000/svg" width="24" height="24"><g style="display:inline"><path d="M174.5 1147.362s-2.59 2.004-2.5 3v11h-2c-.554 0-1 .446-1 1v2h-1c-.554 0-1 .446-1 1v1h15v-1c0-.554-.446-1-1-1h-1v-2c0-.554-.446-1-1-1h-2v-11c0-1-2.5-3-2.5-3z" style="opacity:.3;color:#000;fill:#fff;fill-opacity:1;fill-rule:nonzero;stroke:#fff;stroke-width:2;stroke-linecap:round;stroke-linejoin:round;stroke-miterlimit:4;stroke-opacity:1;stroke-dasharray:none;stroke-dashoffset:0;marker:none;visibility:visible;display:inline;overflow:visible;enable-background:accumulate" transform="translate(-162 -1145.362)"/><path d="M174.5 1147.362s-2.59 2.004-2.5 3v11h-2c-.554 0-1 .446-1 1v2h-1c-.554 0-1 .446-1 1v1h15v-1c0-.554-.446-1-1-1h-1v-2c0-.554-.446-1-1-1h-2v-11c0-1-2.5-3-2.5-3z" style="color:#000;fill:#444;fill-opacity:1;stroke:none;stroke-width:3;marker:none;visibility:visible;display:inline;overflow:visible;enable-background:accumulate" transform="translate(-162 -1145.362)"/></g></svg>