<svg xmlns="http://www.w3.org/2000/svg" width="24" height="24"><g style="display:inline"><path d="M487 1270.362c-1 0-2 .5-2 2 0 .537.044.628.156 1.094l.688 2.844-3.719 2.281-3.375-1.969c-.112-.066-.259-.068-.438-.03-.178.036-.312.248-.312.468 0 .22.096.347.25.437l14.5 8.5c.456.263.867.37 1.25.375.268 0 .532-.035.75-.125.53-.218.862-.611 1.094-.843a.55.55 0 0 0 .156-.407c0-.211-.129-.436-.406-.468a.46.46 0 0 0-.438.187c-.234.298-.528.521-.781.625-.253.104-.534.123-1.125-.219l-9.281-5.437 3.594-2.094c.332-.228.502-.67.406-1.062l-.406-1.657 3.575 2.105.675 2.57c.077.289.29.537.562.657l2.281 1c1.606.704 1.835-.826.813-1.269l-1.875-.812-1.594-6.25-3.063-1.75c-.786-.454-1.437-.75-1.937-.75zm8 2a2 2 0 1 0 0 4 2 2 0 0 0 0-4z" style="opacity:.3;color:#000;fill:none;stroke:#fff;stroke-width:2;stroke-linecap:round;stroke-linejoin:round;stroke-miterlimit:4;stroke-opacity:1;stroke-dasharray:none;stroke-dashoffset:0;marker:none;visibility:visible;display:inline;overflow:visible;enable-background:accumulate" transform="translate(-475 -1266.362)"/><g style="display:inline"><path d="M12 1007.362c-1 0-2 .5-2 2 0 .537.044.628.156 1.094l.688 2.844-3.719 2.281-3.375-1.969c-.112-.066-.259-.068-.438-.03-.178.036-.312.248-.312.468 0 .22.096.347.25.437l14.5 8.5c.456.263.867.37 1.25.375.268 0 .532-.035.75-.125.53-.217.862-.611 1.094-.843a.55.55 0 0 0 .156-.407c0-.211-.129-.436-.406-.468a.46.46 0 0 0-.438.187c-.234.298-.528.521-.781.625-.253.104-.534.123-1.125-.219l-9.281-5.437 3.594-2.094c.332-.228.502-.67.406-1.062l-.406-1.657 3.575 2.105.675 2.57c.077.289.29.537.562.657l2.281 1c1.606.704 1.835-.826.813-1.269l-1.875-.812-1.594-6.25-3.062-1.75c-.787-.454-1.438-.75-1.938-.75zm8 2a2 2 0 1 0 0 4 2 2 0 0 0 0-4z" style="color:#000;fill:#444;fill-opacity:1;fill-rule:nonzero;stroke:none;stroke-width:2;marker:none;visibility:visible;display:inline;overflow:visible;enable-background:accumulate" transform="translate(0 -1003.362)"/></g></g></svg>