<svg xmlns="http://www.w3.org/2000/svg" width="24" height="24"><g style="display:inline"><path d="M9 1007.362c-.554 0-1 .446-1 1v16c0 .5.5 1 1 1h9c.5 0 1-.5 1-1v-5h.5c.5 0 .5.5.5.5v2c0 1 .5 1.5 1.5 1.5s1.5-.5 1.5-1.5v-5.5c0-1-2-2-2-3v-3h-1l-1-1v-1c0-.554-.446-1-1-1zm1 2h7v4h-7zm9 3h1v1.5c0 1 2 2 2 3v5c0 .5-.5.5-.5.5s-.5 0-.5-.5v-2.5c0-.5-.5-1-1-1h-1z" style="opacity:.3;color:#000;fill:#fff;fill-opacity:1;fill-rule:nonzero;stroke:#fff;stroke-width:2;stroke-linecap:round;stroke-linejoin:round;marker:none;visibility:visible;display:inline;overflow:visible;enable-background:accumulate" transform="translate(-1 -1004.362)"/><path d="M9 1007.362c-.554 0-1 .446-1 1v16c0 .5.5 1 1 1h9c.5 0 1-.5 1-1v-5h.5c.5 0 .5.5.5.5v2c0 1 .5 1.5 1.5 1.5s1.5-.5 1.5-1.5v-5.5c0-1-2-2-2-3v-3h-1l-1-1v-1c0-.554-.446-1-1-1zm1 2h7v4h-7zm9 3h1v1.5c0 1 2 2 2 3v5c0 .5-.5.5-.5.5s-.5 0-.5-.5v-2.5c0-.5-.5-1-1-1h-1z" style="color:#000;fill:#444;fill-opacity:1;fill-rule:nonzero;stroke:none;stroke-width:2;marker:none;visibility:visible;display:inline;overflow:visible;enable-background:accumulate" transform="translate(-1 -1004.362)"/></g></svg>