<svg xmlns="http://www.w3.org/2000/svg" width="24" height="24"><g style="display:inline"><path d="M11 4c-.554 0-1 .446-1 1v4H6c-.554 0-1 .446-1 1v3c0 .554.446 1 1 1h4v4c0 .554.446 1 1 1h3c.554 0 1.069-.45 1-1v-4h4c.554 0 1-.446 1-1v-3c0-.554-.446-1-1-1h-4V5c0-.554-.446-1-1-1z" style="opacity:.3;color:#000;fill:none;stroke:#fff;stroke-width:2;marker:none;visibility:visible;display:inline;overflow:visible;enable-background:accumulate"/><path d="M83 124c-.554 0-1 .446-1 1v4h-4c-.554 0-1 .446-1 1v3c0 .554.446 1 1 1h4v4c0 .554.446 1 1 1h3c.554 0 1-.446 1-1v-4h4c.554 0 1-.446 1-1v-3c0-.554-.446-1-1-1h-4v-4c0-.554-.446-1-1-1z" style="color:#000;fill:#444;fill-opacity:1;stroke:none;stroke-width:2;marker:none;visibility:visible;display:inline;overflow:visible;enable-background:accumulate" transform="translate(-72 -120)"/></g></svg>