<svg xmlns="http://www.w3.org/2000/svg" width="24" height="24"><g style="display:inline"><path d="M526 244c-.5 0-1 .5-1 1v10h-1a3 3 0 1 0 3 3v-9h7v6h-1a3 3 0 1 0 3 3v-13c0-.5-.5-1-1-1h-9z" style="opacity:.3;color:#000;fill:#fff;fill-opacity:1;fill-rule:nonzero;stroke:#fff;stroke-width:2;stroke-linecap:round;stroke-linejoin:round;stroke-miterlimit:4;stroke-opacity:1;stroke-dasharray:none;stroke-dashoffset:0;marker:none;visibility:visible;display:inline;overflow:visible;enable-background:accumulate" transform="translate(-516 -240)"/><path d="M526 244c-.5 0-1 .5-1 1v10h-1a3 3 0 1 0 3 3v-9h7v6h-1a3 3 0 1 0 3 3v-13c0-.5-.5-1-1-1h-9z" style="fill:#454545;display:inline" transform="translate(-516 -240)"/></g></svg>