<svg xmlns="http://www.w3.org/2000/svg" width="24" height="24"><g style="display:inline"><path d="m12.5 1030.362-5.5 5h3l-4 4h3l-3 4h5v4c0 .554.446 1 1 1h1c.554 0 1-.446 1-1v-4h5l-3-4h3l-4-4h3l-5.5-5z" style="opacity:.3;color:#000;fill:none;stroke:#fff;stroke-width:2;stroke-linecap:round;stroke-linejoin:round;stroke-miterlimit:4;stroke-opacity:1;stroke-dasharray:none;stroke-dashoffset:0;marker:none;visibility:visible;display:inline;overflow:visible;enable-background:accumulate" transform="translate(0 -1027.362)"/><path d="m12.5 1030.362-5.5 5h3l-4 4h3l-3 4h5v4c0 .554.446 1 1 1h1c.554 0 1-.446 1-1v-4h5l-3-4h3l-1-1-3-3h3z" style="color:#000;fill:#444;fill-opacity:1;fill-rule:nonzero;stroke:none;stroke-width:2;marker:none;visibility:visible;display:inline;overflow:visible;enable-background:accumulate" transform="translate(0 -1027.362)"/></g></svg>