<svg xmlns="http://www.w3.org/2000/svg" width="24" height="24"><g style="display:inline"><path d="M449 244c-5 0-8 4-8 6s1 3.5 3 3.5 3 .5 3 2c0 2 1.5 3.5 3.5 3.5 6.5 0 9.5-3.5 9.5-7 0-6-5-8-11-8zm-1.25 2a1.25 1.25 0 1 1 0 2.5 1.25 1.25 0 0 1 0-2.5zm4 0a1.25 1.25 0 1 1 0 2.5 1.25 1.25 0 0 1 0-2.5zm4 2a1.25 1.25 0 1 1 0 2.5 1.25 1.25 0 0 1 0-2.5zm-11.5 1a1.25 1.25 0 1 1 0 2.5 1.25 1.25 0 0 1 0-2.5zm6.25 5a1.5 1.5 0 1 1 0 3 1.5 1.5 0 0 1 0-3z" style="opacity:.3;color:#000;fill:#fff;fill-opacity:1;fill-rule:nonzero;stroke:#fff;stroke-width:2;stroke-linecap:round;stroke-linejoin:round;stroke-miterlimit:4;stroke-opacity:1;stroke-dasharray:none;stroke-dashoffset:0;marker:none;visibility:visible;display:inline;overflow:visible;enable-background:accumulate" transform="translate(-438 -240)"/><path d="M449 244c-5 0-8 4-8 6s1 3.5 3 3.5 3 .5 3 2c0 2 1.5 3.5 3.5 3.5 6.5 0 9.5-3.5 9.5-7 0-6-5-8-11-8zm-1.25 2a1.25 1.25 0 1 1 0 2.5 1.25 1.25 0 0 1 0-2.5zm4 0a1.25 1.25 0 1 1 0 2.5 1.25 1.25 0 0 1 0-2.5zm4 2a1.25 1.25 0 1 1 0 2.5 1.25 1.25 0 0 1 0-2.5zm-11.5 1a1.25 1.25 0 1 1 0 2.5 1.25 1.25 0 0 1 0-2.5zm6.25 5a1.5 1.5 0 1 1 0 3 1.5 1.5 0 0 1 0-3z" style="color:#000;fill:#444;fill-opacity:1;stroke:none;stroke-width:.9999997;marker:none;visibility:visible;display:inline;overflow:visible;enable-background:accumulate" transform="translate(-438 -240)"/></g></svg>