<svg xmlns="http://www.w3.org/2000/svg" xml:space="preserve" width="24" height="24" viewBox="-402.5 403.5 24 24"><path d="M-390.5 407.5a1 1 0 0 0-1 1v1h-3a1 1 0 0 0-1-1h-1a1 1 0 0 0-1 1h-1a1 1 0 0 0-1 1v10a1 1 0 0 0 1 1h17a1 1 0 0 0 1-1v-10a1 1 0 0 0-1-1h-4v-1a1 1 0 0 0-1-1h-4zm2 4a4 4 0 1 1 0 8 4 4 0 0 1 0-8zm0 2a2 2 0 1 0 0 4 2 2 0 0 0 0-4z" style="opacity:.3;color:#000;fill:#000;fill-opacity:1;fill-rule:nonzero;stroke:#fff;stroke-width:2;stroke-linecap:butt;stroke-linejoin:miter;stroke-miterlimit:10;stroke-opacity:1;stroke-dasharray:none;stroke-dashoffset:0;marker:none;visibility:visible;display:inline;overflow:visible;enable-background:accumulate"/><path d="M-390.5 407.5a1 1 0 0 0-1 1v1h-3a1 1 0 0 0-1-1h-1a1 1 0 0 0-1 1h-1a1 1 0 0 0-1 1v10a1 1 0 0 0 1 1h17a1 1 0 0 0 1-1v-10a1 1 0 0 0-1-1h-4v-1a1 1 0 0 0-1-1h-4zm2 4a4 4 0 1 1 0 8 4 4 0 0 1 0-8zm0 2a2 2 0 1 0 0 4 2 2 0 0 0 0-4z" style="fill:#000"/></svg>