<svg xmlns="http://www.w3.org/2000/svg" width="24" height="24"><g style="display:inline"><path d="m761 3-7.5 6.5c-.362.302-.5.5-.5.75 0 .496.5.75 1 .75h1v8c0 .554.446 1 1 1h13c.554 0 1-.446 1-1v-8h1c.5 0 1-.254 1-.75 0-.25-.138-.448-.5-.75L764 3zm-2 9h7v.5h-7zm0 2h7v.5h-7zm0 2h7v.5h-7zm0 2h7v.5h-7z" style="opacity:.3;color:#000;fill:#fff;fill-opacity:1;fill-rule:nonzero;stroke:#fff;stroke-width:2;stroke-linecap:butt;stroke-linejoin:round;stroke-miterlimit:4;stroke-opacity:1;stroke-dasharray:none;stroke-dashoffset:0;marker:none;visibility:visible;display:inline;overflow:visible;enable-background:accumulate" transform="translate(-750)"/><path d="m761 3-7.5 6.5c-.362.302-.5.5-.5.75 0 .496.5.75 1 .75h1v8c0 .554.446 1 1 1h13c.554 0 1-.446 1-1v-8h1c.5 0 1-.254 1-.75 0-.25-.138-.448-.5-.75L764 3zm-2 9h7v.5h-7zm0 2h7v.5h-7zm0 2h7v.5h-7zm0 2h7v.5h-7z" style="color:#000;fill:#444;fill-opacity:1;fill-rule:nonzero;stroke:none;stroke-width:1;marker:none;visibility:visible;display:inline;overflow:visible;enable-background:accumulate" transform="translate(-750)"/></g></svg>