<svg xmlns="http://www.w3.org/2000/svg" width="24" height="24"><g style="display:inline"><path d="M6 1010.362a2 2 0 1 0 0 4 2 2 0 0 0 0-4zm3 2a3 3 0 0 1-3 3H4.5c-.253 0-.501 0-.5.5v1c0 .5.389.5.5.5H21v-2c0-1 0-3-5-3zm-4 6c-.5 0-1 .5-1 1v3c0 .5.5 1 1 1s1-.5 1-1v-2h13v2c0 .5.5 1 1 1s1-.5 1-1v-3c0-.5-.5-1-1-1z" style="opacity:.3;color:#000;fill:none;stroke:#fff;stroke-width:2;stroke-linecap:round;stroke-linejoin:round;stroke-miterlimit:4;stroke-opacity:1;stroke-dasharray:none;stroke-dashoffset:0;marker:none;visibility:visible;display:inline;overflow:visible;enable-background:accumulate" transform="translate(0 -1004.362)"/><path d="M6 1010.362a2 2 0 1 0 0 4 2 2 0 0 0 0-4zm3 2a3 3 0 0 1-3 3H4.5c-.253 0-.501 0-.5.5v1c0 .5.389.5.5.5H21v-2c0-1 0-3-5-3zm-4 6c-.5 0-1 .5-1 1v3c0 .5.5 1 1 1s1-.5 1-1v-2h13v2c0 .5.5 1 1 1s1-.5 1-1v-3c0-.5-.5-1-1-1z" style="color:#000;fill:#444;fill-opacity:1;stroke:none;stroke-width:2;marker:none;visibility:visible;display:inline;overflow:visible;enable-background:accumulate" transform="translate(0 -1004.362)"/></g></svg>