<svg xmlns="http://www.w3.org/2000/svg" width="24" height="24"><g style="display:inline"><path d="m477 1295.362 1 1-2 2v1l3 .5c0 1.5 2.53.677 3 3.5v5h1l1-4 1 4h1v-4c2 0 3-1 4-1 0 0 .5 1.65.5 2.5 0 .85-.5 2.5-.5 2.5h1l1.5-4 1.5 4h1v-4c0-.5-1-1-1-1.5 0-1.412 1-1.5 1-2.5v-3c0-.5-.5-1-1-1h-13l-1-1z" style="opacity:.3;color:#000;fill:#fff;fill-opacity:1;fill-rule:nonzero;stroke:#fff;stroke-width:2;stroke-linecap:round;stroke-linejoin:round;stroke-miterlimit:4;stroke-opacity:1;stroke-dasharray:none;stroke-dashoffset:0;marker:none;visibility:visible;display:inline;overflow:visible;enable-background:accumulate" transform="translate(-474 -1290.362)"/><path d="m477 1295.362 1 1-2 2v1l3 .5c0 1.5 2.53.677 3 3.5v5h1l1-4 1 4h1v-4c2 0 3-1 4-1 0 0 .5 1.65.5 2.5 0 .85-.5 2.5-.5 2.5h1l1.5-4 1.5 4h1v-4c0-.5-1-1-1-1.5 0-1.412 1-1.5 1-2.5v-3c0-.5-.5-1-1-1h-13l-1-1z" style="color:#000;fill:#444;fill-opacity:1;fill-rule:nonzero;stroke:none;stroke-width:2;marker:none;visibility:visible;display:inline;overflow:visible;enable-background:accumulate" transform="translate(-474 -1290.362)"/></g></svg>