<svg xmlns="http://www.w3.org/2000/svg" width="24" height="24"><g style="display:inline"><path d="M324 1079.362c-.554 0-1 .446-1 1v9c0 .554.446 1 1 1h11c.554 0 1-.446 1-1v-1h.5c.5 0 .5-.5.5-.5v-.5h1c1 0 2-1 2-2v-3c0-.5-.5-1-1-1h-3v-1c0-.554-.446-1-1-1zm12 3h2.5c.5 0 .5.5.5.5v2.5c0 .5-.5 1-1 1h-2zm-15 9 1 1 1 1h13l1-1 1-1z" style="opacity:.3;color:#000;fill:#fff;fill-opacity:1;fill-rule:nonzero;stroke:#fff;stroke-width:2;stroke-linecap:butt;stroke-linejoin:round;stroke-miterlimit:4;stroke-opacity:1;stroke-dasharray:none;stroke-dashoffset:0;marker:none;visibility:visible;display:inline;overflow:visible;enable-background:accumulate" transform="translate(-318 -1074.362)"/><path d="M324 1079.362c-.554 0-1 .446-1 1v9c0 .554.446 1 1 1h11c.554 0 1-.446 1-1v-1h.5c.5 0 .5-.5.5-.5v-.5h1c1 0 2-1 2-2v-3c0-.5-.5-1-1-1h-3v-1c0-.554-.446-1-1-1zm12 3h2.5c.5 0 .5.5.5.5v2.5c0 .5-.5 1-1 1h-2zm-15 9 1 1 1 1h13l1-1 1-1z" style="color:#000;fill:#444;fill-opacity:1;fill-rule:nonzero;stroke:none;stroke-width:2;marker:none;visibility:visible;display:inline;overflow:visible;enable-background:accumulate" transform="translate(-318 -1074.362)"/></g></svg>