<svg xmlns="http://www.w3.org/2000/svg" width="24" height="24"><path d="M6 1032.862a3 3 0 1 0 0 6c.685 0 1.308-.239 1.813-.625l2.406 1.625-2.406 1.625a2.971 2.971 0 0 0-1.813-.625 3 3 0 1 0 3 3c0-.266-.06-.504-.125-.75l13.625-9.094c-.5-.333-1-.656-2-.656H19c-1 0-1.501.324-2 .656l-6 4-2.125-1.406c.065-.245.125-.484.125-.75a3 3 0 0 0-3-3zm9.125 7.906-2.75 1.844 4.625 3.094c.499.333 1 .656 2 .656h1.5c1 0 1.5-.323 2-.656z" style="opacity:.3;color:#000;fill:#fff;fill-opacity:1;fill-rule:nonzero;stroke:#fff;stroke-width:2;stroke-linecap:butt;stroke-linejoin:round;stroke-miterlimit:4;stroke-opacity:1;stroke-dasharray:none;stroke-dashoffset:0;marker:none;visibility:visible;display:inline;overflow:visible;enable-background:accumulate" transform="translate(0 -1028.362)"/><path d="M6 1032.862a3 3 0 1 0 0 6c.685 0 1.308-.239 1.813-.625l2.406 1.625-2.406 1.625a2.971 2.971 0 0 0-1.813-.625 3 3 0 1 0 3 3c0-.266-.06-.504-.125-.75l13.625-9.094c-.5-.333-1-.656-2-.656H19c-1 0-1.501.324-2 .656l-6 4-2.125-1.406c.065-.245.125-.484.125-.75a3 3 0 0 0-3-3zm9.125 7.906-2.75 1.844 4.625 3.094c.499.333 1 .656 2 .656h1.5c1 0 1.5-.323 2-.656z" style="color:#000;fill:#444;fill-opacity:1;fill-rule:nonzero;stroke:none;stroke-width:4;marker:none;visibility:visible;display:inline;overflow:visible;enable-background:accumulate" transform="translate(0 -1028.362)"/></svg>