<svg xmlns="http://www.w3.org/2000/svg" width="24" height="24"><path d="M21 1032.362h-1c-2 0-4.625.625-7.5 3.5-3 3-4.5 6.5-4.5 6.5 0 1 2 3 3 3 0 0 3.25-1.25 6.25-4.25 3.214-3.214 3.75-5.75 3.75-7.75zm-5.5 4a1.5 1.5 0 1 1 0 3 1.5 1.5 0 0 1 0-3zm-9.5 2-1 3h2.5l1.75-3zm9 5.75-3 1.75v2.5l3-1z" style="opacity:.3;color:#000;fill:none;stroke:#fff;stroke-width:2;stroke-linecap:round;stroke-linejoin:round;stroke-miterlimit:4;stroke-opacity:1;stroke-dasharray:none;stroke-dashoffset:0;marker:none;visibility:visible;display:inline;overflow:visible;enable-background:accumulate" transform="translate(0 -1028.362)"/><path d="M21 1032.362h-1c-2 0-4.625.625-7.5 3.5-3 3-4.5 6.5-4.5 6.5 0 1 2 3 3 3 0 0 3.25-1.25 6.25-4.25 3.214-3.214 3.75-5.75 3.75-7.75zm-5.5 4a1.5 1.5 0 1 1 0 3 1.5 1.5 0 0 1 0-3zm-9.5 2-1 3h2.5l1.75-3zm9 5.75-3 1.75v2.5l3-1z" style="fill:#444;fill-opacity:1;stroke:none" transform="translate(0 -1028.362)"/></svg>