<svg xmlns="http://www.w3.org/2000/svg" width="24" height="24"><g style="stroke:#fff;stroke-width:2;stroke-miterlimit:4;stroke-dasharray:none;stroke-linejoin:round;stroke-linecap:round;opacity:.3"><path d="M20.5 3a1.495 1.495 0 0 0-1.125.563L13 11.186 11.156 9.03c-.537-.629-1.596-.701-2.219-.156-.622.545-.508 1.561-.03 2.125l3 3.531c.57.65 1.728.634 2.28-.031l7.5-9.031c.313-.44.434-1.25.188-1.688-.295-.522-.861-.808-1.375-.781zM6 4c-.554 0-1 .446-1 1v13c0 .554.446 1 1 1h13c.554 0 1-.446 1-1v-6h-2v5H7V6h8V4H6z" style="color:#000;fill:#444;fill-opacity:1;stroke:#fff;stroke-width:2;marker:none;visibility:visible;display:inline;overflow:visible;enable-background:accumulate;stroke-miterlimit:4;stroke-dasharray:none;stroke-linejoin:round;stroke-linecap:round"/></g><path d="M20.5 3a1.495 1.495 0 0 0-1.125.563L13 11.186 11.156 9.03c-.537-.629-1.596-.701-2.219-.156-.622.545-.508 1.561-.03 2.125l3 3.531c.57.65 1.728.634 2.28-.031l7.5-9.031c.313-.44.434-1.25.188-1.688-.295-.522-.861-.808-1.375-.781zM6 4c-.554 0-1 .446-1 1v13c0 .554.446 1 1 1h13c.554 0 1-.446 1-1v-6h-2v5H7V6h8V4H6z" style="color:#000;fill:#444;fill-opacity:1;stroke:none;stroke-width:2;marker:none;visibility:visible;display:inline;overflow:visible;enable-background:accumulate"/></svg>