<svg xmlns="http://www.w3.org/2000/svg" width="24" height="24"><g style="display:inline"><path d="M523.5 26c-.5 0-.5.5-.5.5v6c0 .505.5 1 1 1.5s.526 1.006.5 1.5V37l-.5 6.5c-.038.498.5 1.5 1.5 1.5s1.538-1 1.5-1.5l-.5-6.5v-1.5c0-.479 0-1 .5-1.5.46-.46 1-.979 1-1.5v-6s0-.5-.5-.5-.5.5-.5.5V31s0 .5-.5.5-.5-.5-.5-.5v-4.5s0-.5-.5-.5-.5.5-.5.5V31s0 .5-.5.5-.5-.5-.5-.5v-4.5s0-.5-.5-.5zm10.5 0c-1 0-2.868.235-3.5 1.5-.5 1-.5 3.5-.5 4.5v5c0 .5.5 1 1 1h1v6c0 .5.5 1 1 1s1-.5 1-1z" style="opacity:.3;color:#000;fill:#fff;fill-opacity:1;fill-rule:nonzero;stroke:#fff;stroke-width:2;stroke-linecap:butt;stroke-linejoin:round;stroke-miterlimit:4;stroke-opacity:1;stroke-dasharray:none;stroke-dashoffset:0;marker:none;visibility:visible;display:inline;overflow:visible;enable-background:accumulate" transform="translate(-516 -24)"/><path d="M523.5 26c-.5 0-.5.5-.5.5v6c0 .5.5 1 1 1.5s.5 1 .5 1.5V37c0 .5-.5 6.5-.5 6.5-.038.498.5 1.5 1.5 1.5s1.538-1 1.5-1.5c0 0-.5-6-.5-6.5v-1.5c0-.5 0-1 .5-1.5.46-.46 1-1 1-1.5v-6s0-.5-.5-.5-.5.5-.5.5V31s0 .5-.5.5-.5-.5-.5-.5v-4.5s0-.5-.5-.5-.5.5-.5.5V31s0 .5-.5.5-.5-.5-.5-.5v-4.5s0-.5-.5-.5zm10.5 0c-1 0-2.868.235-3.5 1.5-.5 1-.5 3.5-.5 4.5v5c0 .5.5 1 1 1h1v6c0 .5.5 1 1 1s1-.5 1-1z" style="color:#000;fill:#444;fill-opacity:1;fill-rule:nonzero;stroke:none;stroke-width:2;marker:none;visibility:visible;display:inline;overflow:visible;enable-background:accumulate" transform="translate(-516 -24)"/></g></svg>