<svg xmlns="http://www.w3.org/2000/svg" width="24" height="24"><g style="display:inline"><path d="M646 1102.362v4h-3v-3l-4 3v-3l-4 3c-.443.333-1 .5-1 1.5v8.5c0 .554.446 1 1 1h15c.554 0 1-.446 1-1v-9c0-.554-.446-1-1-1h-2v-4c0-.5-.529-1-1-1s-1 .5-1 1z" style="opacity:.3;color:#000;fill:#fff;fill-opacity:1;fill-rule:nonzero;stroke:#fff;stroke-width:2;stroke-linecap:butt;stroke-linejoin:round;stroke-miterlimit:4;stroke-opacity:1;stroke-dasharray:none;stroke-dashoffset:0;marker:none;visibility:visible;display:inline;overflow:visible;enable-background:accumulate" transform="translate(-630 -1098.362)"/><path d="M646 1102.362v4h-3v-3l-4 3v-3l-4 3c-.443.333-1 .5-1 1.5v8.5c0 .554.446 1 1 1h15c.554 0 1-.446 1-1v-9c0-.554-.446-1-1-1h-2v-4c0-.5-.529-1-1-1s-1 .5-1 1z" style="color:#000;fill:#444;fill-opacity:1;fill-rule:nonzero;stroke:none;stroke-width:2;marker:none;visibility:visible;display:inline;overflow:visible;enable-background:accumulate" transform="translate(-630 -1098.362)"/></g></svg>