<svg xmlns="http://www.w3.org/2000/svg" width="24" height="24"><path d="M7.875 1A.87.87 0 0 0 7 1.875v1.156c-.559.06-1 .472-1 1V20.97c0 .568.504 1.03 1.125 1.03h9.75c.62 0 1.125-.462 1.125-1.031V4.03C18 3.462 17.496 3 16.875 3H9V1.875A.87.87 0 0 0 8.125 1h-.25zM9 5h6c.532 0 1 .512 1 1v3c0 .488-.468 1-1 1H9c-.532 0-1-.512-1-1V6c0-.488.468-1 1-1zm-1 7h2v2H8v-2zm3 .031h2V14h-2v-1.969zm3 0h2V14h-2v-1.969zM8 15h2v2H8v-2zm3 .031h2V17h-2v-1.969zm3 0h2V17h-2v-1.969zM8 18h2v2H8v-2zm3 .031h2V20h-2v-1.969zm3 0h2V20h-2v-1.969z" style="opacity:.3;fill:none;stroke:#fff;stroke-width:2;stroke-linecap:round;stroke-linejoin:round;stroke-miterlimit:4;stroke-opacity:1;stroke-dasharray:none"/><path d="M7.875 1A.87.87 0 0 0 7 1.875v1.156c-.559.06-1 .472-1 1V20.97c0 .568.504 1.03 1.125 1.03h9.75c.62 0 1.125-.462 1.125-1.031V4.03C18 3.462 17.496 3 16.875 3H9V1.875A.87.87 0 0 0 8.125 1h-.25zM9 5h6c.532 0 1 .512 1 1v3c0 .488-.468 1-1 1H9c-.532 0-1-.512-1-1V6c0-.488.468-1 1-1zm-1 7h2v2H8v-2zm3 .031h2V14h-2v-1.969zm3 0h2V14h-2v-1.969zM8 15h2v2H8v-2zm3 .031h2V17h-2v-1.969zm3 0h2V17h-2v-1.969zM8 18h2v2H8v-2zm3 .031h2V20h-2v-1.969zm3 0h2V20h-2v-1.969z" style="fill:#444;fill-opacity:1;stroke:none"/></svg>