<svg xmlns="http://www.w3.org/2000/svg" width="24" height="24"><g style="display:inline"><path d="m484.5 1149.362-4.5 4v8c0 .5.5 1 1 1h3.563l1.937 3.5c.278.5.5.5 1 .5h2c.5 0 .722 0 1-.5l1.938-3.5H496c.5 0 1-.5 1-1v-8l-4.5-4h-8zm-.5 4h9v6h-9v-6zm1 1v4h7v-4h-7zm.563 8H487v1h1v-1h1v1h1v-1h1.438l-.563 1H490v1h.344l-.344.625v-.625h-1v1h-1v-1h-1v.625l-.344-.625H487v-1h-.875l-.563-1zm2.437 2h1v-1h-1v1z" style="opacity:.3;color:#000;fill:#fff;fill-opacity:1;fill-rule:nonzero;stroke:#fff;stroke-width:2;stroke-linecap:round;stroke-linejoin:round;stroke-miterlimit:4;stroke-opacity:1;stroke-dasharray:none;stroke-dashoffset:0;marker:none;visibility:visible;display:inline;overflow:visible;enable-background:accumulate" transform="translate(-476 -1146.362)"/><path d="m484.5 1149.362-4.5 4v8c0 .5.5 1 1 1h3.563l1.937 3.5c.278.5.5.5 1 .5h2c.5 0 .722 0 1-.5l1.938-3.5H496c.5 0 1-.5 1-1v-8l-4.5-4h-8zm-.5 4h9v6h-9v-6zm1 1v4h7v-4h-7zm.563 8H487v1h1v-1h1v1h1v-1h1.438l-.563 1H490v1h.344l-.344.625v-.625h-1v1h-1v-1h-1v.625l-.344-.625H487v-1h-.875l-.563-1zm2.437 2h1v-1h-1v1z" style="color:#000;fill:#444;fill-opacity:1;fill-rule:nonzero;stroke:none;stroke-width:1;marker:none;visibility:visible;display:inline;overflow:visible;enable-background:accumulate" transform="translate(-476 -1146.362)"/></g></svg>