<svg xmlns="http://www.w3.org/2000/svg" width="24" height="24"><path d="M10 2v1H9c-1.108 0-2 .892-2 2v10c0 1.108.892 2 2 2h7c1.108 0 2-.892 2-2V5c0-1.108-.892-2-2-2h-1V2h-5zm0 3h5c.554 0 1 .446 1 1v3H9V6c0-.554.446-1 1-1zm0 8a1 1 0 1 1 0 2 1 1 0 0 1 0-2zm5 0a1 1 0 1 1 0 2 1 1 0 0 1 0-2zm-6 5-3 3h4l2-3H9zm4 0 2 3h4l-3-3h-3z" style="opacity:.3;fill:none;stroke:#fff;stroke-width:2;stroke-linecap:round;stroke-linejoin:round;stroke-miterlimit:4;stroke-opacity:1;stroke-dasharray:none"/><path d="M10 2v1H9c-1.108 0-2 .892-2 2v10c0 1.108.892 2 2 2h7c1.108 0 2-.892 2-2V5c0-1.108-.892-2-2-2h-1V2h-5zm0 3h5c.554 0 1 .446 1 1v3H9V6c0-.554.446-1 1-1zm0 8a1 1 0 1 1 0 2 1 1 0 0 1 0-2zm5 0a1 1 0 1 1 0 2 1 1 0 0 1 0-2zm-6 5-3 3h4l2-3H9zm4 0 2 3h4l-3-3h-3z" style="fill:#444;fill-opacity:1;stroke:none"/></svg>