<svg xmlns="http://www.w3.org/2000/svg" width="24" height="24"><g style="display:inline"><path d="M21-19c-.583 0-1.1.163-1.469.531C19.163-18.1 19-17.583 19-17H5l2 9h12v1H8C7-7 7-6 8-6h11c.5 0 1-.5 1-1v-10s.087-.65.219-.781c.132-.132.364-.219.781-.219h.4c.5 0 .6-.249.6-.5 0-.247-.1-.5-.6-.5H21zM17.5-6a1.5 1.5 0 1 0 0 3 1.5 1.5 0 0 0 0-3zm-8 0a1.5 1.5 0 1 0 0 3 1.5 1.5 0 0 0 0-3z" style="opacity:.3;color:#000;fill:#fff;fill-opacity:1;fill-rule:nonzero;stroke:#fff;stroke-width:2;stroke-linecap:round;stroke-linejoin:round;stroke-miterlimit:4;stroke-opacity:1;stroke-dasharray:none;stroke-dashoffset:0;marker:none;visibility:visible;display:inline;overflow:visible;enable-background:accumulate" transform="translate(-1 23)"/><path d="M21-19c-.583 0-1.1.163-1.469.531C19.163-18.1 19-17.583 19-17H5l2 9h12v1H8C7-7 7-6 8-6h11c.5 0 1-.5 1-1v-10s.087-.65.219-.781c.132-.132.364-.219.781-.219h.4c.5 0 .6-.249.6-.5 0-.247-.1-.5-.6-.5H21zM17.5-6a1.5 1.5 0 1 0 0 3 1.5 1.5 0 0 0 0-3zm-8 0a1.5 1.5 0 1 0 0 3 1.5 1.5 0 0 0 0-3z" style="color:#000;fill:#444;fill-opacity:1;stroke:none;stroke-width:2;marker:none;visibility:visible;display:inline;overflow:visible;enable-background:accumulate" transform="translate(-1 23)"/></g></svg>