<svg xmlns="http://www.w3.org/2000/svg" width="24" height="24"><path d="M7 3c-.5 0-1.008.534-1 1v4h2V5h9v13H8v-3H6v4c0 .523.476 1 1 1h11c.524 0 1-.477 1-1V4c0-.523-.476-1-1-1H7zm3.5 4c-.292-.028-.5.219-.5.5V10H3.5a1.5 1.5 0 0 0 0 3H10v2.5c.005.358.485.639.781.438l5-4.032c.264-.174.281-.619.031-.812l-5-3.969A.658.658 0 0 0 10.5 7z" style="opacity:.3;fill:none;stroke:#fff;stroke-width:2;stroke-linecap:round;stroke-linejoin:round;stroke-miterlimit:4;stroke-opacity:1;stroke-dasharray:none"/><path d="M7 3c-.5 0-1.008.534-1 1v4h2V5h9v13H8v-3H6v4c0 .523.476 1 1 1h11c.524 0 1-.477 1-1V4c0-.523-.476-1-1-1H7zm3.5 4c-.292-.028-.5.219-.5.5V10H3.5a1.5 1.5 0 0 0 0 3H10v2.5c.005.358.485.639.781.438l5-4.032c.264-.174.281-.619.031-.812l-5-3.969A.658.658 0 0 0 10.5 7z" style="fill:#444;fill-opacity:1;stroke:none"/></svg>