<svg xmlns="http://www.w3.org/2000/svg" width="24" height="24"><path d="M6 5 5 7l1 3c-1 1-1 2-1 3l-2 5h2c-.482-1.39.753-2.384 1.5-3.5L6 18h2c-1.004-1.587.4-3.4 1-5 1 0 1.5 1 4 1l-1 4h2c-.876-1.118-.076-1.849.5-3l1.5 3h2c-1.578-.91-1.583-2.332-2-4l.5-2.5-2-3L13 9H7.5L6 7l1-2H6zm12 0-2 1-1 2 2 3c.5-1 2-1 4.5-1l.5-1.5-4-2V6l1-1h-1z" style="fill:#444;fill-opacity:1;stroke:#fff;stroke-width:2;stroke-miterlimit:4;stroke-dasharray:none;stroke-linejoin:round;stroke-linecap:round;opacity:.3"/><path d="M6 5 5 7l1 3c-1 1-1 2-1 3l-2 5h2c-.482-1.39.753-2.384 1.5-3.5L6 18h2c-1.004-1.587.4-3.4 1-5 1 0 1.5 1 4 1l-1 4h2c-.876-1.118-.076-1.849.5-3l1.5 3h2c-1.578-.91-1.583-2.332-2-4l.5-2.5-2-3L13 9H7.5L6 7l1-2H6zm12 0-2 1-1 2 2 3c.5-1 2-1 4.5-1l.5-1.5-4-2V6l1-1h-1z" style="fill:#444;fill-opacity:1"/></svg>