<svg xmlns="http://www.w3.org/2000/svg" width="24" height="24"><g style="display:inline"><path d="M214 289c-.554 0-1 .446-1 1h-2c-.554 0-1 .446-1 1v6.063l-2 .937 2 4v2c1.5 0 2.5 1 3.5 1s1.5-1 3-1 2 1 3 1 2-1 3.5-1v-2l2-4-2-.938V291c0-.554-.446-1-1-1h-2c0-.554-.446-1-1-1h-5zm-2 3h9v4.125L216.5 294l-4.5 2.125V292zm-2 14c-.694 0-1.34.405-2 .625v2.031s1-.656 2-.656 2 1 3.5 1 1.974-.965 3-1c1 0 1.5 1 3 1s2.5-1 3.5-1c.702 0 2 .656 2 .656v-2.031c-.642-.247-1.343-.625-2-.625-1.5 0-2.5 1-3.5 1s-1.5-1-3-1-2 1-3 1-2-1-3.5-1z" style="opacity:.3;color:#000;fill:#fff;fill-opacity:1;fill-rule:nonzero;stroke:#fff;stroke-width:2;stroke-linecap:butt;stroke-linejoin:round;stroke-miterlimit:4;stroke-opacity:1;stroke-dasharray:none;stroke-dashoffset:0;marker:none;visibility:visible;display:inline;overflow:visible;enable-background:accumulate" transform="translate(-204 -288)"/><path d="M214 289c-.554 0-1 .446-1 1h-2c-.554 0-1 .446-1 1v6.063l-2 .937 2 4v2c1.5 0 2.5 1 3.5 1s1.5-1 3-1 2 1 3 1 2-1 3.5-1v-2l2-4-2-.938V291c0-.554-.446-1-1-1h-2c0-.554-.446-1-1-1h-5zm-2 3h9v4.125L216.5 294l-4.5 2.125V292zm-2 14c-.694 0-1.34.405-2 .625v2.031s1-.656 2-.656 2 1 3.5 1 1.974-.965 3-1c1 0 1.5 1 3 1s2.5-1 3.5-1c.702 0 2 .656 2 .656v-2.031c-.642-.247-1.343-.625-2-.625-1.5 0-2.5 1-3.5 1s-1.5-1-3-1-2 1-3 1-2-1-3.5-1z" style="color:#000;fill:#444;fill-opacity:1;fill-rule:nonzero;stroke:none;stroke-width:2;marker:none;visibility:visible;display:inline;overflow:visible;enable-background:accumulate" transform="translate(-204 -288)"/></g></svg>