<svg xmlns="http://www.w3.org/2000/svg" width="24" height="24"><g style="display:inline"><path d="M9.438 1032.362a.903.903 0 0 0-.438.094c-1.018.444-2 .906-2 .906s-2.822 2.604-3.875 3.657c-.183.183-.192.474 0 .718l2.5 2.47c.175.203.544.239.75.03l.625-.875h1v8h9v-8h1l.625.875c.206.209.575.173.75-.03l2.5-2.47c.192-.245.183-.535 0-.718-1.053-1.053-3.875-3.657-3.875-3.657s-.982-.462-2-.906c-.662-.298-.986.178-1 .438.018 1.04-1.09 2.497-2.5 2.468-1.41.03-2.518-1.429-2.5-2.468a.595.595 0 0 0-.563-.532z" style="opacity:.3;fill:#444;fill-opacity:1;stroke:#fff;stroke-width:2;stroke-linecap:round;stroke-linejoin:round;stroke-miterlimit:4;stroke-dasharray:none;marker-start:none;display:inline" transform="translate(0 -1028.362)"/><path d="M9.438 1032.362a.903.903 0 0 0-.438.094c-1.018.444-2 .906-2 .906s-2.822 2.604-3.875 3.657c-.183.183-.192.474 0 .718l2.5 2.47c.175.203.544.239.75.03l.625-.875h1v8h9v-8h1l.625.875c.206.209.575.173.75-.03l2.5-2.47c.192-.245.183-.535 0-.718-1.053-1.053-3.875-3.657-3.875-3.657s-.982-.462-2-.906c-.662-.298-.986.178-1 .438.018 1.04-1.09 2.497-2.5 2.468-1.41.03-2.518-1.429-2.5-2.468a.595.595 0 0 0-.563-.532z" style="fill:#444;fill-opacity:1;stroke:none;stroke-width:.2;marker-start:none;display:inline" transform="translate(0 -1028.362)"/></g></svg>