<svg xmlns="http://www.w3.org/2000/svg" width="24" height="24"><g style="display:inline"><path d="m768 97-7.5 7.5 1.25 1.25L769 98.5l.5.5-7.25 7.25 1.25 1.25 7.5-7.5v-2l-1-1zm-11.5 5.5L754 105l.5.5h1l1-1 1 1-3.5 3.5v2l3 3h2l4.5-4.5z" style="opacity:.3;color:#000;fill:#fff;fill-opacity:1;fill-rule:nonzero;stroke:#fff;stroke-width:2;stroke-linecap:round;stroke-linejoin:round;stroke-miterlimit:4;stroke-opacity:1;stroke-dasharray:none;stroke-dashoffset:0;marker:none;visibility:visible;display:inline;overflow:visible;enable-background:accumulate" transform="translate(-750 -94)"/><path d="m768 97-7.5 7.5 1.25 1.25L769 98.5l.5.5-7.25 7.25 1.25 1.25 7.5-7.5v-2l-1-1zm-11.5 5.5L754 105l.5.5h1l1-1 1 1-3.5 3.5v2l3 3h2l4.5-4.5z" style="color:#000;fill:#444;fill-opacity:1;fill-rule:nonzero;stroke:none;stroke-width:.99999982;marker:none;visibility:visible;display:inline;overflow:visible;enable-background:accumulate" transform="translate(-750 -94)"/></g></svg>