<svg xmlns="http://www.w3.org/2000/svg" width="24" height="24"><g style="display:inline"><path d="M480 1173.362c-1.252 0-2 .754-2 2 0 1 2 2.5 3 3.5 2 2 5.302 3.802 8.5 7l3 3-.5.5c0 .5.5 1 1 1l1-1 1-1c0-.5-.5-1-1-1l-.5.5-3-3c-2.863-2.863-5-6.5-7-8.5-1-1-2.5-3-3.5-3zm3.5 10a1.5 1.5 0 1 0 0 3 1.5 1.5 0 0 0 0-3z" style="opacity:.3;color:#000;fill:none;stroke:#fff;stroke-width:2;stroke-linecap:round;stroke-linejoin:round;stroke-miterlimit:4;stroke-opacity:1;stroke-dasharray:none;stroke-dashoffset:0;marker:none;visibility:visible;display:inline;overflow:visible;enable-background:accumulate" transform="translate(-474 -1170.362)"/><path d="M480 1173.362c-1.252 0-2 .754-2 2 0 1 2 2.5 3 3.5 2 2 5.302 3.802 8.5 7l3 3-.5.5c0 .5.5 1 1 1l1-1 1-1c0-.5-.5-1-1-1l-.5.5-3-3c-2.863-2.863-5-6.5-7-8.5-1-1-2.5-3-3.5-3zm3.5 10a1.5 1.5 0 1 0 0 3 1.5 1.5 0 0 0 0-3z" style="color:#000;fill:#444;fill-opacity:1;fill-rule:nonzero;stroke:none;stroke-width:2;marker:none;visibility:visible;display:inline;overflow:visible;enable-background:accumulate" transform="translate(-474 -1170.362)"/></g></svg>