<svg xmlns="http://www.w3.org/2000/svg" width="24" height="24"><g style="display:inline"><path d="M252.5 1148.362c-3.038 0-5.5 1.12-5.5 2.5v3c0 1.38 2.462 2.5 5.5 2.5s5.5-1.12 5.5-2.5v-3c0-1.38-2.462-2.5-5.5-2.5zm-5.5 9v7.5c0 1.38 2.462 2.5 5.5 2.5s5.5-1.12 5.5-2.5v-7.5c0-1-.5-1-1-.5-.839.894-2.228 1.5-4.5 1.5-2.227 0-3.635-.635-4.5-1.5-.5-.5-1-.5-1 .5z" style="opacity:.3;color:#000;fill:#fff;fill-opacity:1;fill-rule:nonzero;stroke:#fff;stroke-width:2;stroke-linecap:round;stroke-linejoin:round;stroke-miterlimit:4;stroke-opacity:1;stroke-dasharray:none;stroke-dashoffset:0;marker:none;visibility:visible;display:inline;overflow:visible;enable-background:accumulate" transform="translate(-240 -1146.362)"/><path d="M252.5 1148.362c-3.038 0-5.5 1.12-5.5 2.5v3c0 1.38 2.462 2.5 5.5 2.5s5.5-1.12 5.5-2.5v-3c0-1.38-2.462-2.5-5.5-2.5zm-5.5 9v7.5c0 1.38 2.462 2.5 5.5 2.5s5.5-1.12 5.5-2.5v-7.5c0-1-.5-1-1-.5-.839.894-2.228 1.5-4.5 1.5-2.227 0-3.635-.635-4.5-1.5-.5-.5-1-.5-1 .5zm3 3c.752.176 1.597.281 2.5.281s1.748-.105 2.5-.28v4c-.752.175-1.597.28-2.5.28s-1.748-.105-2.5-.28z" style="color:#000;fill:#444;fill-opacity:1;stroke:none;stroke-width:2;marker:none;visibility:visible;display:inline;overflow:visible;enable-background:accumulate" transform="translate(-240 -1146.362)"/></g></svg>