<svg xmlns="http://www.w3.org/2000/svg" width="24" height="24"><g style="display:inline"><path d="M637.5 1245.362c-.5 0-.783.197-1 .5l-2.5 3.5h2v3h5v-3h2l-2.5-3.5c-.217-.303-.5-.5-1-.5zm12.5 0v2h-4c-.5 0-1 .5-1 1v4h6v-7zm-14 9c-.5 0-1 .5-1 1v7h2v-2h1v2h4v-7c0-.5-.5-1-1-1zm12-1-3 4h1.5l-1.5 3h2v2h2v-2h2l-1.5-3h1.5z" style="opacity:.3;color:#000;fill:#fff;fill-opacity:1;fill-rule:nonzero;stroke:#fff;stroke-width:2;stroke-linecap:round;stroke-linejoin:round;stroke-miterlimit:4;stroke-opacity:1;stroke-dasharray:none;stroke-dashoffset:0;marker:none;visibility:visible;display:inline;overflow:visible;enable-background:accumulate" transform="translate(-630 -1242.362)"/><path d="M757.5 195c-.5 0-.783.197-1 .5L754 199h2v3h5v-3h2l-2.5-3.5c-.217-.303-.5-.5-1-.5h-2zm12.5 0v2h-4c-.5 0-1 .5-1 1v4h6v-7h-1zm-2 8-3 4h1.5l-1.5 3h2v2h2v-2h2l-1.5-3h1.5l-3-4zm-12 1c-.5 0-1 .5-1 1v7h2v-2h1v2h4v-7c0-.5-.5-1-1-1h-5zm1 2h1v1h-1v-1zm2 0h1v1h-1v-1zm-2 2h1v1h-1v-1zm2 0h1v1h-1v-1zm0 2h1v1h-1v-1z" style="color:#000;fill:#444;fill-opacity:1;fill-rule:nonzero;stroke:none;stroke-width:.46545455;marker:none;visibility:visible;display:inline;overflow:visible;enable-background:accumulate" transform="translate(-750 -192)"/></g></svg>