<svg xmlns="http://www.w3.org/2000/svg" xml:space="preserve" width="24" height="24" viewBox="-402.5 403.5 24 24"><g style="opacity:.3"><path d="M-386.5 415.5h-8s2.92 7.869 3 8c.171.457.625 1 1 1s.829-.543 1-1c.08-.131 3-8 3-8zm-9.407-3.226c.047.206.106.407.188.598l.001.003c.181.42.441.799.762 1.115h4.912a3.487 3.487 0 0 0-.456-5.356c-.074-.052-.156-.093-.234-.14a3.452 3.452 0 0 0-.299-.162 3.393 3.393 0 0 0-.62-.217c-.071-.018-.142-.038-.214-.052a3.575 3.575 0 0 0-.633-.063 3.5 3.5 0 0 0-3.428 4.21c.005.022.015.042.021.064zm8.407-.774c0 .911-.263 1.754-.69 2.49h2.146A3.487 3.487 0 0 0-385 411.5a3.5 3.5 0 0 0-3.5-3.5c-.14 0-.276.017-.412.032a4.978 4.978 0 0 1 1.412 3.468z" style="fill:#fff;stroke:#fff;stroke-width:2;stroke-miterlimit:10"/></g><path d="M10 4.5A3.5 3.5 0 0 0 6.5 8c0 .243.015.489.063.719.005.022.025.04.03.062a3.531 3.531 0 0 0 .938 1.719h4.938A3.5 3.5 0 0 0 13.5 8 3.507 3.507 0 0 0 12 5.125c-.074-.052-.14-.078-.219-.125-.098-.058-.21-.108-.312-.156-.08-.037-.167-.093-.25-.125-.122-.046-.247-.062-.375-.094-.071-.018-.147-.048-.219-.063A3.485 3.485 0 0 0 10 4.5zm4 0c-.14 0-.27.016-.406.031A4.975 4.975 0 0 1 15 8c0 .911-.26 1.764-.688 2.5h2.157A3.5 3.5 0 0 0 17.5 8 3.5 3.5 0 0 0 14 4.5zM8 12s2.92 7.869 3 8c.171.457.625 1 1 1s.829-.543 1-1c.08-.131 3-8 3-8H8z" style="fill:#444;fill-opacity:1" transform="translate(-402.5 403.5)"/></svg>