<svg xmlns="http://www.w3.org/2000/svg" width="24" height="24"><g style="display:inline"><path d="M489.125 1223.362c-.158 0-.434.093-.563.156l-4 1.938c-.532.252-.726 1.027-.375 1.5l1.22 1.656-4.72 3.656c1.13.23 1.977.938 2.813.938 1 0 1.5-1 3-1s2 1 3 1c.413 0 .833-.175 1.281-.375l-4.219-6.125 3.032-1.531c.602-.301.562-.817.5-1.125-.06-.292-.42-.688-.969-.688zm1.875 3a2 2 0 1 0 0 4 2 2 0 0 0 0-4zm-11 8c-.694 0-1.34.405-2 .625v2.031s1-.655 2-.656c1 0 2 1 3.5 1s1.974-.965 3-1c1 0 1.5 1 3 1s2.5-1 3.5-1c.702 0 2 .656 2 .656v-2.03c-.642-.248-1.343-.626-2-.626-1.5 0-2.5 1-3.5 1s-1.5-1-3-1-2 1-3 1-2-1-3.5-1z" style="opacity:.3;color:#000;fill:none;stroke:#fff;stroke-width:2;stroke-linecap:round;stroke-linejoin:round;stroke-miterlimit:4;stroke-opacity:1;stroke-dasharray:none;stroke-dashoffset:0;marker:none;visibility:visible;display:inline;overflow:visible;enable-background:accumulate" transform="translate(-474 -1218.362)"/><path d="M489.125 1223.362c-.158 0-.434.093-.563.156l-4 1.938c-.532.252-.726 1.027-.375 1.5l1.22 1.656-4.72 3.656c1.13.23 1.977.938 2.813.938 1 0 1.5-1 3-1s2 1 3 1c.413 0 .833-.175 1.281-.375l-4.219-6.125 3.032-1.531c.602-.301.562-.817.5-1.125-.06-.292-.42-.688-.969-.688zm1.875 3a2 2 0 1 0 0 4 2 2 0 0 0 0-4zm-11 8c-.694 0-1.34.405-2 .625v2.031s1-.655 2-.656c1 0 2 1 3.5 1s1.974-.965 3-1c1 0 1.5 1 3 1s2.5-1 3.5-1c.702 0 2 .656 2 .656v-2.03c-.642-.248-1.343-.626-2-.626-1.5 0-2.5 1-3.5 1s-1.5-1-3-1-2 1-3 1-2-1-3.5-1z" style="color:#000;fill:#444;fill-opacity:1;fill-rule:nonzero;stroke:none;stroke-width:2;marker:none;visibility:visible;display:inline;overflow:visible;enable-background:accumulate" transform="translate(-474 -1218.362)"/></g></svg>