<svg xmlns="http://www.w3.org/2000/svg" width="24" height="24"><g style="display:inline"><path d="M18.5 1126.362c-3.074 0-4.5 2-4.5 5v9c-.5 0-1 .5-1 1v1h11v-1c0-.5-.5-1-1-1v-9c0-3-1.5-5-4.5-5z" style="opacity:.3;color:#000;fill:#fff;fill-opacity:1;fill-rule:nonzero;stroke:#fff;stroke-width:2;stroke-linecap:butt;stroke-linejoin:round;stroke-miterlimit:4;stroke-opacity:1;stroke-dasharray:none;stroke-dashoffset:0;marker:none;visibility:visible;display:inline;overflow:visible;enable-background:accumulate" transform="translate(-6 -1122.362)"/><path d="M18.5 1126.362c-3.074 0-4.5 2-4.5 5v9c-.5 0-1 .5-1 1v1h11v-1c0-.5-.5-1-1-1v-9c0-3-1.5-5-4.5-5z" style="color:#000;fill:#444;fill-opacity:1;stroke:none;stroke-width:2;marker:none;visibility:visible;display:inline;overflow:visible;enable-background:accumulate" transform="translate(-6 -1122.362)"/></g></svg>