<svg xmlns="http://www.w3.org/2000/svg" width="24" height="24"><g style="display:inline"><path d="M328.5 1268.362c-.277 0-.5.223-.5.5v1.5h-4c-.554 0-1 .446-1 1s.446 1 1 1h13c.554 0 1-.446 1-1s-.446-1-1-1h-4v-1.5c0-.277-.223-.5-.5-.5zm.5 1h3v1h-3zm-5 4c-.554 0-1.075.454-.984 1l1.984 12c.09.547.446 1 1 1h9c.554 0 .909-.453 1-1l1.984-12c.09-.546-.43-1-.984-1z" style="opacity:.3;color:#000;fill:none;stroke:#fff;stroke-width:2;stroke-linecap:round;stroke-linejoin:round;stroke-miterlimit:4;stroke-opacity:1;stroke-dasharray:none;stroke-dashoffset:0;marker:none;visibility:visible;display:inline;overflow:visible;enable-background:accumulate" transform="translate(-318 -1266.362)"/><path d="M328.5 1268.362c-.277 0-.5.223-.5.5v1.5h-4c-.554 0-1 .446-1 1s.446 1 1 1h13c.554 0 1-.446 1-1s-.446-1-1-1h-4v-1.5c0-.277-.223-.5-.5-.5zm.5 1h3v1h-3zm-5 4c-.554 0-1.075.454-.984 1l1.984 12c.09.547.446 1 1 1h9c.554 0 .909-.453 1-1l1.984-12c.09-.546-.43-1-.984-1z" style="color:#000;fill:#444;fill-opacity:1;fill-rule:nonzero;stroke:none;stroke-width:2;marker:none;visibility:visible;display:inline;overflow:visible;enable-background:accumulate" transform="translate(-318 -1266.362)"/></g></svg>