<svg xmlns="http://www.w3.org/2000/svg" width="24" height="24"><g style="display:inline"><path d="m329 1317.862-4.5 4.5h4.5v-4.5zm7 .5c-1 0-1.326.326-2 1l-8 8c-.5.5-1 1-1 2v1.5c0 1 .5 1.5 1 2l.563.563 3.5-3.5-.563-.563c-.5-.5 0-1 0-1l5.5-5.5s.5-.5 1 0l.563.563 3.5-3.5-.563-.563c-.5-.5-1-1-2-1H336zm4.438 1.938-3.5 3.5.562.562c.354.354 1.146.354 1.5 0l2-2c.354-.354.354-1.146 0-1.5l-.563-.562zm-10 10-3.5 3.5.562.562c.354.354 1.146.354 1.5 0l2-2c.354-.353.354-1.146 0-1.5l-.563-.562z" style="opacity:.3;color:#000;fill:#444;fill-opacity:1;stroke:#fff;stroke-width:2;stroke-linejoin:round;stroke-miterlimit:4;stroke-dasharray:none;marker:none;visibility:visible;display:inline;overflow:visible;enable-background:accumulate" transform="translate(-320 -1314.362)"/><path d="m447 291.5-4.5 4.5h4.5v-4.5zm7 .5c-1 0-1.326.326-2 1l-8 8c-.5.5-1 1-1 2v1.5c0 1 .5 1.5 1 2l.563.563 3.5-3.5-.563-.563c-.5-.5 0-1 0-1l5.5-5.5s.5-.5 1 0l.563.563 3.5-3.5-.563-.563c-.5-.5-1-1-2-1H454zm4.438 1.938-3.5 3.5.562.562c.354.353 1.146.354 1.5 0l2-2c.354-.354.354-1.147 0-1.5l-.563-.563zm-10 10-3.5 3.5.562.562c.354.354 1.146.353 1.5 0l2-2c.354-.354.354-1.147 0-1.5l-.563-.563z" style="color:#000;fill:#444;fill-opacity:1;stroke:none;stroke-width:1;marker:none;visibility:visible;display:inline;overflow:visible;enable-background:accumulate" transform="translate(-438 -288)"/></g></svg>