<svg xmlns="http://www.w3.org/2000/svg" width="24" height="24"><g style="display:inline"><path d="M6 1008.362c-.554 0-1 .446-1 1v13c0 .554.446 1 1 1s1-.446 1-1v-2h3v2c0 .554.446 1 1 1s1-.446 1-1v-2h3v2c0 .554.446 1 1 1s1-.446 1-1v-2h3v2c0 .554.446 1 1 1s1-.446 1-1v-13c0-.554-.446-1-1-1s-1 .446-1 1v2h-3v-2c0-.554-.446-1-1-1s-1 .446-1 1v2h-3v-2c0-.554-.446-1-1-1s-1 .446-1 1v2H7v-2c0-.554-.446-1-1-1zm1 5h3v5H7zm5 0h3v5h-3zm5 0h3v5h-3z" style="opacity:.3;color:#000;fill:none;stroke:#fff;stroke-width:2;stroke-linecap:round;stroke-linejoin:round;stroke-miterlimit:4;stroke-opacity:1;stroke-dasharray:none;stroke-dashoffset:0;marker:none;visibility:visible;display:inline;overflow:visible;enable-background:accumulate" transform="translate(-1 -1004.362)"/><path d="M6 1008.362c-.554 0-1 .446-1 1v13c0 .554.446 1 1 1s1-.446 1-1v-2h3v2c0 .554.446 1 1 1s1-.446 1-1v-2h3v2c0 .554.446 1 1 1s1-.446 1-1v-2h3v2c0 .554.446 1 1 1s1-.446 1-1v-13c0-.554-.446-1-1-1s-1 .446-1 1v2h-3v-2c0-.554-.446-1-1-1s-1 .446-1 1v2h-3v-2c0-.554-.446-1-1-1s-1 .446-1 1v2H7v-2c0-.554-.446-1-1-1zm1 5h3v5H7zm5 0h3v5h-3zm5 0h3v5h-3z" style="color:#000;fill:#444;fill-opacity:1;stroke:none;stroke-width:1;marker:none;visibility:visible;display:inline;overflow:visible;enable-background:accumulate" transform="translate(-1 -1004.362)"/></g></svg>