<svg xmlns="http://www.w3.org/2000/svg" width="24" height="24"><path d="M16 1032.362s-.5 0-.5.5.5.5.5.5h1.5l.719 2.813-3.469 4.937c-.685.736-1.014 1.25-1.75 1.25h-2v-5h1c.554 0 1-.446 1-1s-.446-1-1-1H5c-.554 0-1 .446-1 1s.446 1 1 1h.5a.499.499 0 1 1 0 1H5c-.5 0-1 .5-1 1v5h9c1.63 0 2.619-1.071 3.25-1.75.717-.771 1.146-1.25 1.75-1.25h4v-.5c0-.5-.813-1-1-1.5l-1-4c.554 0 1-.446 1-1v-1c0-.554-.446-1-1-1zm3.5 10a2.5 2.5 0 1 0 0 5 2.5 2.5 0 0 0 0-5zm-14.438 3c.234 1.14 1.23 2 2.438 2 1.208 0 2.204-.86 2.438-2z" style="opacity:.3;color:#000;fill:none;stroke:#fff;stroke-width:2;stroke-linecap:butt;stroke-linejoin:miter;stroke-miterlimit:4;stroke-opacity:1;stroke-dasharray:none;stroke-dashoffset:0;marker:none;visibility:visible;display:inline;overflow:visible;enable-background:accumulate" transform="translate(0 -1028.362)"/><path d="M16 1032.362s-.5 0-.5.5.5.5.5.5h1.5l.719 2.813-3.469 4.937c-.685.736-1.014 1.25-1.75 1.25h-2v-5h1c.554 0 1-.446 1-1s-.446-1-1-1H5c-.554 0-1 .446-1 1s.446 1 1 1h.5a.499.499 0 1 1 0 1H5c-.5 0-1 .5-1 1v5h9c1.63 0 2.619-1.071 3.25-1.75.717-.771 1.146-1.25 1.75-1.25h4v-.5c0-.5-.813-1-1-1.5l-1-4c.554 0 1-.446 1-1v-1c0-.554-.446-1-1-1zm3.5 10a2.5 2.5 0 1 0 0 5 2.5 2.5 0 0 0 0-5zm-14.438 3c.234 1.14 1.23 2 2.438 2 1.208 0 2.204-.86 2.438-2z" style="color:#000;fill:#444;fill-opacity:1;fill-rule:nonzero;stroke:none;stroke-width:1;marker:none;visibility:visible;display:inline;overflow:visible;enable-background:accumulate" transform="translate(0 -1028.362)"/></svg>