<svg xmlns="http://www.w3.org/2000/svg" width="24" height="24"><path d="m13 1030.362-2.5 1.5c-.514.308-.5 1-.5 1v3.5H9v2l1 1v1l-1 9h8l-1-9v-1l1-1v-2h-1v-3.5s.005-.697-.5-1z" style="opacity:.3;color:#000;fill:#fff;fill-opacity:1;fill-rule:nonzero;stroke:#fff;stroke-width:2;marker:none;visibility:visible;display:inline;overflow:visible;enable-background:accumulate" transform="translate(0 -1028.362)"/><path d="m13 1030.362-2.5 1.5c-.514.308-.5 1-.5 1v3.5H9v2l1 1v1l-1 9h8l-1-9v-1l1-1v-2h-1v-3.5s.005-.697-.5-1zm1 4v2h-2v-2s0-1 1-1 1 1 1 1z" style="color:#000;fill:#444;fill-opacity:1;fill-rule:nonzero;stroke:none;stroke-width:2;marker:none;visibility:visible;display:inline;overflow:visible;enable-background:accumulate" transform="translate(0 -1028.362)"/></svg>