<svg xmlns="http://www.w3.org/2000/svg" width="24" height="24"><path d="M9 2 5 6v10c0 .554.446 1 1 1h13c.554 0 1-.446 1-1V6l-4-4H9zm1 2h5v2h-5V4zM7 7h11v4H7V7zm1 6a1 1 0 1 1 0 2 1 1 0 0 1 0-2zm9 0a1 1 0 1 1 0 2 1 1 0 0 1 0-2zm-9 5-3 3h4l2-3H8zm6 0 2 3h4l-3-3h-3z" style="opacity:.3;fill:none;stroke:#fff;stroke-width:2;stroke-linecap:round;stroke-linejoin:round;stroke-miterlimit:4;stroke-opacity:1;stroke-dasharray:none"/><path d="M9 2 5 6v10c0 .554.446 1 1 1h13c.554 0 1-.446 1-1V6l-4-4H9zm1 2h5v2h-5V4zM7 7h11v4H7V7zm1 6a1 1 0 1 1 0 2 1 1 0 0 1 0-2zm9 0a1 1 0 1 1 0 2 1 1 0 0 1 0-2zm-9 5-3 3h4l2-3H8zm6 0 2 3h4l-3-3h-3z" style="fill:#444;fill-opacity:1;stroke:none"/></svg>