<svg xmlns="http://www.w3.org/2000/svg" width="24" height="24"><g style="display:inline"><g style="font-size:14px;font-style:normal;font-variant:normal;font-weight:700;font-stretch:normal;text-indent:0;text-align:center;text-decoration:none;line-height:125%;letter-spacing:normal;word-spacing:normal;text-transform:none;direction:ltr;block-progression:tb;writing-mode:lr-tb;text-anchor:middle;color:#000;fill:#444;fill-opacity:1;fill-rule:nonzero;stroke:none;stroke-width:2;marker:none;visibility:visible;display:inline;overflow:visible;enable-background:accumulate;font-family:Open Sans;-inkscape-font-specification:Open Sans Bold"><path d="M8.871 1025.077h.598c.558 0 .976-.11 1.254-.328.277-.223.416-.545.416-.967 0-.426-.118-.74-.352-.943-.23-.203-.594-.305-1.09-.305h-.826v2.543m4.102-1.36c0 .923-.29 1.628-.868 2.116-.574.488-1.392.732-2.455.732h-.779v3.047H7.055v-8.566H9.79c1.04 0 1.828.224 2.367.674.543.445.815 1.11.815 1.998" style="font-size:12px;opacity:.3;color:#000;fill:#fff;fill-opacity:1;fill-rule:nonzero;stroke:#fff;stroke-width:1.5;stroke-linecap:butt;stroke-linejoin:round;stroke-miterlimit:4;stroke-opacity:1;stroke-dasharray:none;stroke-dashoffset:0;marker:none;visibility:visible;display:inline;overflow:visible;enable-background:accumulate" transform="translate(0 -1355.15) scale(1.33333)"/><path d="M8.871 1025.077h.598c.558 0 .976-.11 1.254-.328.277-.223.416-.545.416-.967 0-.426-.118-.74-.352-.943-.23-.203-.594-.305-1.09-.305h-.826v2.543m4.102-1.36c0 .923-.29 1.628-.868 2.116-.574.488-1.392.732-2.455.732h-.779v3.047H7.055v-8.566H9.79c1.04 0 1.828.224 2.367.674.543.445.815 1.11.815 1.998" style="font-size:12px;fill:#444;fill-opacity:1;marker:none" transform="translate(0 -1355.15) scale(1.33333)"/></g></g></svg>