<svg xmlns="http://www.w3.org/2000/svg" width="24" height="24"><g style="display:inline"><path d="m638 1296.362-3 1.5c-.511.256-1 1-1 1.5v8h3v-3h2v3h3v-8c0-.5-.502-1.25-1-1.5l-3-1.5zm9 2-3 1.5c-.511.256-1 1-1 1.5v8h3v-3h2v3h3v-8c0-.5-.502-1.25-1-1.5l-3-1.5zm-12 2h2v1h-2v-1zm4 0h2v1h-2v-1zm-4 2h2v1h-2v-1zm4 0h2v1h-2v-1zm5 0h2v1h-2v-1zm4 0h2v1h-2v-1zm-4 2h2v1h-2v-1zm4 0h2v1h-2v-1z" style="opacity:.3;color:#000;fill:#fff;fill-opacity:1;fill-rule:nonzero;stroke:#fff;stroke-width:2;stroke-linecap:round;stroke-linejoin:round;stroke-miterlimit:4;stroke-opacity:1;stroke-dasharray:none;stroke-dashoffset:0;marker:none;visibility:visible;display:inline;overflow:visible;enable-background:accumulate" transform="translate(-630 -1290.362)"/><path d="m638 1296.362-3 1.5c-.511.256-1 1-1 1.5v8h3v-3h2v3h3v-8c0-.5-.502-1.25-1-1.5l-3-1.5zm9 2-3 1.5c-.511.256-1 1-1 1.5v8h3v-3h2v3h3v-8c0-.5-.502-1.25-1-1.5l-3-1.5zm-12 2h2v1h-2v-1zm4 0h2v1h-2v-1zm-4 2h2v1h-2v-1zm4 0h2v1h-2v-1zm5 0h2v1h-2v-1zm4 0h2v1h-2v-1zm-4 2h2v1h-2v-1zm4 0h2v1h-2v-1z" style="color:#000;fill:#444;fill-opacity:1;fill-rule:nonzero;stroke:none;stroke-width:.46545455;marker:none;visibility:visible;display:inline;overflow:visible;enable-background:accumulate" transform="translate(-630 -1290.362)"/></g></svg>