<svg xmlns="http://www.w3.org/2000/svg" width="24" height="24"><g style="display:inline"><path d="M12.5 7 3 12l9.5 5 5.5-2.781V18c0 2 2 2 2 2v-1s-1-.057-1-1v-4.344L22 12zM8 16v2c0 .497.325 1.163 1 1.5l3.5 1.5 3-1.5c.675-.337 1.547-1.006 1.5-1.5v-2l-4.5 2.188z" style="opacity:.3;color:#000;fill:none;stroke:#fff;stroke-width:2;stroke-linecap:round;stroke-linejoin:round;stroke-miterlimit:4;stroke-opacity:1;stroke-dasharray:none;stroke-dashoffset:0;marker:none;visibility:visible;display:inline;overflow:visible;enable-background:accumulate" transform="translate(0 -2)"/><path d="M12.5 7 3 12l9.5 5 5.5-2.781V18c0 2 2 2 2 2v-1s-1-.057-1-1v-4.344L22 12zM8 16v2c0 .497.325 1.163 1 1.5l3.5 1.5 3-1.5c.675-.337 1.547-1.006 1.5-1.5v-2l-4.5 2.188z" style="color:#000;fill:#444;fill-opacity:1;stroke:none;stroke-width:2;marker:none;visibility:visible;display:inline;overflow:visible;enable-background:accumulate" transform="translate(0 -2)"/></g></svg>