<svg xmlns="http://www.w3.org/2000/svg" width="24" height="24"><g style="display:inline"><path d="M18.5 1077.362a8.5 8.5 0 1 0 6.531 13.938 6.447 6.447 0 0 1-3.531 1.062 6.5 6.5 0 1 1 0-13c1.306 0 2.512.4 3.531 1.063a8.486 8.486 0 0 0-6.531-3.063zm5 4-1 3H19l3 2-1.5 3.5 3-2 3 2-1.5-3.5 3-2h-3.5l-1-3z" style="opacity:.3;color:#000;fill:#fff;fill-opacity:1;fill-rule:nonzero;stroke:#fff;stroke-width:2;stroke-linecap:butt;stroke-linejoin:round;stroke-miterlimit:4;stroke-opacity:1;stroke-dasharray:none;stroke-dashoffset:0;marker:none;visibility:visible;display:inline;overflow:visible;enable-background:accumulate" transform="translate(-6 -1074.362)"/><path d="M18.5 1077.362a8.5 8.5 0 1 0 6.531 13.938 6.447 6.447 0 0 1-3.531 1.062 6.5 6.5 0 1 1 0-13c1.306 0 2.512.4 3.531 1.063a8.486 8.486 0 0 0-6.531-3.063zm5 4-1 3H19l3 2-1.5 3.5 3-2 3 2-1.5-3.5 3-2h-3.5l-1-3z" style="color:#000;fill:#444;fill-opacity:1;fill-rule:nonzero;stroke:none;stroke-width:2;marker:none;visibility:visible;display:inline;overflow:visible;enable-background:accumulate" transform="translate(-6 -1074.362)"/></g></svg>