<svg xmlns="http://www.w3.org/2000/svg" width="24" height="24"><g style="display:inline"><path d="M484 1125.362a6 6 0 0 0 0 12h5l4.5 4.5c.316.316.506.5.906.5.125 0 .281 0 .438-.156.156-.156.156-.312.156-.437 0-.4-.218-.625-.5-.907l-4.5-4.5v-5a6 6 0 0 0-6-6zm5 8v3h-3zm-9.5 4a1.5 1.5 0 1 0 0 3 1.5 1.5 0 0 0 0-3z" style="opacity:.3;color:#000;fill:#fff;fill-opacity:1;fill-rule:nonzero;stroke:#fff;stroke-width:2;stroke-linecap:butt;stroke-linejoin:miter;stroke-miterlimit:4;stroke-opacity:1;stroke-dasharray:none;stroke-dashoffset:0;marker:none;visibility:visible;display:inline;overflow:visible;enable-background:accumulate" transform="translate(-474 -1122.362)"/><path d="M484 1125.362a6 6 0 0 0 0 12h5l4.5 4.5c.316.316.506.5.906.5.125 0 .281 0 .438-.156.156-.156.156-.312.156-.437 0-.4-.218-.625-.5-.907l-4.5-4.5v-5a6 6 0 0 0-6-6zm5 8v3h-3zm-9.5 4a1.5 1.5 0 1 0 0 3 1.5 1.5 0 0 0 0-3z" style="color:#000;fill:#444;fill-opacity:1;fill-rule:nonzero;stroke:none;stroke-width:2;marker:none;visibility:visible;display:inline;overflow:visible;enable-background:accumulate" transform="translate(-474 -1122.362)"/></g></svg>