<svg xmlns="http://www.w3.org/2000/svg" width="24" height="24"><g style="display:inline"><path d="m11 1006.362-2 1-2 1v15c0 .5.5 1 1 1s1-.5 1-1v-9l2-1c2-1 4.211 2.895 6 2l3-1.5v-7l-3 1.5c-1.789.895-4-3-6-2z" style="opacity:.3;color:#000;fill:none;stroke:#fff;stroke-width:2;stroke-linecap:round;stroke-linejoin:round;stroke-miterlimit:4;stroke-opacity:1;stroke-dasharray:none;stroke-dashoffset:0;marker:none;visibility:visible;display:inline;overflow:visible;enable-background:accumulate" transform="translate(-1 -1004.362)"/><path d="m11 1006.362-2 1-2 1v15c0 .5.5 1 1 1s1-.5 1-1v-9l2-1c2-1 4.211 2.895 6 2l3-1.5v-7l-3 1.5c-1.789.895-4-3-6-2z" style="color:#000;fill:#444;fill-opacity:1;stroke:none;stroke-width:2;marker:none;visibility:visible;display:inline;overflow:visible;enable-background:accumulate" transform="translate(-1 -1004.362)"/></g></svg>