<svg xmlns="http://www.w3.org/2000/svg" width="24" height="24"><g style="display:inline"><path d="m96.5 1216.362-6.5 2v2l6.5-2 6.5 2v-2l-6.5-2zm-3.094 4.25v11.406h2.406v-4.062h1.063c1.417 0 2.516-.318 3.281-.969.771-.65 1.125-1.583 1.125-2.812 0-1.183-.338-2.063-1.062-2.656-.719-.6-1.771-.907-3.156-.907h-3.657zm2.406 1.969h1.126c.66 0 1.13.135 1.437.406.313.271.469.714.469 1.281 0 .563-.193.985-.563 1.282-.37.291-.911.437-1.656.437h-.813v-3.406z" style="font-size:25.21008492px;font-style:normal;font-variant:normal;font-weight:700;font-stretch:normal;text-indent:0;text-align:start;text-decoration:none;line-height:125%;letter-spacing:0;word-spacing:0;text-transform:none;direction:ltr;block-progression:tb;writing-mode:lr-tb;text-anchor:start;baseline-shift:baseline;opacity:.3;color:#000;fill:#fff;fill-opacity:1;fill-rule:nonzero;stroke:#fff;stroke-width:1.99999988;stroke-linecap:butt;stroke-linejoin:round;stroke-miterlimit:4;stroke-opacity:1;stroke-dasharray:none;stroke-dashoffset:0;marker:none;visibility:visible;display:inline;overflow:visible;enable-background:accumulate;font-family:Helvetica Neue;-inkscape-font-specification:Helvetica Neue Bold" transform="translate(-84 -1212.362)"/><path d="m96.5 1216.362-6.5 2v2l6.5-2 6.5 2v-2l-6.5-2zm-3.094 4.25v11.406h2.406v-4.062h1.063c1.417 0 2.516-.318 3.281-.969.771-.65 1.125-1.583 1.125-2.812 0-1.183-.338-2.063-1.062-2.656-.719-.6-1.771-.907-3.156-.907h-3.657zm2.406 1.969h1.126c.66 0 1.13.135 1.437.406.313.271.469.714.469 1.281 0 .563-.193.985-.563 1.282-.37.291-.911.437-1.656.437h-.813v-3.406z" style="font-size:25.21008492px;font-style:normal;font-variant:normal;font-weight:700;font-stretch:normal;text-indent:0;text-align:start;text-decoration:none;line-height:125%;letter-spacing:0;word-spacing:0;text-transform:none;direction:ltr;block-progression:tb;writing-mode:lr-tb;text-anchor:start;baseline-shift:baseline;color:#000;fill:#444;fill-opacity:1;fill-rule:nonzero;stroke:none;stroke-width:2;marker:none;visibility:visible;display:inline;overflow:visible;enable-background:accumulate;font-family:Helvetica Neue;-inkscape-font-specification:Helvetica Neue Bold" transform="translate(-84 -1212.362)"/></g></svg>