<svg xmlns="http://www.w3.org/2000/svg" width="24" height="24"><g style="display:inline"><path d="M101.5 1365.362a3.5 3.5 0 0 0-3.5 3.5c0 .439.103.863.25 1.25l-8.25 8.25v-4c0-1.5 1-2 1-2l1 1v-4c0-1-.5-.5-1 0-3 3-3 2.973-3 5v7c0 .5.5 1 1 1h7c2.028 0 3.667-1.667 5-3 .5-.5 1-.987 0-1h-4l1 1s-.5 1-2 1h-4l8.25-8.25c.387.147.812.25 1.25.25a3.5 3.5 0 1 0 0-7zm0 2a1.5 1.5 0 1 1 0 3 1.5 1.5 0 0 1 0-3z" style="opacity:.3;color:#000;fill:#fff;fill-opacity:1;fill-rule:nonzero;stroke:#fff;stroke-width:2;stroke-linecap:butt;stroke-linejoin:round;stroke-miterlimit:4;stroke-opacity:1;stroke-dasharray:none;stroke-dashoffset:0;marker:none;visibility:visible;display:inline;overflow:visible;enable-background:accumulate" transform="translate(-84 -1362.362)"/><path d="M101.5 1365.362a3.5 3.5 0 0 0-3.5 3.5c0 .439.103.863.25 1.25l-8.25 8.25v-4c0-1.5 1-2 1-2l1 1v-4c0-1-.5-.5-1 0-3 3-3 2.973-3 5v7c0 .5.5 1 1 1h7c2.028 0 3.667-1.667 5-3 .5-.5 1-.987 0-1h-4l1 1s-.5 1-2 1h-4l8.25-8.25c.387.147.812.25 1.25.25a3.5 3.5 0 1 0 0-7zm0 2a1.5 1.5 0 1 1 0 3 1.5 1.5 0 0 1 0-3z" style="color:#000;fill:#444;fill-opacity:1;fill-rule:nonzero;stroke:none;stroke-width:2;marker:none;visibility:visible;display:inline;overflow:visible;enable-background:accumulate" transform="translate(-84 -1362.362)"/></g></svg>