<svg xmlns="http://www.w3.org/2000/svg" width="24" height="24"><g style="display:inline"><path d="M91.5 1294.362a.499.499 0 1 0 0 1h4l-.5 3v1l-7 2v2h7v4l-2.5 1v1h8v-1l-2.5-1v-3.999h7v-2l-7-2v-1l-.5-3h4a.499.499 0 1 0 0-1z" style="opacity:.3;color:#000;fill:#fff;fill-opacity:1;fill-rule:nonzero;stroke:#fff;stroke-width:2;stroke-linecap:butt;stroke-linejoin:round;stroke-miterlimit:4;stroke-opacity:1;stroke-dasharray:none;stroke-dashoffset:0;marker:none;visibility:visible;display:inline;overflow:visible;enable-background:accumulate" transform="translate(-84 -1290.362)"/><path d="M91.5 1294.362a.499.499 0 1 0 0 1h4l-.5 3v1l-7 2v2h7v4l-2.5 1v1h8v-1l-2.5-1v-3.999h7v-2l-7-2v-1l-.5-3h4a.499.499 0 1 0 0-1z" style="fill:#444;fill-opacity:1;stroke:none;display:inline" transform="translate(-84 -1290.362)"/></g></svg>