<svg xmlns="http://www.w3.org/2000/svg" width="24" height="24"><g style="display:inline"><path d="M324 1150.362c-.5 0-1 0-1 .25s.343.548.5.75l7.5 7.813v6.187l-4 1c-.5.167-1 .5-1 1h11c0-.5-.5-.833-1-1l-4-1v-6.187l7.5-7.813c.157-.202.5-.5.5-.75s-.5-.25-1-.25z" style="opacity:.3;color:#000;fill:none;stroke:#fff;stroke-width:2;stroke-linecap:round;stroke-linejoin:round;stroke-miterlimit:4;stroke-opacity:1;stroke-dasharray:none;stroke-dashoffset:0;marker:none;visibility:visible;display:inline;overflow:visible;enable-background:accumulate" transform="translate(-319 -1146.362)"/><path d="M324 1150.362c-.5 0-1 0-1 .25s.343.548.5.75l7.5 7.813v6.187l-4 1c-.5.167-1 .5-1 1h11c0-.5-.5-.833-1-1l-4-1v-6.187l7.5-7.813c.157-.202.5-.5.5-.75s-.5-.25-1-.25z" style="color:#000;fill:#444;fill-opacity:1;stroke:none;stroke-width:2;marker:none;visibility:visible;display:inline;overflow:visible;enable-background:accumulate" transform="translate(-319 -1146.362)"/></g></svg>