<svg xmlns="http://www.w3.org/2000/svg" width="24" height="24"><g style="display:inline"><path d="M13.5 1007.862c-4.683 0-8.5 3.817-8.5 8.5s3.817 8.5 8.5 8.5 8.5-3.817 8.5-8.5-3.817-8.5-8.5-8.5z" style="opacity:.3;color:#000;fill:#fff;fill-opacity:1;fill-rule:nonzero;stroke:#fff;stroke-width:2;stroke-linecap:butt;stroke-linejoin:round;stroke-miterlimit:4;stroke-opacity:1;stroke-dasharray:none;stroke-dashoffset:0;marker:none;visibility:visible;display:inline;overflow:visible;enable-background:accumulate" transform="translate(-1 -1004.862)"/><path d="M13.5 1007.862c-4.683 0-8.5 3.817-8.5 8.5s3.817 8.5 8.5 8.5 8.5-3.817 8.5-8.5-3.817-8.5-8.5-8.5zm0 1.5a6.98 6.98 0 0 1 6.156 3.657c-1.116.74-2.142 1.127-2.156 1.843-.01.5 0 .641 0 1 0 .5.26 1.144 1 1.5l1.75.844c-.2.74-.522 1.41-.938 2.031l-1.312-.875c-.75-.5-1.5-.833-2-.5l-1.5 1c-.693.463-.621 1-.5 1.5l.469 1.938c-.317.044-.64.062-.969.062a7.08 7.08 0 0 1-2-.281v-1.72c0-1-.5-1.5-1-2s-1-1-2-1H6.781a7.08 7.08 0 0 1-.281-1.999c0-3.878 3.122-7 7-7zm-3 3.5-.5 2c-.142.568-.52 1.154 0 1.5l1.5 1c1 .667 1.441.28 2 0l1-.5c.745-.372 1-.5 1-1.5v-2c0-.5.008-.798-1-1l-2.5-.5c-1.047-.21-1.244-.023-1.5 1z" style="color:#000;fill:#444;fill-opacity:1;fill-rule:nonzero;stroke:none;stroke-width:2;marker:none;visibility:visible;display:inline;overflow:visible;enable-background:accumulate" transform="translate(-1 -1004.862)"/></g></svg>