<svg xmlns="http://www.w3.org/2000/svg" xml:space="preserve" width="24" height="24" viewBox="-402.5 403.5 24 24"><g style="display:inline"><path d="M9 1009.362c-1 0-1.313.5-1.5 1l-1.5 4c-.188.5-1 1-1 2v5h2v1c0 .5.5 1 1 1h1c.5 0 1-.5 1-1v-1h7v1c0 .5.5 1 1 1h1c.5 0 1-.5 1-1v-1h2v-5c0-1-.738-1.302-1-2l-1.5-4c-.188-.5-.5-1-1.5-1H9zm.5 2h8l1 3h-10zm-.5 6c.554 0 1 .446 1 1s-.446 1-1 1-1-.446-1-1 .446-1 1-1zm9 0c.554 0 1 .446 1 1s-.446 1-1 1-1-.446-1-1 .446-1 1-1z" style="opacity:.3;color:#000;fill:#fff;fill-opacity:1;fill-rule:nonzero;stroke:#fff;stroke-width:2;stroke-linecap:butt;stroke-linejoin:round;stroke-miterlimit:4;stroke-opacity:1;stroke-dasharray:none;stroke-dashoffset:0;marker:none;visibility:visible;display:inline;overflow:visible;enable-background:accumulate" transform="translate(-403.5 -600.862)"/><path d="M9 1009.362c-1 0-1.313.5-1.5 1l-1.5 4c-.188.5-1 1-1 2v5h2v1c0 .5.5 1 1 1h1c.5 0 1-.5 1-1v-1h7v1c0 .5.5 1 1 1h1c.5 0 1-.5 1-1v-1h2v-5c0-1-.738-1.302-1-2l-1.5-4c-.188-.5-.5-1-1.5-1H9zm.5 2h8l1 3h-10zm-.5 6c.554 0 1 .446 1 1s-.446 1-1 1-1-.446-1-1 .446-1 1-1zm9 0c.554 0 1 .446 1 1s-.446 1-1 1-1-.446-1-1 .446-1 1-1z" style="color:#000;fill:#444;fill-opacity:1;fill-rule:nonzero;stroke:none;stroke-width:2;marker:none;visibility:visible;display:inline;overflow:visible;enable-background:accumulate" transform="translate(-403.5 -600.862)"/></g></svg>