<svg xmlns="http://www.w3.org/2000/svg" width="24" height="24"><path d="M9 3v1H7c-.5 0-1 .5-1 1v13h1v2h2v-2h7v2h2v-2h1V5c0-.5-.5-1-1-1h-2V3zM8 6h9v5H8zm1 8c.554 0 1 .446 1 1s-.446 1-1 1-1-.446-1-1 .446-1 1-1zm7 0c.554 0 1 .446 1 1s-.446 1-1 1-1-.446-1-1 .446-1 1-1z" style="opacity:.3;color:#000;fill:#fff;fill-opacity:1;fill-rule:nonzero;stroke:#fff;stroke-width:2;stroke-linecap:butt;stroke-linejoin:round;stroke-miterlimit:4;stroke-opacity:1;stroke-dasharray:none;stroke-dashoffset:0;marker:none;visibility:visible;display:inline;overflow:visible;enable-background:accumulate"/><path d="M9 3v1H7c-.5 0-1 .5-1 1v13h1v2h2v-2h7v2h2v-2h1V5c0-.5-.5-1-1-1h-2V3zM8 6h9v5H8zm1 8c.554 0 1 .446 1 1s-.446 1-1 1-1-.446-1-1 .446-1 1-1zm7 0c.554 0 1 .446 1 1s-.446 1-1 1-1-.446-1-1 .446-1 1-1z" style="color:#000;fill:#000;fill-opacity:1;fill-rule:nonzero;stroke:none;stroke-width:2;marker:none;visibility:visible;display:inline;overflow:visible;enable-background:accumulate"/></svg>