<svg height="16" viewBox="0 0 16 16" width="16" xmlns="http://www.w3.org/2000/svg" xmlns:xlink="http://www.w3.org/1999/xlink"><mask id="a" fill="#fff"><path d="m9.4999207 7.86512914c-.47767299-.27606634-.64203119-.88649546-.36585825-1.3653054.27628414-.47883778.88656685-.64148345 1.36429545-.36550059.4786182.27667852.6440606.88771981.3678877 1.3663628-.2761451.4788656-.88765108.64103823-1.3663249.36444319zm4.4982277-6.26844238c.0174035-.21044361-.0889252-.41356205-.2746149-.52173714-.1867611-.10639537-.4173707-.09927655-.5951949.01983468l-10.88500829 7.30380399c-.19198739.1281903-.28245429.36019671-.22739543.58222129.05409199.22156031.24213354.38802716.47250796.41789524l5.90256049.74530928 3.49998737 4.6338346c.0965294.1294026.2436492.2069874.3993662.2201933.0660602.0054681.1336621-.0004901.2005323-.0182097.2227441-.0623155.3824331-.253724.4013522-.4817325z" fill="#fff"/></mask><g fill="#d40058" mask="url(#a)"><path d="m0 0h16v16h-16z"/></g></svg>