<svg width="200" height="131" viewBox="0 0 200 131" fill="none" xmlns="http://www.w3.org/2000/svg">
<g clip-path="url(#clip0_1295_2629)">
<path d="M18.2798 39.5066C14.6493 39.5066 11.2605 39.0012 8.12 38.0034C4.97904 36.9987 2.27362 35.4969 0 33.4995L6.36343 25.9157C8.29747 27.4072 10.3377 28.4771 12.4725 29.1204C14.6111 29.766 16.7347 30.0889 18.8392 30.0889C19.9278 30.0889 20.7052 29.9519 21.1822 29.6836C21.6611 29.4102 21.894 29.0361 21.894 28.5633V28.4618C21.894 27.9485 21.5423 27.5185 20.8501 27.1859C20.1579 26.8459 18.8537 26.4914 16.9531 26.1192C14.9516 25.7093 13.0403 25.2314 11.2269 24.6897C9.40982 24.1512 7.81582 23.452 6.44168 22.6024C5.06522 21.7564 3.9715 20.6832 3.15493 19.3948C2.34023 18.1031 1.93265 16.5235 1.93265 14.6584V14.5564C1.93265 12.8576 2.26291 11.2776 2.92762 9.8196C3.58394 8.36069 4.55329 7.08483 5.82681 6.00183C7.1008 4.91463 8.68223 4.06778 10.5678 3.45291C12.445 2.8427 14.6111 2.5376 17.0589 2.5376C20.5171 2.5376 23.5467 2.94658 26.1445 3.76314C28.7423 4.57226 31.0737 5.79594 33.1475 7.42441L27.344 15.4713C25.6461 14.2462 23.8541 13.356 21.9713 12.7943C20.0825 12.233 18.3161 11.9521 16.6485 11.9521C15.7681 11.9521 15.1151 12.0881 14.6912 12.3601C14.2594 12.6317 14.0539 12.9899 14.0539 13.4296V13.5302C14.0539 14.0091 14.373 14.4167 15.0205 14.7572C15.6684 15.0949 16.9229 15.4526 18.787 15.8258C21.0625 16.231 23.1316 16.7243 25.0037 17.2982C26.867 17.8809 28.4759 18.616 29.8132 19.5178C31.1538 20.4168 32.1926 21.49 32.9202 22.75C33.6487 24.0063 34.0148 25.536 34.0148 27.3317V27.4365C34.0148 29.3007 33.6426 30.9851 32.8927 32.4761C32.1479 33.9714 31.0933 35.2333 29.7359 36.2715C28.3771 37.3042 26.7291 38.1012 24.7951 38.6625C22.8633 39.2252 20.6866 39.5066 18.2798 39.5066Z" fill="#FC5200"/>
<path d="M45.7161 13.2767H35.2266V3.20215H68.1272V13.2767H57.6343V38.8394H45.7161V13.2767Z" fill="#FC5200"/>
<path d="M88.385 20.1572C89.8117 20.1572 90.9339 19.8507 91.7444 19.2409C92.5591 18.6288 92.9685 17.7769 92.9685 16.6911V16.5881C92.9685 15.4366 92.5591 14.5768 91.7444 14.022C90.9339 13.4607 89.8253 13.1826 88.4376 13.1826H83.2406V20.1572H88.385ZM71.3242 3.20215H88.7422C91.9326 3.20215 94.5546 3.56827 96.607 4.29773C98.664 5.02626 100.315 6.02123 101.572 7.27752C102.661 8.36053 103.475 9.58514 104.02 10.9383C104.561 12.2966 104.835 13.8976 104.835 15.7217V15.8303C104.835 18.4416 104.206 20.6486 102.946 22.4457C101.694 24.2442 99.9799 25.6747 97.8036 26.7223L106.102 38.8394H92.5083L85.7853 28.6573H85.6884H83.2406V38.8394H71.3242V3.20215Z" fill="#FC5200"/>
<path d="M180.815 23.5078L188.583 38.8395H200L180.815 0.967773L161.633 38.8395H173.054L180.815 23.5078Z" fill="#FC5200"/>
<path d="M123.081 23.5078L130.846 38.8395H142.266L123.081 0.967773L103.906 38.8395H115.321L123.081 23.5078Z" fill="#FC5200"/>
<path d="M151.276 18.5329L143.506 3.20215H132.086L151.276 41.0739L170.453 3.20215H159.041L151.276 18.5329Z" fill="#FC5200"/>
<path d="M18.2798 83.6506C14.6493 83.6506 11.2605 83.1452 8.12 82.1475C4.97904 81.1432 2.27362 79.6409 0 77.6436L6.36343 70.0597C8.29747 71.5512 10.3377 72.6212 12.4725 73.2645C14.6111 73.9101 16.7347 74.2329 18.8392 74.2329C19.9278 74.2329 20.7052 74.0959 21.1822 73.8276C21.6611 73.5547 21.894 73.1806 21.894 72.7074V72.6058C21.894 72.0925 21.5423 71.6626 20.8501 71.33C20.1579 70.9899 18.8537 70.6354 16.9531 70.2637C14.9516 69.8533 13.0403 69.3754 11.2269 68.8342C9.40982 68.2957 7.81582 67.5965 6.44168 66.7464C5.06522 65.9005 3.97149 64.8273 3.15493 63.5388C2.34023 62.2471 1.93264 60.6676 1.93264 58.8025V58.7005C1.93264 57.0017 2.2629 55.4216 2.92761 53.9636C3.58394 52.5047 4.55329 51.2289 5.82681 50.1459C7.1008 49.0591 8.68223 48.2118 10.5678 47.597C12.445 46.9872 14.6111 46.6816 17.0589 46.6816C20.5171 46.6816 23.5467 47.0906 26.1445 47.9077C28.7423 48.7163 31.0737 49.94 33.1475 51.5685L27.344 59.6153C25.6461 58.3902 23.8541 57.5001 21.9713 56.9383C20.0825 56.377 18.3161 56.0961 16.6485 56.0961C15.7681 56.0961 15.1151 56.2321 14.6912 56.5046C14.2594 56.7757 14.0539 57.1339 14.0539 57.5737V57.6748C14.0539 58.1531 14.373 58.5607 15.0205 58.9012C15.6684 59.2394 16.9229 59.5967 18.787 59.9698C21.0625 60.3751 23.1316 60.8683 25.0037 61.4422C26.867 62.0249 28.4759 62.7605 29.8132 63.6623C31.1538 64.5608 32.1926 65.634 32.9202 66.8941C33.6487 68.1503 34.0148 69.6801 34.0148 71.4758V71.5806C34.0148 73.4447 33.6426 75.1291 32.8927 76.6202C32.1479 78.1154 31.0933 79.3778 29.7359 80.4156C28.3771 81.4483 26.7291 82.2453 24.7951 82.8066C22.8633 83.3698 20.6866 83.6506 18.2798 83.6506Z" fill="white"/>
<path d="M45.7161 57.4207H35.2266V47.3462H68.1272V57.4207H57.6343V82.9834H45.7161V57.4207Z" fill="white"/>
<path d="M88.385 64.3012C89.8117 64.3012 90.9339 63.9947 91.7444 63.385C92.5591 62.7729 92.9685 61.9209 92.9685 60.8351V60.7322C92.9685 59.5807 92.5591 58.7213 91.7444 58.166C90.9339 57.6047 89.8253 57.3266 88.4376 57.3266H83.2406V64.3012H88.385ZM71.3242 47.3462H88.7422C91.9326 47.3462 94.5546 47.7123 96.607 48.4418C98.664 49.1703 100.315 50.1653 101.572 51.4216C102.661 52.5046 103.475 53.7292 104.02 55.0824C104.561 56.4407 104.835 58.0416 104.835 59.8658V59.9743C104.835 62.5856 104.206 64.7926 102.946 66.5897C101.694 68.3882 99.9799 69.8187 97.8036 70.8663L106.102 82.9834H92.5083L85.7853 72.8013H85.6884H83.2406V82.9834H71.3242V47.3462Z" fill="white"/>
<path d="M180.815 67.6519L188.583 82.9836H200L180.815 45.1118L161.633 82.9836H173.054L180.815 67.6519Z" fill="white"/>
<path d="M123.081 67.6519L130.846 82.9836H142.266L123.081 45.1118L103.906 82.9836H115.321L123.081 67.6519Z" fill="white"/>
<path d="M151.276 62.6769L143.506 47.3462H132.086L151.276 85.2179L170.453 47.3462H159.041L151.276 62.6769Z" fill="white"/>
<path d="M18.2798 127.795C14.6493 127.795 11.2605 127.289 8.12 126.292C4.97904 125.287 2.27362 123.785 0 121.788L6.36343 114.204C8.29747 115.695 10.3377 116.766 12.4725 117.409C14.6111 118.054 16.7347 118.377 18.8392 118.377C19.9278 118.377 20.7052 118.24 21.1822 117.972C21.6611 117.699 21.894 117.325 21.894 116.851V116.75C21.894 116.237 21.5423 115.807 20.8501 115.474C20.1579 115.134 18.8537 114.78 16.9531 114.408C14.9516 113.997 13.0403 113.519 11.2269 112.978C9.40982 112.44 7.81582 111.741 6.44168 110.89C5.06522 110.045 3.9715 108.971 3.15493 107.683C2.34023 106.391 1.93265 104.812 1.93265 102.947V102.845C1.93265 101.146 2.26291 99.5657 2.92762 98.1077C3.58394 96.6488 4.55329 95.3729 5.82682 94.2899C7.10081 93.2032 8.68223 92.3559 10.5678 91.741C12.445 91.1313 14.6111 90.8257 17.0589 90.8257C20.5171 90.8257 23.5467 91.2351 26.1445 92.0517C28.7423 92.8603 31.0737 94.0845 33.1475 95.7125L27.344 103.759C25.6461 102.534 23.8541 101.645 21.9713 101.082C20.0825 100.521 18.3161 100.24 16.6485 100.24C15.7681 100.24 15.1151 100.376 14.6912 100.649C14.2594 100.92 14.0539 101.278 14.0539 101.718V101.819C14.0539 102.298 14.373 102.705 15.0205 103.046C15.6684 103.383 16.9229 103.741 18.787 104.114C21.0625 104.519 23.1316 105.013 25.0037 105.586C26.867 106.169 28.4759 106.905 29.8132 107.806C31.1538 108.705 32.1926 109.778 32.9202 111.039C33.6487 112.295 34.0148 113.824 34.0148 115.62V115.725C34.0148 117.589 33.6426 119.273 32.8927 120.764C32.1479 122.259 31.0933 123.522 29.7359 124.56C28.3771 125.593 26.7291 126.39 24.7951 126.951C22.8633 127.514 20.6866 127.795 18.2798 127.795Z" fill="#B0B0B0"/>
<path d="M45.7161 101.565H35.2266V91.4902H68.1272V101.565H57.6343V127.128H45.7161V101.565Z" fill="#B0B0B0"/>
<path d="M88.385 108.445C89.8117 108.445 90.9339 108.139 91.7444 107.529C92.5591 106.917 92.9685 106.065 92.9685 104.979V104.876C92.9685 103.725 92.5591 102.865 91.7444 102.31C90.9339 101.749 89.8253 101.471 88.4376 101.471H83.2406V108.445H88.385ZM71.3242 91.4902H88.7422C91.9326 91.4902 94.5546 91.8564 96.607 92.5858C98.664 93.3143 100.315 94.3093 101.572 95.5656C102.661 96.6486 103.475 97.8732 104.02 99.2269C104.561 100.585 104.835 102.186 104.835 104.01V104.118C104.835 106.73 104.206 108.937 102.946 110.734C101.694 112.532 99.9799 113.963 97.8036 115.011L106.102 127.128H92.5083L85.7853 116.945H85.6884H83.2406V127.128H71.3242V91.4902Z" fill="#B0B0B0"/>
<path d="M180.815 111.796L188.583 127.128H200L180.815 89.2559L161.633 127.128H173.054L180.815 111.796Z" fill="#B0B0B0"/>
<path d="M123.081 111.796L130.846 127.128H142.266L123.081 89.2559L103.906 127.128H115.321L123.081 111.796Z" fill="#B0B0B0"/>
<path d="M151.276 106.821L143.506 91.4902H132.086L151.276 129.362L170.453 91.4902H159.041L151.276 106.821Z" fill="#B0B0B0"/>
</g>
<defs>
<clipPath id="clip0_1295_2629">
<rect width="200" height="130.33" fill="white"/>
</clipPath>
</defs>
</svg>
